<svg xmlns="http://www.w3.org/2000/svg" width="200" height="70" viewBox="0 0 200 70"><path fill-rule="evenodd" clip-rule="evenodd" fill="#6F6F6E" d="M18.5 59H2v-.4h5V12.4H2V12h14.2c6 0 13.5 1 13.7 11 .2 9.6-8 11.3-11.7 11.3 6 0 13.3 4.5 13.3 12.4 0 6.4-5.4 12.3-13 12.3m-3.3-46.6h-2.7V34H17c3.6 0 6.7-4 6.7-11 0-7.5-3.4-10.6-8.4-10.6m1.2 22.3h-3.8v24h4.5c4.7 0 7.4-4.5 7.5-11.5 0-8.3-3.2-12.5-8.2-12.5m32 24.3v-.4h5.2L50 45H37.4L35 55l-1 3.8h5v.3H28.7v-.4h4.7l1-3.8L46 10.4l13.6 48.2h4.7v.3h-16zm-4.7-38l-6.4 23.6h12L44 21zM68 59l20-47h-9.6c-7.2 0-9.2 9-9.3 18v5h-.4V11.5h25.6l-19.8 47h9C92 58.2 93.7 52 94 34.8h.3v24H68zm128 .5c-.8.4-1.8.6-3 .6-4.8 0-6.5-3.4-6.3-13V43c0-6-2.8-8-7.3-8H175v24h5.7v.2h-16V59h4.6V12.2h-4.7v-.5h15.2c7.4 0 13.5 2 13.5 11.6 0 8-6.6 11.2-11.7 11.2 7.6 0 12 3.2 11.2 12.8l-.2 6c0 3.4.4 6 2.4 6 .6 0 1.2-.2 1.6-.7.4-.5.7-1.2.7-1.7v-8.6h.5v4.3c0 4 0 4.3-.3 5-.3.6-.7 1.4-1.5 1.8M178.5 12H175v22h4.3c5 0 7.2-3 7.5-10.5.5-8.4-3.7-11.4-8.3-11.4M116 59v-.4h5.2L117.4 45H105l-2.6 9.8-1 3.8h5v.3h-10v-.4h4.6l1-3.8 11.8-44.4 13.6 48.2h4.7v.3h-16zm-4.6-38L105 44.5h12L111.5 21z"/><path fill-rule="evenodd" clip-rule="evenodd" fill="#6F6F6E" d="M149.3 59v-.3h5l-3.7-13.5h-12.4l-2.6 9.7-1 3.7h5v.3h-10v-.3h4.6l1-3.8L147 10.3l13.6 48.2h4.7v.4h-16zm-4.7-38l-6.4 23.6h12L144.7 21zM120 14v2.3h.8v.2h-2.4v-.2h.7v-4.7h-.6v-.2h2.4v.2h-.7v2.2h2v-2.2h-.7v-.2h2.3v.2h-.7v4.7h.6v.2h-2.3v-.2h.7V14m3.7 0c0-.3-.4-.4-.5-.4-.3 0-.6 0-.5.3v.3c0 .2 0 .3-.2.3s-.4 0-.4-.4c0-.6.7-.8 1-.8.4 0 .7 0 1 .2.2 0 .3.2.3.5v2c0 .2 0 .2.2.2 0 0 .2 0 .3-.2 0 .3-.3.5-.6.5s-.5-.2-.6-.5c-.3.3-.6.5-1 .5s-.8-.3-.8-.7c0-1 1.2-1 1.8-1v-1zm0 1c-.4 0-1 0-1 .7 0 .3 0 .6.5.6.3 0 .4-.2.5-.4v-1zm2.7-.7c.2-.4.5-1 1-1 .3 0 .6.3.6.6 0 .2 0 .3-.4.3-.2 0-.3-.2-.3-.3v-.3s-.2 0-.3.2c-.3.2-.4.6-.4 1.6v.7h.6v.2h-1.8v-.2h.4v-2.6h-.5v-.2h1.3v.8z"/><path fill-rule="evenodd" clip-rule="evenodd" fill="#6F6F6E" d="M131.4 14c.2-.2.5-.5 1-.5.7 0 1.2.8 1.2 1.6 0 1-.6 1.7-1.3 1.7-.4 0-.7-.2-1-.5v2h.6v.2h-2v-.2h.6v-4.4h-.5v-.2h1.4v.5zm1.4.3c0-.4 0-.7-.5-.7-.4 0-.8.6-.8 1v1c0 .4.3 1 .8 1 .4 0 .6-.3.6-.7v-1.7zm2 .5v.6c0 .5 0 1 .6 1 .5 0 1-.4 1-1h.3c-.2.8-.7 1.2-1.4 1.2-.8 0-1.4-.8-1.4-1.6s.5-1.6 1.3-1.6c.7 0 1.3.5 1.3 1.2 0 .2 0 0-.2 0h-1.6zm1-.2c0-.5.2-1-.4-1-.6 0-.5.6-.5 1h1zm2.4-.3c.2-.4.5-1 1-1 .3 0 .6.3.6.6 0 .2-.2.3-.5.3-.2 0-.3-.2-.3-.3v-.3s-.2 0-.3.2c-.3.2-.4.6-.4 1.6v.7h.6v.2h-2v-.2h.4v-2.6h-.5v-.2h1v.8zm2.8-1.5c0 .5-.2 1-.7 1.3.3-.3.5-.8.5-1v-.4h-.2c0 .3-.2.4-.4.4s-.4-.2-.4-.5.2-.5.5-.5c.5 0 .8.4.8.8m.1 3.6v-1c.2.4.5 1 1 1 .3 0 .7-.3.7-.7 0-.4-.4-.4-.8-.5-.7 0-1-.4-1-1s.4-1 1-1l.6.3v-.2h.2v1h-.2c0-.5-.4-1-.8-1-.3 0-.6.3-.6.6 0 .2 0 .3.7.4.8 0 1 .2 1 1 0 .7-.3 1-1 1 0 0-.4 0-.6-.3l-.2.5z"/></svg>