<svg xmlns="http://www.w3.org/2000/svg" width="200" height="70" viewBox="0 0 200 70"><path fill="#6F6E6F" d="M32.3 26.8c-4.4 0-7.8 3-7.8 8 0 4.8 3.4 7.7 7.8 7.7s7.8-3 7.8-7.8c0-5-3.3-8-7.7-8m0 12.7c-2.5 0-4.2-1.8-4.2-4.7 0-3 2-4.8 4.3-4.8 2.5 0 4.2 1.8 4.2 4.7 0 3-1.8 4.7-4.2 4.7m-21.2-3.7c-1 1-2.5 1.2-4 1.2h-2v5.8H1.5V27h5.6c1.6 0 3 .2 4 1 1 1 1.7 2.2 1.7 4 0 1.5-.7 2.7-1.7 3.6m-3-5.5c-.4-.2-1-.3-1.7-.3H5.2V34h1.4c.8 0 1.3-.2 1.8-.5.4-.3.8-1 .8-1.7 0-.8-.3-1.4-.8-1.7m53 5.5c-1 1-2.5 1.2-4 1.2h-2v5.8h-3.7V27h5.6c1.6 0 3 .2 4 1 1 1 1.7 2.2 1.7 4 0 1.5-.6 2.7-1.6 3.6m-3-5.5c-.4-.2-1-.3-1.7-.3h-1.4V34h1.4c.8 0 1.3-.2 1.8-.5.4-.3.8-1 .8-1.7 0-.8-.3-1.4-.8-1.7M84 41.3c-1.2 1-2.6 1.3-4.3 1.3-2.2 0-4.2-1.2-5.4-2.3l1.8-2.6c1.2 1.2 3 2 4 2 1.3 0 2-.7 2-1.7s-1-1.4-1.7-1.7c-.7-.2-1.8-.6-2.3-1-.4 0-1.2-.4-1.8-1-.7-.6-1.2-1.5-1.2-3s.7-2.6 1.6-3.4c1-.8 2.3-1.3 4-1.3 1.8 0 3.8.8 5 2L84 31c-1-1-2.3-1.6-3.4-1.6-1.2 0-2 .4-2 1.4s1 1.3 1.6 1.6l2.3 1c.4 0 1.4.5 2 1 .7.7 1.3 1.7 1.3 3 0 1.5-.8 2.8-2 3.7m26.2-5.3c0 2.2-.3 3.7-1.4 5-1 1-2.8 1.7-5 1.7-2.3 0-4-.7-5-1.8-1-1.2-1.5-2.7-1.5-5v-9h3.8v9c0 1.2 0 2 .6 2.7.5.6 1.2 1 2.2 1s1.7-.4 2.2-1c.5-.6.6-1.5.6-2.6v-9h3.7v9zm26.2 4.2c-.8.6-2.6 2.5-6.8 2.5-4.2 0-8-2.8-8-8 0-5 3.7-7.8 8-7.8 4 0 5.8 2 6.3 2.7l-2.4 2c-.6-.6-1.8-1.7-4-1.7-2.4 0-4.3 1.8-4.3 5 0 3 2 4.8 4.4 4.8 2.5 0 3.2-1 3.2-1v-2.3h-3.2v-2.7h6.7V40zm27 2.5h-4l-1-3.2h-5.7l-1 3.2h-4l6-15.7h3.8l6 15.7zm-6-6l-2-5.6-2 5.5h4zm29.8 6h-4.4l-3.3-6H178v6h-3.6V27h5.6c1.8 0 3 .3 4 1 1 .8 1.8 2 1.8 3.6 0 3-2 4-3 4.5l4 6.5zM181.4 30c-.5-.2-1-.3-2-.3H178v4h1.6c.8 0 1.4 0 2-.4.4-.3.7-.8.7-1.6s-.3-1.3-.8-1.6m16.9 9.6c0 1.6-1.3 2.8-2.8 2.8-1.6 0-2.8-1.3-2.8-2.8 0-1.6 1.3-2.8 2.8-2.8 1.6 0 2.8 1.2 2.8 2.7"/></svg>