<svg xmlns="http://www.w3.org/2000/svg" width="200" height="70" viewBox="0 0 200 70"><path fill-rule="evenodd" clip-rule="evenodd" fill="#6F6F6E" d="M6.3 62.7H2v.8h24V48.3h-.7s0 8.8-3 11.6c-2.3 2.4-5 2.6-9.2 2.6v-28s3-.2 4.4 1.2c2.2 2.2 2.5 5 2.5 9h.7V23.5H20c0 4-.3 6.8-2.6 9C16 34 13 33.7 13 33.7V7.2c4.3 0 6.3.2 8.8 2.7 3 2.8 3 11.5 3 11.5h.6V6.3H2V7h4v55.7zm64-55.5v55.5c4.2 0 6.8-.2 9.3-2.7 3-3 3-11.6 3-11.6h.6v15.2h-24v-.8h4.3V7.2h-4.3v-1h15v1h-4zm56.7 0v55.5c4.3 0 7-.2 9.4-2.7 3-3 3-11.6 3-11.6h.6v15.2h-24v-.8h4.2V7.2H116v-1h15v1h-4zm50 55.5h-4v.8h24V48.3h-.6s0 8.8-3 11.6c-2.4 2.4-5 2.6-9.2 2.6v-28s3-.2 4.3 1.2c2.2 2.2 2.5 5 2.5 9h.8V23.5h-.8c0 4-.2 6.8-2.5 9-1.4 1.4-4.3 1.2-4.3 1.2V7.2c4.2 0 6.2.2 8.7 2.7 3 2.8 3 11.5 3 11.5h.6V6.3H173V7h4.3v55.7z"/><path fill-rule="evenodd" clip-rule="evenodd" fill="#FFF" d="M193.5 61c0-.7.6-1.3 1.4-1.3.7 0 1.3.6 1.3 1.4 0 1-.6 1.5-1.4 1.5-1 0-1.5-.6-1.5-1.4m2.6 0c0-.6-.4-1-1-1-.8 0-1.3.4-1.3 1 0 .8.5 1.3 1.2 1.3.5 0 1-.5 1-1.2m-.5 1h-.2l-.4-.8h-.5v.7h-.2v-1.6h.7c.4 0 .5 0 .5.4 0 .3-.2.4-.5.4l.5.7zm-.7-1h.6c0-.3-.2-.3-.4-.3h-.4v.5h.2z"/></svg>