<svg xmlns="http://www.w3.org/2000/svg" width="200" height="70" viewBox="0 0 200 70"><path fill-rule="evenodd" clip-rule="evenodd" fill="#6F6E6F" d="M121.6 23.7c-3 0-5.6.7-8 2v-16l-15 2.8v1.3l1.7.2c2 .4 2.7 1.6 3 4.3.5 5.4.3 34 0 38.7 4 1 8.4 1.6 12.6 1.6 11.8 0 19-7.4 19-19 0-9.2-5.8-16-13.4-16m-5 32.6c-1 0-2 0-2.8-.2-.2-3-.4-16.3-.2-28 1.3-.4 2.2-.7 3.4-.7 5 0 7.6 5.8 7.6 13 0 9-3.4 16-8 16M42.4 10.7H3v2l2.2.3c3 .4 4 2.2 4.5 6.5.7 8 .4 22.6 0 29.6-.5 4.4-1.6 6.4-4.5 6.6L3 56v1.8h25.3V56l-2.7-.5c-3-.2-4-2.2-4.5-6.5 0-3-.3-7.6-.3-13.4l5.4.2c3.5 0 5 2.7 5.7 6.5h2v-16h-2c-.7 4-2.2 6.6-5.6 6.6H21c0-7.5.2-14.7.4-19h8c6 0 9 4 11.3 10.6l2.2-.7V10.6z"/><path fill-rule="evenodd" clip-rule="evenodd" fill="#6F6E6F" d="M55 23.3c11.3 0 17 7.6 17 17.7 0 9.6-6.4 17.7-17.6 17.7-11 0-16.7-7.7-16.7-17.7 0-9.7 6.2-17.7 17.4-17.7m-.6 2.2c-5 0-6.3 6.7-6.3 15.4 0 8.4 2.3 15.3 6.8 15.3 5 0 6.5-6.7 6.5-15.4 0-8.5-2-15.5-7-15.5M138 41.2c0-9.2 5.8-18 17.2-18 9.4 0 14 7 14 16.2h-21c0 8.3 4 14.3 12 14.3 3.6 0 5.4-1 7.6-2.5l1 1c-2.3 3.2-7.3 6.4-13.5 6.4-10.2 0-17.3-7-17.3-17.4m10.3-4.3l10.5-.3c0-4.5-.7-11.2-4.5-11.2s-5.8 6.3-6 11.4M195.7 25c-2.7-1-6.3-1.7-10.3-1.7-8.3 0-13.4 5-13.4 10.7 0 5.8 3.8 8.3 9.2 10 5.6 2 7.2 3.7 7.2 6.4s-2 5.2-5.6 5.2c-4.3 0-7.4-2.5-10-9.2l-1.5.4.2 10c2.7 1 7.6 2 12 2 8.6 0 14.2-4.6 14.2-11.5 0-4.7-2.5-7.4-8.3-9.6-6.3-2.5-8.5-4-8.5-7 0-2.8 2-4.8 4.6-4.8 4 0 6.7 2.4 8.7 8.4l1.6-.4-.3-9zm-94.7-.8c-3.8-2.2-10.5-1-14 7v-8l-15 3v1.3l1.7.2c2 .2 3 1.3 3 4.3.5 5.4.3 14.8 0 19.5 0 2.7-1 4-3 4.3L72 56v1.8h21V56l-2.7-.2c-2.2-.2-3-1.6-3-4.3-.5-4.3-.5-12.8-.3-18 1-1.7 6-3 10.5 0L101 24z"/></svg>