<svg xmlns="http://www.w3.org/2000/svg" width="200" height="70" viewBox="0 0 200 70"><path fill-rule="evenodd" clip-rule="evenodd" fill="#6F6E6F" d="M1 11.7h17.3v.5H14l13 35.4 11-35.4h-4.4v-.5H43v.5h-4.2l-15.3 49-18-49H1m116.7-1.4v17h-.4c-.7-3.3-1.8-6.6-3.6-9.6-2-3.5-5.5-7.3-10-7.3-10.2 0-11 18.2-11 25 0 6.3.4 12.8 2.7 18.6 1.6 4 4 6 8 6 3.5 0 7-1.6 9-4.5.4-.7.4-1.5.4-2.4v-13h-4.5V40h16.3v.5h-3.8v19.7h-.3c-1-1.6-2.5-2.7-4.4-2.7-1.3 0-2.7.5-4 1.2l-1 .6c-2.5 1-5 2-7.6 2C90.7 61 84 47.6 84 36.4c0-8.2 3-17 9.7-22 3-2.3 6.6-4 10.4-4 1.6 0 3 .5 4.5 1l1 .4c1.2.3 2.4.7 3.7.7 1.6 0 3-1 4-2h.5zm4.8.9H140v.5h-4.7V50c0 5.8 6 9.4 11.4 9.4 5.7 0 10.6-4 10.6-10V12.3H152v-.5h44.8v17.5h-.3c-.5-4.6-1.4-9.4-4.6-13-3.3-3.7-7.7-4-12.2-4h-5v22.5l3 .2c6.2 0 7.8-4.3 8-9.5h.5v19.7h-.4c-1-4.7-3-9.8-8.5-9.8H175v24.2h7.2c3.8 0 7.5-1.6 10.2-4.3 2.3-2.2 4-5.2 4.4-8.3.3-1.8.4-3.6.5-5.3h.4V60h-35v-.4h4V12.2H158v37.5c0 7.8-7.4 11.2-14.3 11.2-7.8 0-16.4-4-16.4-12.8v-36h-4.8v-.5zm-48.8 6.5c-3.5-4.3-9-7.6-14.7-7.6-6.2 0-11.8 3.4-15.5 8.2-3.7 5-5.5 11-5.5 17.3 0 6.5 2 13 6 18 3.6 4.4 9 7.6 14.8 7.6 6 0 11.7-3.5 15.4-8.3 3.7-5 5.6-11 5.6-17.2 0-6.3-2-12.8-6-17.8M58.8 61c-9.6 0-12-17.7-12-24.8 0-7 2.4-24.7 12-24.7s12 17.7 12 24.7S68.4 61 58.8 61"/></svg>