<svg xmlns="http://www.w3.org/2000/svg" width="200" height="70" viewBox="0 0 200 70"><path fill-rule="evenodd" clip-rule="evenodd" fill="#6F6F6E" d="M1.5 13h7v36.3h-7V13zM28 21c2-.2 3.8-.2 5.6 0 1.8.2 3.6 1 5.2 1.7 1.6.8 2.7 1.7 3.6 3 1 1.3 1.6 2.7 2 4.2.2.8.4 1.7.4 2.6l.2 16.7h-6.6v-14l-.8-4.2c0-.7-.4-1.7-1.3-2.4-.8-.6-1.6-1-2.5-1.3-1.3-.3-2.6-.5-4-.5-1.3 0-2.8 0-4 .4-1.2.2-2.4.5-3.4 1L20 29.8l-1 .7v18.8h-6.6V21.4H19V24c.8-.6 1.7-1.2 2.7-1.5 2-.7 4.2-1.2 6.4-1.5M169 33h21.5c-.2-.6-.3-1.2-.6-1.6l-2-2c-1-.6-2-1.2-3-1.6a12 12 0 0 0-3.5-.8h-4c-1.2 0-2.3.4-3.4.8-1 .4-2 1-2.7 1.5-.7.6-1.5 1.3-2 2L169 33zm-19-11.7l-20.6 37H122l5.3-9.4-15-27.6h7.7l11.2 21 11.3-21h7.5zm2-8.3h6.7v36.4h-7V13zm20.3 9.3c2.3-.6 4.7-1 7-1 2.5 0 4.8.7 7 1.2 2.3.5 4 1.7 5.4 3 1.6 1.5 3 3.2 3.7 5.3 1 2.4 2 4.8 2.3 7.5h-29.3c.4 1 1 2 1.5 2.7.8.8 1.6 1.5 2.5 2 1 .7 2 1 3 1.2 1.3.2 2.5.4 3.7.4 1.8 0 3.7-.2 5.5-.4l3.6-.8c1-.3 1.8-.8 2.7-1.3l2-1 3.4 4.5-3.2 2c-1.2.7-2.4 1.3-3.7 1.6-1.5.5-3 1-4.5 1-2 .2-3.8 0-5.8.2-2.7 0-5-.5-7.6-1.3-2.2-.8-4-1.6-5.6-3-1.4-1.4-2.6-2.8-3.2-4.5-.7-1.8-1-3.8-1-5.6 0-2.2.4-4.3 1.3-6 1-2 2-3.4 3.4-4.6 1.6-1.5 3.5-2.6 5.5-3M50 23.3c.2 2 .8 3.5 2 5 1.4 1.4 3 2.4 4.7 3 2 .8 4.2 1.5 6.4 1.7 2 .3 4 .4 5.8.5 2 0 4.2 0 6.2.4 1.6 0 3 .6 4.6 1 1.3.4 2 1.3 2.8 2.3.4.7.5 1.5.3 2.4-.3 1-.8 2-1.5 2.5-1 .7-2 1.4-3.2 1.7l-4.4.6c-2 0-4.3 0-6.4-.2-2.2-.2-4.4-.6-6.6-1-1.7-.5-3.5-.7-5-1.6l-4-2.3-3.3 5.5c1.6.8 3.2 1.7 5 2.4l5.2 2c2 .4 4 .6 6 .7 2.2.3 4.4.5 6.7.4 2.6 0 5.2-.4 7.7-1 2-.3 4-1.3 5.8-2.4 1.5-1 2.7-2.3 3.6-3.8 1-1.4 1.2-3 1-4.7 0-2-1-4-2.3-5.5-1.2-1.5-2.6-2.8-4.7-3.5-2.2-.7-4.5-1.2-6.8-1.6-2.2-.4-4.4-.4-6.6-.6l-3.2-.3c-1.4 0-2.7-.2-4-.4-1.4-.3-2.4-.7-3.3-1.4-.7-.6-2-1-2-2s1-1.5 1.7-2c.8-.7 1.7-1.3 2.7-1.7 1.2-.5 2.6-.7 4-1l4-.2c1.8 0 3.7 0 5.5.3 1.5.2 3 .6 4.5 1l4 1.6 3 1.7 3.5-5-3.8-2c-1.4-.6-3-1.2-4.4-1.6-1.8-.5-3.7-1-5.5-1-2.2-.4-4.5-.6-6.8-.5-2.5 0-5 .4-7.5.7-2 .3-4.3 1-6 2-1.7 1-3 2-4 3.6-1.3 1-1.6 2.5-1.5 4.2m40.2-2H95V14h6.7v7.2h8.8V27h-8.8c0 5.3-.7 10.7 0 16 0 1 1.3 1 2 1 .8.2 1.7.4 2.5.4.7 0 1.3 0 2-.3l1.4-.2h.5l.4-.4h.3L112 49l-.8.3c-.7 0-1.4.3-2 .4l-2.5.4c-1 .2-2 .4-2.8.4-1.4 0-2.7-.4-4-.7-1-.3-2-.8-2.6-1.6-.6-.7-1.6-1.4-1.7-2.4l-.5-4L95 27h-5v-5.6z"/></svg>