<svg xmlns="http://www.w3.org/2000/svg" width="731.2" height="128.2" viewBox="0 0 731.2 128.2"><path fill="#00979E" d="M722.6 106.6c-2.2 14-15.4 23.4-29.4 21.3C476 96 255.2 96 38 128c-14 2-27-7.6-29.4-21.4L.3 54.3c-2.2-14 8-27 22.6-29.3C250-8.3 481-8.3 708.2 25c14.6 2 24.8 15.4 22.5 29.2l-8.2 52.4z"/><path fill="none" stroke="#FFF" stroke-width="4" stroke-linecap="round" stroke-miterlimit="10" stroke-dasharray="0,9.0906" d="M717 99.6c-2 12.6-14 21.2-26.7 19.4-214.7-31.7-432.8-31.7-647.5 0-12.7 2-24.6-6.8-26.7-19.4L9.8 59c-2-12.5 7-24.5 20.3-26.4 223-33 450-33 673 0 13.2 2 22.3 14 20.3 26.5-2 13.6-4.2 27-6.3 40.6z"/><path d="M125 54.7c5-.3 9 1.6 10 4 0 1.2 0 1.7.2 2.8 2.2 16.8.6 25.2.3 25.6-.2.4-1.8 2.7-6 4.4-.4 0-.7 0-1.2.2-4.5.4-6.8.2-7-.4 0-3.4.4-5.5 1-5.5h.3c2.4.2 4 .3 4.6.2h.3c2.3-.4 3.3-2 3-5l-.2-2.8c-1.6 1-3.7 2-6.3 2.2-1.6.2-5.4-1.3-8-4.3-1-1-1.8-3.3-2-5-1.3-6 .8-11.8 5-14.2 2-1.3 4.2-2 6-2zm-5 13.6c.2 3.3 2 5.7 4.5 6.2h.3c2-.3 3.8-2.4 5.2-6.4l-.8-5.7c-.2-1.6-1.8-2.2-4.7-1.8h-.5c-2.3.3-4 3.4-4 7.8zM151.7 51c5-.6 9.4 2.8 10.7 8.7l.6 2.6c1 5-1.6 10.3-6 12.3-1.4.6-2.7 1-3.4 1-5 .6-8.4-2-10-8l-.4-3.2c-.4-3.5.5-7.2 2.8-10.6 1-1.5 3-2.5 5.7-2.8zm-3 14c.6 3.6 3 5.7 4.5 5.2 2.6-.8 4-4.2 3.7-8-.4-2.6-1.8-4.6-4.4-6h-.3c-1.4.2-3 2.2-3.5 5.5-.2 1.7-.2 3 0 3.4zm29.6-17c5-.5 9.3 3 10.5 9 0 .6.4 1.7.5 2.5 1 5-1.7 10.2-6 12.2-1.5.6-2.8.8-3.6 1-5 .4-8.4-2.3-10-8.2 0-1.3 0-2-.3-3.2-.4-3.5.6-7.2 3-10.6 1.2-1.5 3.2-2.4 6-2.7zM175 62c.7 3.6 3 5.8 4.5 5.3 2.6-.8 4.2-4.2 3.8-8-.3-2.5-1.7-4.5-4.2-6h-.2c-1.4.3-3 2.3-3.5 5.6-.3 1.3-.3 2.6-.2 3zm35.6-31.3c1.7 0 2.5-.2 4-.3.5 0 .7.2.7.5 1 12 4.8 31.5 2.2 36-1 2-8 3.4-11 3.7-2.5.2-5.8-.6-8-2.5-2.6-2.4-4-6.3-4.3-8.7V59c-.7-6.2 2.5-10.3 8.3-13 1-.3 1.5-.6 2-.6l5.8.8-1.2-13.6c0-1.2.5-1.8 1.6-2zM200 58.2c1.2 4.2 2.7 6 3.4 6.2.8.2 2 1 3 1 2.6 0 4-1.3 4.7-3.5l-.7-9.7c-1-1-2.6-1.4-4.8-1.2l-1 .2c-3 1.3-4.2 3-4 5l-.4 2zm42.7-15.8h3.6s2-.6 2.2-.4l.6.5c.6.5 0 4.6.2 6L250 61c.5 7.4-.2 11.7-1.6 13-2 2-4.2 3.5-6.2 3.6h-1.6c-3.4 0-5.2 0-5.2-.6-.2-3.3.2-5.2.7-5.2 2.3 0 4 .5 4.7.5 2.5-.2 3.5-2.3 3.4-6 0-2.7 0-5.5-.2-8.4l-.6-8.4c0-1.8-1-4.6-.7-6.4 0-.2 0-.7.2-.8zm1.7-14.6c1.2 0 2.3.6 3.2 2 0 1 0 1.4.2 2.4-.7 1.5-1.7 2.2-3 2.3-2.3.2-3.5-.7-3.7-2.7V31c0-1.6 1-2.7 3-3.2h.4zm29.9 12.5c1 0 2 .4 2 .7.4 13.7.6 22.4.3 23-.2.3-1 .6-1.6.6-1.5 0-2.3 0-3.8.2 0-.4-.2-.6-.3-1-2.2.8-3.7 1.3-4.6 1.3-4.8.4-7.8-2.5-9-8.5l.2-2.7L257 42c0-.4 0-.6.4-.6 2.2 0 3.3-.2 5.5-.3l.6 12.7c.2 3.7 2 5.3 2.2 5.5 0 0 0 .3.3.2 3-.4 4.7-3 4.6-6.7V40.6h1.3c.5 0 1.4-.3 2.3-.3zm16.4-.5h.3c3.4 0 6.6 1 9.4 3.7v.3c-1 2-2 3.6-3 3.8-.2 0-2-.8-5.2-2.5h-.3l-1.7.4v.8c.2.6 3.5 2 6.7 4.8 1.7 1.5 2.6 4 2.7 6v1c0 2-1.7 4-5.2 5.7-1 0-1.5.2-2.4.4-2.5.2-5.5-1-8.7-3.8l2.3-4h.5c.6 0 2.2.6 5 2 .4.3 1 .4 1.2.3 1-.2 1.8-1.5 1.5-2.2-.2-.7-5-2.6-8-5.6-1-1-1.4-2.7-1.4-3v-1c-.2-3.4 3.7-5.4 4.4-6.2.2-.2.8-.6 2-.7zM313.8 24c.3 0 .6.3.8.3V30c-.2.5.2 1.7.2 2.3V39c2.3 0 3.5 0 5.8-.2v4.8c0 .4 0 .6-.4.6h-1.4c-1 0-2.3 0-4 .4v8.6c0 1.4.4 3 .8 4.8l4.6-1.7 2 3v1c-2 2-4 3-6.7 3h-.8c-2.6.2-4.3-1.5-5-4.8v-3.7l-.7-10c-1 0-1.5 0-2.5.2-1 0-1.7-.5-1.7-1.5v-3.2c0-.4 4-.5 4.5-1.2.2-.2.2-2 .2-2.6 0-1.6-.4-3.8-.4-5.3v-5.8c-.2-.8 2.3-1.7 4.8-1.2zM357 38.5c5.3.4 8.8 2.7 9.4 5.3v2.7c0 17-2.6 25-3 25.4-.2 0-2 2.2-6.4 3.4h-1.3c-4.5-.2-6.8-.7-6.7-1.3.2-3.3 1-5.3 1.6-5.3h.3c2.2.5 3.8.8 4.5.8h.3c2.3 0 3.5-1.5 3.5-4.6 0-1.2 0-1.7.2-2.8-1.8 1-4 1.4-6.5 1.4-1.6 0-5.2-2-7.4-5.3-1-1.3-1.3-3.6-1.4-5.3-.4-6.2 2.4-11.5 7-13.5 1.8-.7 4.2-1 6-1zm-6.4 13c-.3 3.2 1.2 5.8 3.6 6.6h.3c2 0 4-1.8 6-5.6v-6c0-1.5-1.5-2.3-4.4-2.3h-.4c-2.4.2-4.6 3-5 7.4zM384 38.3c5.2 0 9 4 9.5 10l.2 2.7c.4 5-3 10-7.5 11.4-1.4.5-2.8.5-3.5.5-5 0-8-3.2-9-9.3v-3.2c0-3.6 1.5-7 4.2-10 1.4-1.5 3.4-2.2 6-2.2zM379.5 52c.2 3.4 2 6 3.8 5.6 2.6-.5 4.6-3.7 4.7-7.4 0-2.6-1.2-4.8-3.6-6.5h-.3c-1.4 0-3 1.8-4 5-.5 1.5-.7 2.7-.6 3.2zm29.2-28.3c.3 0 .6.3.8.3v3.7c0 1-.4 1.7-.4 2l.3 2.3v2c0 1-.2 2.5-.5 4.6h5.8v5c0 .3-.3.4-.7.4h-1.5c-1 0-2.3 0-4 .2l-.3 8.6c0 1.4 0 3 .4 4.8 2-.6 2.8-1 4.7-1.5.7 1.3 1 2 1.8 3v1.2c-2 2-4 2.8-6.7 2.8h-.8c-2.6 0-4.2-1.8-4.8-5.2V44.2h-2.5c-1 0-1.6-.6-1.6-1.6v-3.2c0-.4 4.2-.3 4.8-1 .3-.3.3-2.2.3-2.7.2-1.6-.2-3.8-.2-5.4v-6c.2-.4 2.7-1.2 5.2-.6zm41 16.3c5 0 8.3 3.4 10.2 9.8 0 .5 0 .8-.2 1.3-2 1-12.6 2.8-14.7 5.6-.2.4 1.5 2 4.3 3.4h.6c.8 0 3-1.2 6.6-3.7h.8c.2 0 1 1 2.3 3v.6c-3.2 3.5-7 5.2-11.4 5h-.5c-3.8-.2-8-3.4-9.4-8.2-.7-2-.6-4.3-.6-5.4.2-4 2.4-8 6.5-10.5 1.3-1 3.3-1.2 5.4-1zm-6 10v2l10.2-3.5c-.8-2.3-2-3.6-3.5-3.6h-.8c-3.8.8-5.8 2.6-6 5zm22.3-9.3c.8 0 1 .2 2 .4h1l1 .2h1.7c1.6 4 4.3 7.7 4.7 7.6 1.8-.2 6-6.7 6.2-7l5.5.5v.3c0 1.2-8 7.5-8.3 10.4-.4 3.8 7 12.7 7 13.3v.3l-6-.4-4.3-8.3-1-1-6 8.8-2.7-.4c-1.3 0-2 0-3.2-.2v-.8c3.4-4.6 5-7 8.5-11.6-4.3-6.8-6.6-11.7-6.4-12h.4zm39.3 3.3c2.8 0 5.5 1.7 8 4.6v.8c-1.4 2-2.6 3-3 3-2.2-1-4.5-3.3-5.5-3.4-3-.3-5.4 1.8-6.8 6.2v1c0 4.4 1.6 6.7 5 7 1.2 0 3-1 5-2.6h.5c.4 0 1.5 1 3 3.2v.5c-2.5 2.8-7 3.6-7.4 4 0 0-.6.4-1.8.4-4.3 0-8.3-3.7-9.4-9-.3-1.6-.3-3-.2-4V54c.3-2.2 2.3-6 6-8.6 1.5-1.3 4-1.7 6.7-1.5zm17.3 1c.2 0 .3.2.5.3h1.8c1 0 1.6.4 1.6.8v1.4c-.7 6.6-1.7 11.6-2 14 0 1 .2 2.5 0 4 0 1.2-.2 1.8-.3 3 0 1-.3 1.5-.8 1.6h-.8c-.7-.2-2-.7-3-.6 0 0-.7.2-1.3 0l-.4-.7c0-1.5.2-2.2.3-3.7.3-4.5 1-10.8 1.8-19 0-.6 1-1 2.8-1zm1.5-14.4c2.3.3 3.6 1.8 3.4 3.8-.2 2-1.5 3-4 3-1-.2-2-1-2.7-2.5v-1.7c.7-2 2-3 3.4-2.7zm19.2 1.4c.3 0 .6.2.8.3 0 1.5 0 2.2-.3 3.7 0 1-.4 1.7-.4 1.8-.2.6 0 1.8 0 2.4 0 .8 0 1.3-.2 2 0 1-.2 2.5-.6 4.6l5.7.6c0 2-.2 3-.4 4.8 0 .4-.2.5-.6.5h-1.4c-1-.2-2.3-.2-4-.3l-1 8.5c0 1.3 0 3 .2 4.7l4.8-1 1.6 3v1c-2.2 2-4.5 2.6-7 2.4h-1c-2.5-.3-4-2-4.3-5.5 0-1.5 0-2.2.3-3.7l.7-10h-2.5c-1-.2-1.6-.8-1.5-2 0-1.2.2-1.8.3-3 0-.5 4 0 4.7-.7.3-.2.4-2 .5-2.5.3-1.6 0-3.8.2-5.3l.6-6c0-.5 2.6-1.2 5-.3zm15.3 16.5c.2 0 .3.2.5.3h1.8c1 0 1.6.5 1.6 1V51c-.8 6.6-2 11.6-2.2 14v3.7l-.4 3.2c0 .8-.4 1.3-1 1.4h-.8c-.7-.2-2-.7-3-.7 0 0-.7.2-1.3 0l-.4-.8.4-3.8 2.3-19c-.2-.4.7-.8 2.6-.7zm1.8-14.4c2.2.5 3.4 2 3.2 4-.2 2-1.5 3-4 2.8-1 0-2-1-2.7-2.4v-1.6c.6-2 2-3 3.4-2.7zm11.4 16.1l5 .6c.3 0 .4.3.4.6l-.4 1.3h.3c2.7-1 4.6-1.4 5.8-1.2l2 .2c4.4.6 6.4 3.4 5.8 8.5-1.4 11-2.6 16.4-3.2 16.4l-4.6-.6c-.4 0-.5-.2-.5-.6v-1c0-.2.2-.3.4-.2l-.2-.6.2-2c0-.3.2-.6.4-1v-.5l1-7c.4-3.5.3-5.4-.4-5.4-.5 0-.8 0-1.4-.2-1.5-.2-5 1-5.8 2.5-.4.7-1.7 5.5-2 10.4-.2 1 0 2.5-.3 4.3v.3l-5.6-.7V73c0-.6.2-.8.3-1l-.2-.7c-.7-5.8 1.8-13.6 2.3-17.5V51c.4-.5.7-.8 1-.8zm39.5 5c5 1 8.3 4 8.5 6.6l-.4 2.7C617 81.3 613.2 89 613 89.3c-.4.2-2.6 2-7 2.6l-1.3-.3c-4.4-.8-6.6-1.6-6.5-2.2.7-3.3 1.7-5.2 2.3-5h.3c2.2.7 3.7 1.2 4.4 1.3h.3c2.3.3 3.7-1 4-4l.7-2.6c-2 .7-4 .8-6.6.5-1.6-.2-5-2.7-6.6-6.3-.7-1.4-.8-3.8-.6-5.5.5-6.2 4-11.2 8.8-12.4 2-.7 4.5-.8 6-.4zm-8.2 12c-.7 3.2.5 6 2.7 7h.3c2 .3 4.3-1.3 6.7-4.8l.8-5.8c.2-1.6-1-2.6-4-3h-.5c-2.3-.4-5 2.2-6 6.5z" fill="#FFF"/><path fill-rule="evenodd" clip-rule="evenodd" fill="#FFF" d="M98.2 56.3L89 54c-.4-.8 0-2 .4-2.4 3 1.4 6.2 2.4 9.2 4l-.4.7zm-.2-.6c-2.7-1.5-5.7-2.4-8.5-3.7 0 .6-.3 1.2 0 1.7 2.7.5 5.5 1.4 8.3 2h.2zm1.8 13.1L89 71c-.7-.4-1-1.2-.7-1.8 4-.3 7.6-.8 11.5-1v.6zm-.5-.3c-3.5 0-7 .6-10.7 1 0 .3.2.8.7 1 3.2-.7 6.5-1.2 9.8-2h.3zm3.4 13.5L97 89.7c-.7-.2-1.6-1-2-1.8 2.6-2.3 4.6-4.7 7-6.7.3 0 .5.4.7.7zm-.6 0c-2.2 1.7-4.2 4-6.4 6 .5.5 1 1 1.5 1l5-7zm530.5.7l7.8 5.6c0 1-.7 1.8-1.3 2-2.3-2.4-4.8-4.4-7-7 0-.3.3-.5.6-.6zm0 .6c2 2.3 4.4 4.3 6.6 6.6.4-.6.7-1 .7-1.7-2.5-1.5-4.8-3.3-7.2-5h-.2zm3.1-12.9l11 2c.4.6.3 1.5 0 2-4-1.3-7.5-2-11-3.4-.4-.2-.2-.4 0-.6zm.3.5l10.3 3c0-.6 0-1-.2-1.5-3-.4-6.4-1-9.7-1.7h-.3zm1.8-13.9l8-5c.7.4 1.2 1.5 1.2 2.4-3 1-6 2.6-9 3.6l-.2-1zm.5.4c2.8-.8 5.5-2.3 8.3-3.3-.3-.5-.5-1.2-1-1.5-2.3 1.7-4.8 3-7.2 4.7v.2z"/></svg>