<svg xmlns="http://www.w3.org/2000/svg" width="360" height="55" viewBox="0 0 360 55"><path d="M330.7 28.2v-3.4c0-1.5 0-3 .2-4.4 0-1 0-2 .4-3 .5-1.8 1.5-3.2 3-4.3h.6c1.2.3 2.4.5 3.5 1 1.2.5 1.8 1.5 2.3 2.6l.7 1.6.6 6c0 1 .4 2 .3 3l-.3 3-.5 3.6c-.2 1.5-.7 2.8-1.2 4.2-.4 1-1.3 2-2 2.8-.3.5-1 .8-1.7.7-1.8-.2-3-1.2-3.7-2.7-.8-1-1.4-2-1.6-3.4-.2-1-.5-2-.6-3.2 0-1 0-2.4-.3-3.8zm3.2-2V29c0 2 0 4 .4 6 .2 1.2.6 2.3 1 3.4.4.7.6.7 1 0 .8-.7 1.3-1.6 1.6-2.6.7-2 1.3-4 1.5-6l.7-5.6c.3-2.8-.2-5.8-1.4-8.3-.4-1-1.2-1.6-2-2-.2 0-2.6 6-2.7 7v5zm11.6 7.8v-4.8l.3-13v-1.6c.3-.3 1.2-.3 1.5 0 .3.4.7.5 1.2.7.7.3.3 4 .4 5.5 0 1.8-.2 12.8 0 13.8V36c0 1 .2 1.7.6 2.5.3.6.4.6 1 .2.8-.7 1.2-1.5 1.5-2.4.6-1.6 1-3.2 1.5-5l.5-2.7.8-4.5 1-5.2c0-1 .3-2 .5-3.2 0-.2 0-.4.2-.5.3-.3.6-.2 1 0 .5.6.6 1 .6 1.8v3c-.3 1.3-2.3 14-3 16-.2 1.2-1 2.2-1.3 3.3-.3 1-1 1.3-1.4 2-.2.2-.7.4-1 .4-1 0-2-.4-2.8-1-1.4-1.5-2.3-3-2.5-5l-.4-1.4zM319 28.8c0-2-.4-4-1.4-6-1-1.6-1.7-3.4-2.6-5.2-.6-1.2-1-2.5-1.7-3.8l-.2-.6c0-.2 0-.5.3-.6 0 0 .5-.3.6-.2l2.2 1.2c.3 0 .4.4.5.6l1 3 2 3.7.4 1 .4.3c0-.2.3-.4.4-.6l1-2c.2-.8.6-1.4 1-2l3.2-6.2c.4-.4.5-.4 1 0l1 1v.8l-1 2.4-2.3 4.8-1.5 3.4-1 2v1c0 1.3 0 2.6.3 4l.3 3 .5 6c0 1.4-.7 1.5-1.7 1-.8-.4-1.3-.8-1.3-1.8-.3-1-1.3-9.8-1.3-10.5zM304 20.7c-.3 3.3-.6 6-2 8.5-.8 1-1.6 2.2-3 2.5 0 0-.3 0-.4.2 0 0 2 1 3.4 2.5.6 1 2.2 5 2.5 5.5.3.6 0 1-.6 1-1 0-1.4-.4-1.8-1-1-2-1-3.6-2.5-5-1-1-2-1.4-2.8-2l-.3.3c0 1 0 1.8-.2 2.7 0 1.2-.2 2.4-.4 3.6 0 .6-.5 1-1 1.4h-.6c-.6 0-1-.3-1.4-.8l.5-7.5.2-5.3c0-3-.4-13.8 0-14.2.5-.6 4.6.4 5.2.6 1 .2 1.6 1 2.4 1.6.8.5 1.2 1.4 1.5 2.2.4 1.2 1 2.4 1 3zm-7 5.2c0 1-.3 3-.2 4v.3c.2 0 .3 0 .4-.2 1-.7 2.3-2 2.8-3.3 1-2 .8-4.7 1-7V19l-.7-2c-.4-1-1.5-2-2.6-2-1 0-1 .2-1 .2-.5 2 .2 9.8.2 10.7zm-6.6-.8c0 1.4-1.5 11-2 12-1 1.6-2 3.8-4.4 3.8-1.7-.4-2.6-1.3-3.2-3-.6-1.4-1-7.4-1-8.8 0-2 .8-7.5 1-8.5 0-.7.3-1.4.6-2 .6-2 2-4.6 3.7-5 2.5-.8 4 1.3 4.5 3l1 6v2.5zm-2-2.4c-.2-1.3-.5-7.4-1.8-7.5-2.5-.4-3.2 6.5-3.3 7.8 0 1.4-.8 9.4-.3 13 .2 1 1 2.6 1.4 2.7.7.2 2-1.4 2.5-2.4.6-2 1.6-9 1.2-13.4zm-17.4 11v6.6c0 1.3-1 1.3-2 1-.2 0-.3-.4-.7-.2-.2 0-.4 0-.4-.4V33l.2-10v-9c0-.4.3-.5 0-.6h4.7c1-.2 3.7-.4 5 0 .6 0 .4 1.2.3 1.4 0 0-.2.3-.4.3h-1c-1.3 0-2.5 0-3.8.3h-1.7s-.4.3-.3.4c.2 1 0 2.3 0 3.4v6.6c0 .7 0 .6.8.6 1 0 4 0 4.7.3v1.2l-1.2.2c-.7 0-3.4.4-4 0v.4l-.5 5.4zM216 21l.7-6c0-.2 0-.6.4-.7.6 0 1 0 1.3.2l1 .7c.6.4 0 17.3 0 18.8 0 1.7.4 3.4 1.2 5 .5 1 3 1.3 4.4-.4 2-3.4 1-17.7 1.5-20.6 0-.7.3-1.4.4-2 0-.5 0-.8.5-.7.2 0 .5.3.7.5.3.2.4.4.5.6 0 .4.3.7.3 1 0 1.3-.8 16.6-1.3 19-.6 2-2 4-2.8 4.5-1 .6-3 .7-4 .4-1-.2-1.7-.8-2.4-1.5-1-1-1.3-2.4-1.6-3.6-.7-2.3-.7-13.7-.7-15.6zm37.8-7.2h3.4c.8 0 1.5.4 2 .8.5.2.3.8-.2 1h-4.8c-.2 0-.2 0-.2.3v16c0 .7-.3 1.6-.4 2.4v6c0 .5-.5 1-1 1h-.3c-.7 0-1.8-1.2-1.8-2v-4.2c.2-2 .2-4.2.3-6.3V16c0-.4 0-.6-.4-.5-1 0-2 0-3 .2-1 0-1.5-.5-2.2-1l-.2-.5c0-.2.3-.3.4-.4h.2c1.3 0 2.6 0 3.8-.2l4.4-.2zM238.5 36c0-1.6-.4-3-.8-4.3-.6-2-1.3-3.8-2.2-5.7l-1-2.8c-.2-.4-.7-1.6-.7-2-.4-2-.3-4.2 1-6 1-1.2 2.5-1.6 4-1.8h.7c1.8.7 3 1.8 3.5 3.7 0 .8 0 1-.4 1-.6 0-1 0-1-.6-.3-1.2-.8-2-2-2.7h-.6c-1 0-2 .7-2.2 1.8-.6 1.5-.6 3-.2 4.5l1.2 3.2c1 2.6 2.2 5.2 3 8 .4 1.3.8 2.6.8 4 0 1-.3 2-.7 2.8l-1 1.3c-1.5 1.4-3 1.4-4.8 1-.4-.2-2-1.4-2.3-2l-.7-1.5c-.3-1 0-1.8.4-2.7h.4s.3 0 .3.3l.3 1.3c0 1.2.8 2 1.3 3 .2.7 1 .8 1.5.6 1-.2 1.5-1 1.7-2 0-.5 0-1.4.2-2zm-31-11.4v-5l-.3-3.6c0-.3.6-2 1-1.7l1.6 1c.3 0 .4.6.5 1 .4 2.6-.5 20.3-1 21.5 0 .7-.6 2.2-1.6 3-.8.4-2.5 1.2-4.2.3-1.8-.7-2.3-3-2.7-3.7-.4-1-.4-2-.2-3V34c.3-.4.5-.3.7 0l.2.5c.2 1.5.7 3.2 1.4 4 .3.8 1.2 1.7 2 1.4.7-.5 1-1 1.3-2 .2-1 1-12 1-13.5z" fill-rule="evenodd" clip-rule="evenodd" fill="#848C8D"/><path d="M1 38.8c.2-1.6.2-3.2.3-5 0-2.4.3-5 .6-7.4v-3.2c.3-2.5.5-5 1-7.4.2-2 0-4 .5-6L4 7c0-.4 0-1 .2-1.4 0-.6.3-1.2.2-1.7 0-.3.4-.6.7-.6.8 0 1.4 0 2 .5.6.4 1 1.3 1 2v4.4c0 1-.4 1.8-.5 2.8l-.7 5.5-.5 4.5v.3s.2 0 .2-.2L8 21.6c1-1 2-2 3.3-3L14 17c0-.2.4-.2.6-.3h.5c1.5-.2 2.4 1 2.4 2s0 2.2-.3 3.2l-.2 1.3-.5 3c-.2 2-.6 3.8-.7 5.7 0 1.7-.2 3.4-.4 5 0 .8 0 1.6-.2 2.3v1.2c.2.3.3 1 .7.6l.5-.6c.8-1 1.2-2.2 1.6-3.4l1-2.2c0-.5.3-1 .5-1.7.6-1 1-2.5 1.5-4l.5-2 1-3.3c.6-1.2 1.3-2.3 1.7-3.5.4-1 1.4-1.6 2.3-2.2.8-.5 1.6-.7 2.6-.7.7 0 1.7.2 2.5.5.4 0 .8.4 1 .7l1 1.7c.2-.7.6-1.2 1-1.8 0-.4.2-.8.5-1.2.2-.3.3-.4.6-.3l1 .3c.3.2 1 .4 1 .7.3.3.2.7.2 1l-.7 2c-.7 2-1 4.5-1 6.7 0 1-.4 2-.6 3-.2 1.6-.4 3.2-.4 4.7V39c0 .3 0 1 .3 1.2.2.4.6 0 .8-.3 1-1.3 1.8-2.6 2.5-4l.5-2 1.5-3.3L42 26c.3-1.3.8-2.7 1-4.2l.8-4.4c0-.5.4-.7 1-.5h.3c1 0 1.3.3 1.8.7s.7.8.4 1.5c0 .7 0 1.4-.2 2.2v.2h.2l.7-1 1.4-1.6c1-1 2-2 3.3-2.4 1-.4 2-.5 3 0 1 1 1 2.3 1 3.6l.2 2.4c0 1.3-.3 2.7-.6 4L56 30l-.4 2-.7 3.7-.5 3.2v.2h.3c.8-1 1.7-1.8 2.4-3 .8-1.3 1.6-2.7 2.3-4.2 1-1.8 2-3.6 2.8-5.5.4-.8 1-1.5 1.3-2.3l1.4-2.7 1-1.5 1.6-2c.8-.3 1.6-.5 2.5-.4h2.6c.7 0 1.3.4 1.8.8.4.2.4 0 .5-.2V16c0-.5 0-1 .2-1.5v-.3c.2 0 .2-.3.3-.4l.5-2.4.2-1.6.3-1 .7-3c0-.6.2-.6.7-.5h.2c1 0 1.3.7 1.7 1.3V11l-.6 3.5-.5 2.8-.7 2.6-.5 2.4c-.2.3-.3.7-.3 1 0 .8-.3 1.5-.5 2.3 0 .8-.3 1.6-.5 2.4-.4 2.4-1 4.8-1.3 7l-.2 3c-.2.6-.3 1.4 0 2 0 .4 0 .5.3.3.3 0 .6-.3.8-.5 1-1 2-2 3-3.5l1.5-3.7c.6-1.5 1-3 1.7-4.5.6-1 1.3-2.3 1.7-3.5.3-1 .5-2.3 1-3.4 0-.4 0-1 .2-1.4l.2-1c0-.4.2-.6.7-.5h1c.7.5 1 1 1.4 1.3.3.4.4.8.3 1.3 0 .4.3.2.5 0 .5 0 1-.3 1.2-.5.8-.4 1.5-1 2.3-1.2 1-.3 1.8-.7 2.8-.3.7.3 1.4.6 2 1.2.4.5.5 1.3.5 2v4.6c0 1.4-.2 2.8-.5 4.2-.3 2-1 3.7-1.7 5.6-.4 1-.8 2-1.4 2.8-.6.8-1 1.7-2 2.4 0 .2-.2.3-.4.4-.4 0-.8.2-1.2.4-1 .5-1.7.3-2.6 0-.6 0-1-.4-1.6-.8-.4-.3-.8-.6-1-1-.3-.2-.4 0-.4 0l-.5 2-.8 3.6-1 4c-.3.8-.5 1.6-1.3 2 0 .3-.5.4-.8.4-.4 0-.7 0-1-.3-.6-.5-1-1-1-2s0-1.5.3-2.2l.5-2c.4-1.8.8-3.7 1-5.6.3-.7.4-1.5.5-2.2v-.2l-.2.2-1 1c-.5 1.2-1.3 2-2.5 2.7-.8.4-1.7.6-2.6.7-.8 0-1.3 0-1.8-.3-.3 0-.6 0-.8-.4-1-1-1.5-2.2-1.5-3.6v-2c-.6 1-1.3 1.7-1.6 2.6-.2.6-.7 1-1 1.7-.3.4-.6.6-1 .7h-1.2c-1.7 0-2.8-1-3.6-2.3-.6-1-1-2-1-3V35l-.2-1.4v-1.2s-.2 0-.2.2l-.3.7-1 2.2-1 1.3-1 1.2c0 .2-.4.4-.6.7l-1.5 2c-1 1-2.4 2-3.8 1-1-.7-1.7-2-1.8-3.2 0-1.5 0-3 .3-4.5 0-.7.2-1.4.3-2l.6-2.8.6-2.8.5-2.7c0-.5 0-1 .2-1.5 0-.7 0-1.4.2-2v-1.6H53l-1 1-1 .7c-1 1-1.8 2.3-2.8 3.4l-1 1.5-1 1.6-.8 3.7c-.3 1.2-.5 2.3-.6 3.6 0 1-.2 1.6-.3 2.3 0 .8-.3 1.8-.2 2.6 0 .5-.6.7-.8 1-.5 0-1 .3-1.3 0-.5 0-.8-.5-1-1-.4-.3-.5-.7-.4-1.2l.4-3.2-2 3.6c-.4.8-.7 1.6-1.2 2.3-.8 1-1.7 2-3 2-1.2 0-2.2-.2-3-1.2-.6-.8-.8-1.8-1-3V34l-1.4 3.5L29 39l-1 1.7c-.4.6-.8 1.2-1.5 1.4-.7.4-1.5 0-2 0-1.4-.8-2.4-2-3-3.5-.3-1.2-.7-2.3-.8-3.6h-.2c-.8 1.6-1.5 3.3-2 5-.5 1-1 2.2-2 3-.6.2-1 .5-1.8.4-.6 0-1.3-.2-1.8-.7-1-.8-1-2.2-1.4-3.2-.2-1.4-.4-2.8-.2-4.3L12 31l1-5.3.6-3L14 20V20c-.7.5-1.3 1-1.8 1.7L10.5 23l-2.7 3-1 2-.4.6c-.6 1-.5 2-.6 3 0 .7 0 1.5-.2 2.4v1l-1 4v.4l-.6 1c0 .4-.2.7-.6 1-.3 0-.4.3-.7.4-.4 0-.8 0-1-.3-.2-.3-.3-.7-.3-1-.3-.7-.2-1.2-.3-1.7.3 0 .3 0 0 0zm94-17.6v-1c-.2-.3-.3-.5-.6-.4-.2 0-.3 0-.5.2l-2 1.2c-1 .6-2 1.2-3 2-.5.5-1 1-1 1.7s-.3 1.4-.5 2.3c-.3 1-.4 2.3-.5 3.5 0 .7-.3 1.6-.5 2.4l-1 4c0 .4 0 .6.5 1 0 0 .2 0 .3.2l1 1c.6.5.6.5 1.4 0 .8-.3 1.4-.8 2-1.6 1-1.7 1.5-3.4 2-5.3l1-4.4.8-3c.4-1.2.4-2.6.6-4zm-70.6 14c-.2 1.4.4 2.6.7 3.8 0 .7.3.7.8.2l.2-.2c.8-1.2 1.5-2.5 2-4l2.2-5.6.8-2 1-2.7c.3-1 .6-2 1-2.8 0-.4-2.2-2.8-2.6-3-.2-.4-.4-.4-.7 0l-.8.6c-1 .7-1.7 1.7-2 2.8-.6 1.4-1 2.8-1.4 4.2v.7c-.4.7-1.2 6.2-1.3 6.3l-.2 1.6zm41 1.8c0 .2 0 .4.3.7.2.6.5 1.3 1.2 1l1-1.6c.4-.4 1-1 1-1.6l1-2.3 2-5.7 1-3.3c.3-1.7 1-3.2-.3-4.6-.6-.8-1.7-.4-2.3.2l-1.6 2c-.8 1-1.2 2-1.6 3l-.5 2c-.5 2-1.3 4-1.5 6V37zm35-1.5l.2-3c.2-1.6.7-3.2 1-5 .4-1.7 1-3.5 1.3-5.4 0-.4 0-1 .3-1.5 0-.2.2-.3.4-.3.8 0 1.6 0 2.2.5.4.3.7.8 1 1.3.3.5.2 1 0 1.5l-.7 2c-.3 1.3-.3 2.6-.7 3.7L105 31l-.5 2.6-.5 3c0 1 .2 1.8.3 2.6 0 .2 0 .4.2.5.2.2.4.2.7 0 1-.6 1.8-1.5 2.4-2.5l3-5.5c.6-1.6 1.4-3.2 2.2-4.7l2-3.7c.5-.6 1-1.2 1.4-2 .8-.5 1.4-1.4 2-2 .8-.8 1.6-1.2 2.6-1.4.7 0 1.6-.3 2.3 0 1 0 1.5.2 2 .5 1 .5 1.5 1.4 2 2.3l.8 2c.2.6 0 1-.7 1-1 .2-1.4-.3-1.6-1.2-.2-1-.8-1.8-1.5-2.6-.4-.4-1 0-1.3.3-.4.3-.6.7-.8 1l-1.4 2c-.6.8-1 1.7-1.3 2.6l-1 3-.4 2.5c0 .8 0 1.5-.3 2.3 0 1 0 2.4.3 3.4 0 .6.3 1.4.7 2 .7.7 1.7 0 2.4-.5 1-.6 2-1.2 3-2 1-.6 1.7-1.5 2.3-2.5l2-3.6c.8-1.2 1.4-2.4 2-3.7l1.6-3c1-2 2.2-4 3-6 0-.7 0-1.4.3-2l.8-3.3 1-4 .6-2.4c0-.3.4-.5.7-.3.3.2.6.2 1 .3 1.8.7 1.4 3 1 4.6l-.8 3.4c-.4 2.2-.7 4.4-1.2 6.5 0 .3-.2.7-.4 1l2-2c1-.6 2-1.6 3-2 .6-.3 1-.3 1.6 0 .8 0 1.6 0 2.2.6 1 .6 1.4 1.5 1.5 2.6 0 1.5-.4 3-1.2 4.2l-2 3-2 2.2-.8.5-1.5 1-2 .7c-.2 0-.3.2 0 .4.7 1 1 2 1.6 3l1.8 4c.4.6.5 1 1 1 .8.4 1.3 0 1.8-.2l.8-.8c.3-.3 1-.6 1.3-.6 1.2 0 .7 2.3.3 3-1 1.2-3 2-4.5 1l-1.4-.7c-.4-.4-1-.7-1.3-1.2l-1-1.5c-.4-1.3-.6-2.8-1.3-4l-1-2-1-.7s-.4-.6-.5-.4L135 34l-1 3.8c0 .5 0 1-.4 1.2 0 .3-.3.7-.5 1-.2 0-.6 0-1 .3s-.7 0-1-.2h-.3c-.3-.6-.8-1-.7-1.8l.4-2.8.8-4 .3-1.6.2-1c-.5 1-1 2.3-2 3.3-.4.6-1 1.3-1.3 2l-2 2.2L125 38c-.7.5-1.2 1.2-2 1.7s-1.7.8-2.6 1c-.4 0-.7.3-1.2.3s-1 0-1.6-.3c-1.4-.5-2.6-1.6-3-3-.5-1.3-1-2.4-1-3.7v-2.3c0-.7.2-1.5 0-2-.6 1.4-1 2.8-1.7 4l-1.8 3c-.4 1-1 1.6-1.4 2.4-.7 1.3-1.6 2-3 2.5-1.3.3-2.7 0-3.8-1l-1.3-1.7c-.5-.6-.6-1.4-.6-2v-1.2zm45-14.8c0-.6 0-1-.3-1.3-.2-.2-.6 0-1 .4l-3.5 3.3c-.7.8-1.2 1.6-2 2-1.3 1.5-2.3 3-2.6 4.8v1c.6 0 1 0 1.5-.3 1-.4 2-1 2.8-1.6l3-3.3c.7-1 1.5-2.2 2-3.5.2-.4.3-1 .3-1.3zm20.6 15v-3c-.4.2-.7 1-1 1.6-.4.8-4 7-6 8l-1.6 1c-.7.2-1.5 0-2.3 0-2 0-3.4-1.6-4.4-3.2-.5-.6-.8-1.4-1-2.3l-.3-1-.2-1.3v-4c0-1.6.8-3.2 1.3-4.7.3-1 .7-2 1.2-2.8.4-1 .8-1.5 1.4-2 .5-.8 1.3-1 2-1.6 1-.7 2.5-1.3 3.7-1 1 .3 2 1.4 2 2.5 0 .6 0 1.3-.2 2 0 1 0 1.6-.3 2.4 0 .6-.4 1.3-.8 1.8-.7 1.2-1.3 2.3-2.2 3.2-.7.7-1.4 1-2.3 1.4l-1.4.4c-.3 0-.4.2-.4.4L153 35v1.6c0 .5 0 1 .2 1.5 0 .5 0 1 .4 1.5l.6 1c.3.3.8.8 1.3 1h1.4c.6-.2 1.3-.5 2-1l2-2 3-5.2c.6-1 1.4-2 2-3.3l1.3-3c.2-.4.3-1 .6-1.4l1-1.4c.4-1 1-2 2-3 .4-.8 1.3-1.3 2.2-2 1-.5 2.2-.7 3.3-.7.8 0 1.8.5 2.4 1l.6 1.2c0 .3.2.7.6.5.4-.2.4-.7.4-1 0-.5.2-1 .4-1.4l.5-1.4.6-1.3 1-3c.5-1.6 1-3 1.7-4.5.4-.8.8-1.6 1-2.5.5-1 .8-2.2 1.6-3 .2-.2.5-.3.7-.2.4 0 1 .2 1.2.5.3.3.4.8.6 1.2.2.5.2.8 0 1.2-.8 1.7-1 3.6-2 5.3l-1 3c-.2 1-.7 2-1 3.2-.5 1.3-1 2.8-1.2 4-.5 2.3-1.5 4.4-2 6.5l-1 2.6c-.4 1.4-1 3-1 4.5l-.3 3.4c0 .4 0 1.4.3 1.6.4 0 1-.8 1.2-1l1.3-1.4c1.3-1.2 2-2.5 3.3-3.7L189 31c0-.2 1.5-1.5 1.4-.5 0 .8-.4 1.5-.7 2.2-.3.6-.5 1.3-1 2l-1 1.4-1.7 2.4-1.6 2-1.4 1.3-1.5 1c-1 .5-2.6 0-3.4-1-.6-1-1-2.3-1.3-3.7v-.3l-1.2 1.7c-.4.7-1 1.3-1.6 1.8l-1.6 1-1.8.3c-1.2 0-2-.3-3-1.2-.7-1-1.2-2-1.4-3v-2.7zm3.8 1.4v3c0 .2.3.3.5.2.7-.2 1.2-.5 1.7-1 1.3-1.8 2.2-3.8 3.3-5.6l.4-.7c.5-1 1-2 1.3-3 .4-1 1-2 1.3-3l.7-3c0-.2 0-.3-.3-.4-.6-.2-1-.6-1-1.3l-.6-1c0-.2-.2-.4-.4-.2l-1 1c-1 1-1.5 2-2 3l-1.8 3-.6 1.4c-.5 1.4-1 3-1 4.3 0 1 0 2.2-.2 3.3zm-11.4-13.6v-1l-.3-1c0-.2 0-.3-.2 0-.7.4-2.8 4-3 4.8l-1.3 4.6c.5-.2 1-.4 1.3-.8 1-1 2-2.2 2.8-3.6.6-1 1-1.8 1-3zm-51.8-11.8s.2 0 .3-.3l.3-.8.3-.3c1-.4 2.3.3 2.5 1.3v.4c-.4.6-.7 1.4-1.7 2-.5 0-1.5 0-2-.5-.2-.2 0-.5 0-.8 0-.2 0-.3.2-.5V12h-.5c0-.3.2-.5.6-.4z" fill-rule="evenodd" clip-rule="evenodd" fill="#01979D"/></svg>