<svg xmlns="http://www.w3.org/2000/svg" width="210" height="150" viewBox="0 0 210 150"><path fill="#01979D" d="M144.7 132.44c-.93.7-2.2 1.1-4 1.16-3.97.14-7.74-1.22-11.62-1.77l-22.53-3.2-50.8-7.25-20.26-2.88c-2.34-.34-4.68-.7-7.02-1-5.05-.68-4.77-4.05-4.15-8.45L26 97.33l3.28-22.97c.43-3.05.15-8.9 2.5-11.2 1.78-1.74 4.6-.86 6.7-.58 2.74.35 5.45.77 8.17 1.16l22.32 3.18 52.44 7.47 18.7 2.66c3.83.54 9.8 0 12.03 3.88 1.43 2.5.8 5.18.43 7.84l-1.73 12.12c-1.25 8.73-2.5 17.46-3.73 26.2-.36 2.47-.97 4.27-2.4 5.34z"/><path d="M49.95 79.25l2.98.43c.24.08.34.22.32.42-1.3 8.16-2.08 13.3-2.38 15.43l-.2 2.62c-.2.53-.4 1.5-.6 2.96l-.16 1.12 7.08 1c2.85.42 4.25.8 4.2 1.18l-.5 3.52c-1.12-.02-1.8-.06-2.08-.1-1.85-.26-4.8-.75-8.9-1.46-1.7-.1-3.12-.25-4.3-.42l-.06-.95.32-2.24c.7-4.9 1.4-9.35 2.1-13.37l1.43-10.06c.22-.1.47-.13.75-.1zm27.75 3.39c6.18.88 9.74 4.74 10.7 11.58.1 1.15.1 1.98.03 2.48l-.18 1.3c-.37 2.6-2.3 5.86-5.78 9.8-2.74 1.9-5.75 2.6-9.02 2.14-3.8-.54-6.86-3.2-9.12-7.94-.94-2.3-1.16-5.2-.67-8.64.6-4.23 3.7-7.72 9.26-10.46 2.1-.33 3.7-.4 4.8-.26zm-9.34 12.34l-.2 1.3c-.63 4.5 1 7.72 4.9 9.62l1.84.45c1.8.07 3.97-1.02 6.53-3.25 1.57-2.05 2.44-3.76 2.64-5.12l.08-.56c.39-2.7-.18-5.42-1.68-8.2-2.48-1.9-4.55-2.94-6.18-3.17-2.58-.36-4.86 1.4-6.86 5.3-.62 1.7-.98 2.9-1.08 3.63zM96.4 84.93c.5.07.97 2.92 1.46 8.56l2 13.94.37.05c4.35-8.33 7.52-15.03 9.5-20.1l.4-.14.93.13c.62.08 1.56.15 2.82.2l.14.4-.06.38c-6.37 12.77-10.68 21.2-12.9 25.3l-4.28-.6c-.72-6.58-2.1-15.9-4.2-27.94l.1-.56c1.68.12 2.92.24 3.73.35zm19.96 3.22c1.6.35 2.9.6 3.87.74 2.26.32 5.43.7 9.52 1.16l1.1.35-.6 4.1-10.6-1.52-.2 1.3c-.16 1.25-.5 3.1-.97 5.56l10.24 1.46-.2 1.3c-.06.52-.1 1.2-.1 2.07-.15.2-.24.44-.3.73l-8.73-1.25h-1.34l-1.1 7.8.18.03c1.4.2 2.73.33 3.93.38 1.54.34 2.46.53 2.77.58 1.64.1 2.94.24 3.93.38.22.15.4.23.53.25l-.42 3c-.1.6-.26.9-.52.86-1.16-.17-2.22-.26-3.18-.26l-6.46-1.3-4.9-.32c-.46-.25-.68-.47-.65-.66l.24-1.7c.08-.5.05-.75-.07-.77l.37-1.26.5-3.54c.65-4.53 1.45-10.6 2.4-18.25.08-.45.32-.86.76-1.23zM159.2 66.9c0-5.63-11-11.6-15.65-10.86-8.55 1.47-13.68 10.27-12.22 18.58 2.7 15.64 25.58 23.38 37.3 30.96 5.4-11.5 23.8-33.16 15.25-46.1-3.42-5.4-12.7-8.08-18.58-4.66-2.68 1.7-6.6 8.9-6.1 12.07" fill="#FFF"/><path fill="#01979D" d="M160.7 66.9c-.72-7.17-9.83-12.1-16.36-12.42-8.95-.45-14.56 9.95-14.75 17.5-.5 18.83 25.64 26.9 38.3 34.9.64.4 1.7.17 2.04-.55 6.3-13.05 21.7-28.7 16.8-44.43-2.14-6.87-10.35-11.02-17.25-9.97-6.7 1.02-12.12 8.12-11.8 14.96.08 1.92 3.08 1.92 3 0-.15-3.08 1.6-5.98 3.24-8.46 2.4-3.65 6.58-4.03 10.55-3.3 8.2 1.5 11.03 8.98 9.66 16.4-2.28 12.33-11.48 22.26-16.8 33.28l2.04-.54c-11.1-7.02-25.1-11.42-33.25-22.3-5-6.66-4.62-15.72 1.48-21.54 3.53-3.36 7.85-3.35 12.02-1.54 3.16 1.38 7.67 4.2 8.04 8 .18 1.9 3.2 1.9 3 0z"/><path fill="none" stroke="#01979D" stroke-width="2" stroke-miterlimit="10" d="M71.56 40.22c-.34.35-.85.58-1.58.7-1.6.3-3.24-.03-4.86-.03H25.94c-.98 0-1.95-.02-2.93 0-2.12 0-2.2-1.4-2.2-3.23V23.14c0-1.28-.45-3.66.38-4.75.62-.8 1.83-.62 2.7-.63h42.54c1.62 0 4.03-.57 5.18.9.73.93.63 2.07.63 3.2v16.01c0 1.05-.14 1.82-.67 2.34zm58.08 0c-.34.35-.85.58-1.58.7-1.62.3-3.24-.03-4.86-.03H84.04c-.98 0-1.96-.02-2.94 0-2.12 0-2.2-1.4-2.2-3.23V23.14c0-1.28-.46-3.66.37-4.75.63-.8 1.84-.62 2.72-.63h42.49c1.62 0 4.03-.57 5.18.9.73.93.63 2.07.63 3.2v16.01c0 1.05-.14 1.82-.66 2.34zm57.7 0c-.34.35-.84.58-1.58.7-1.6.3-3.24-.03-4.86-.03h-39.18c-.97 0-1.94-.02-2.92 0-2.12 0-2.2-1.4-2.2-3.23V23.14c0-1.28-.45-3.66.38-4.75.62-.8 1.83-.62 2.7-.63h42.55c1.6 0 4-.57 5.16.9.73.93.63 2.07.63 3.2v16.01c0 1.05-.13 1.82-.66 2.34z"/><path d="M147.72 23.77h1.26c.1.02.15.07.15.16-.05 3.44-.07 5.6-.07 6.5l.07 1.1c-.05.23-.07.65-.07 1.26v.46h2.97c1.2 0 1.8.08 1.8.24v1.48c-.46.06-.74.08-.85.08-.78 0-2.04-.02-3.77-.08-.7.06-1.3.08-1.8.08l-.07-.4v-.93c0-2.06.03-3.94.08-5.64v-4.25c.1-.05.2-.08.32-.08zm7.58-.23c.44.05.83.08 1.16.08h.08l.08.62c0 1.26-.03 2.43-.08 3.53.05 1.74.08 3.2.08 4.4-.06 1.53-.08 2.4-.08 2.66-.05.1-.08.18-.08.23h-.94c-.12 0-.23-.03-.3-.08l-.17.08a.623.623 0 0 0-.23-.08c0-.36-.03-.54-.08-.54.05-.97.08-1.68.08-2.12V27.3c0-.78-.03-1.85-.08-3.2.03-.38.22-.56.55-.56zm3.64 0h1.56c.08 0 .16.08.24.23v2.82c0 .52.02 1.3.08 2.35 1.38-1.6 2.9-3.4 4.55-5.4h1.25l.4.07v.15c0 .2-.43.75-1.26 1.65l-2.44 3.06c1.4 2.27 2.78 4.36 4.16 6.27v.16c-.1.06-.18.08-.23.08-.47 0-1 .06-1.57.16-.23 0-.62-.52-1.18-1.57l-2.5-3.84c-.5.4-.88.85-1.18 1.33-.06 1.86-.08 2.93-.08 3.22 0 .04.02.2.08.47-.06.1-.08.18-.08.23h-.3c-.3 0-.67.03-1.12.08a.385.385 0 0 1-.3-.3c0-.4-.03-1.5-.1-3.3 0-.87.04-2.28.1-4.24-.06-1-.08-2.24-.08-3.68zm9.93 0c.7.05 1.23.08 1.65.08.95 0 2.28-.03 4-.08l.47.08v1.72h-4.48v.55c0 .5-.03 1.3-.08 2.34h4.3v.55c0 .2.04.5.1.85-.06.1-.1.2-.1.32h-3.67l-.55.07v3.3h.08c.6 0 1.14-.03 1.65-.08.65.05 1.04.07 1.17.07.68-.04 1.23-.07 1.65-.07.1.05.18.07.23.07v1.26c0 .25-.05.38-.16.38-.5 0-.93.03-1.33.08l-2.73-.15-2.04.16c-.2-.07-.3-.15-.3-.23v-.7c0-.22-.04-.32-.1-.32l.1-.54v-1.5c0-1.9-.04-4.46-.1-7.67 0-.2.1-.38.24-.56zm-70.42-.08c.1.05.18.08.24.08v1.1c0 .1 0 .22.07.3-.04.22-.1.33-.16.33-.45 0-1.5-.03-3.13-.1 0 .12-.02.17-.08.17l.07.16v1.4c0 1.6-.02 2.96-.08 4.1.05.6.07 1.84.07 3.75-.05.1-.08.18-.08.23h-.24c-.27 0-.72.03-1.33.08 0-.1-.05-.15-.16-.15.05-1.12.08-1.95.08-2.5v-3.22c0-.68-.03-1.38-.08-2.1.05-.2.08-.74.08-1.66v-.15l-.4-.08h-.3c-.6 0-1.35 0-2.28.07a.479.479 0 0 0-.23-.08v-1.5c0-.1.06-.16.15-.16h6.27c.42 0 .9-.03 1.48-.08zm2.82.24h.4c2.1 0 3.48.54 4.15 1.64.26.48.4 1.14.4 1.96 0 1-.6 1.8-1.74 2.43v.08c.63.3 1.1 1 1.4 2.05l.8 3.06-.24.16-.47-.08c-.34.06-.68.08-1.02.08l-1-3.45c-.58-.77-1.37-1.16-2.37-1.16h-.86v4.47c0 .1-.05.16-.16.16h-1.4l-.24-.15c.05-3.58.08-6.25.08-8v-.7c0-.48-.03-1.16-.08-2.04 0-.3.78-.47 2.35-.47zm-.7 1.57c.1 1.12.15 2.34.15 3.68h.94c1.88 0 2.82-.4 2.82-1.18.1 0 .16-.13.16-.4v-.15c0-1.02-.47-1.7-1.4-2.04l-.8-.08h-.3c-.3 0-.83.06-1.58.16zm6.91-1.57h1.65c.1.07.56 1.12 1.34 3.13.6 1.14.97 1.74 1.1 1.8l2.1-4.86h1.8v.08c0 .08-.38.87-1.17 2.36-.62 1.27-1.25 2.6-1.88 4-.05 1.86-.07 3.33-.07 4.4v.46l-.8.1c-.6 0-.93-.2-.93-.56v-4.1c0-.1-1.04-2.2-3.14-6.25a.954.954 0 0 1-.15-.48l.15-.08zm-70.85-.08c3 0 4.66.55 4.94 1.64.1.37.16.68.16.94v.24c0 1.12-.63 1.92-1.88 2.43-.1.05-.2.08-.24.08v.08c1.63.33 2.44.82 2.44 1.48.16 0 .26.48.3 1.42-.1.83-.55 1.56-1.32 2.2-.9.63-2.58.94-5.02.94-.83-.05-1.25-.1-1.25-.15l-.08-.46V23.77c.9-.1 1.55-.15 1.96-.15zm-.23 1.56v1.03c0 .45.02 1.15.07 2.12 1.9 0 3.03-.55 3.37-1.64.06-.1.08-.2.08-.32 0-.94-1.02-1.4-3.05-1.4-.3.06-.47.13-.47.22zm0 5.5c0 .2.02.3.07.3l-.07.55v1.8c0 .1.06.17.15.17h1.18c1.78-.17 2.67-.74 2.67-1.73v-.15c0-.8-.63-1.3-1.9-1.58h-.85c-.84 0-1.25.2-1.25.63zm8.32-7.14c.45.05.84.08 1.17.08h.07l.08.62c0 1.26-.03 2.43-.08 3.53.05 1.74.08 3.2.08 4.4l-.08 2.66c-.05.1-.08.18-.08.23h-.95c-.12 0-.22-.03-.3-.08l-.17.08a.623.623 0 0 0-.23-.08c0-.36-.03-.54-.08-.54.05-.97.08-1.68.08-2.12V27.3c0-.78-.03-1.85-.08-3.2.04-.38.22-.56.55-.56zm10.94-.08h1.1c.3 0 .47.23.47.7 0 .36.03.68.08.94-.04 1.55-.07 2.9-.07 4.08v4.08c0 1.2-.08 1.8-.23 1.8h-.47c-.2 0-.43.03-.7.08-.57 0-1.1-.62-1.66-1.88-1.28-2.07-2.58-4.37-3.9-6.9h-.1v6.43c0 .44.03 1.14.1 2.1l-.25.17h-1.56c-.06-2.1-.1-3.66-.1-4.7V27.3c0-.1.04-.22.1-.3-.06-.1-.1-.2-.1-.32v-3c.03-.1.08-.14.17-.14h2.12c.22.2 1.18 1.87 2.9 5.02.64 1 1.24 2.07 1.8 3.2h.08c.05-1.3.08-2.28.08-2.9v-4.53l-.07-.47c.07-.27.15-.4.23-.4z" fill="#01979D"/></svg>