<svg xmlns="http://www.w3.org/2000/svg" width="210" height="150" viewBox="0 0 210 150"><path fill="none" stroke="#FFF" stroke-width=".9" stroke-miterlimit="10" d="M46.5 42h117.2v24H46.5z"/><path fill-rule="evenodd" clip-rule="evenodd" fill="#00979E" d="M27.8 41c-2.7-1.3-5.5-2.8-8.3-4 0-1 .4-2 1-2.3 2.6 2 5.2 3.6 7.7 5.6 0 .3 0 .5-.4.7zm0-.6c-2.3-2-5-3.5-7.3-5.3-.3.6-.6 1-.5 1.7 2.5 1 5 2.4 7.5 3.7h.3zM26.7 53H16c-.6-.6-.6-1.5-.2-2l11 1.5c.2.2 0 .4 0 .6zm-.4-.3C23 52 19.5 52 16 51.4c0 .4 0 1 .5 1.3h9.9zm.5 13.5l-6.8 6c-.8-.2-1.4-1.2-1.5-2 2.8-1.7 5.2-3.5 8-5l.3 1zm-.6-.2c-2.6 1.2-5 3-7.4 4.4.3.5.7 1 1.2 1.4l6-5.6c.2 0 .2-.2.2-.2zm154.6 0c2.7 1.3 5.5 2.8 8.3 4 .2 1-.3 2-.8 2.3-2.7-2-5.3-3.6-7.8-5.6 0-.3.2-.5.4-.7zm0 .5c2.3 2 5 3.5 7.4 5.3.3-.5.6-1 .5-1.6-2.5-1-5-2.4-7.5-3.7h-.3zm1.2-12.7l10.6.2c.6.5.6 1.4.2 1.8-3.8-.5-7.3-.8-11-1.4v-.6zm.3.4c3.3.6 6.8.8 10.2 1.3 0-.4 0-1-.4-1.3h-9.7zm-.3-13.4c2-2 4.4-4 6.7-6 .8.2 1.4 1.3 1.5 2-2.8 1.7-5.2 3.5-8 5l-.3-1zm.4.2c2.6-1.2 5-3 7.4-4.4-.4-.5-.7-1-1.2-1.4l-6 5.6s0 .2-.2.2z"/><path fill="none" d="M36.5 33.3v42.5h138V33.3h-138zM164.7 67H46.5V42h118v25z"/><path fill="#00979E" d="M175.6 76.7h-140V32.3h140v44.4zm-138.2-2h136.2V34.3H37.4v40.6zM165.6 68h-120V41h120v27zm-118-2h116V43h-116v23z"/><path fill="#00979E" d="M64 73.4v3.2l72.5 46.2L166 77.2l.8-5.3-78-16.6"/><path fill="#FFF" stroke="#00979E" stroke-width="2.4" stroke-miterlimit="10" d="M165 72.3l-48.6-29.8-31.7.2-19 30.2 71 44.4z"/><path fill="#00979E" d="M119.7 89.2l-3.3 5.3c-1.5 2.4-3.6 3-6 1.5-1.2-.7-1.8-1.8-2.3-2.7 0-.2 0-.4.3-.5l1.3-.6c.2 0 .4 0 .5.2.4.7 1 1.3 1.5 1.7.6.4 1 .6 1.6.5.6 0 1-.4 1.2-.8l.4-.6c-.7.4-1.5.3-2.3-.2-1-.6-1.5-1.3-1.7-2.3-.2-1 0-2 .6-2.8.5-1 1.2-1.4 2-1.7 1-.3 2-.2 2.8.3.5.3.8.6 1 1l.7 1 .2-.3c0-.2.2-.2.4 0l1 .6c.4 0 .4.4.3.6zm-6.5-.4c-.2.4-.3 1-.2 1.3 0 .6.4 1 .8 1.2.4.3 1 .4 1.4.2.5 0 1-.4 1-.8.4-.4.4-1 .3-1.4 0-.5-.4-1-.8-1-.4-.4-1-.4-1.4-.3-.5 0-1 .4-1 .8zm4.2 5.5l3-4.7c0-.2.3-.2.5 0l1 .7c.3 0 .3.4.2.6l-.3.4c.7-.4 1.4-.4 2 0 0 0 .2 0 .3.2v.6l-.5.8c0 .2-.3.2-.5 0 0 0-.2 0-.3-.2-.6-.4-1-.4-1.5-.2l-1 1-1.2 2c0 .3-.4.4-.6.2l-1.2-.8c0-.3-.2-.5 0-.7zm11.1 4.7l4-.4L130 97c-.2 0-.2-.4 0-.6l.3-.6c0-.2.4-.2.6 0l3.8 2.3c.4.3.5.8.3 1.2l-.3.6c0 .2-.4.4-.6.4l-4.2.5 2.8 1.8c.2 0 .2.4 0 .6l-.3.7c0 .2-.4.2-.6 0l-4-2.4c-.4-.2-.5-.7-.3-1l.4-.8.7-.4zm9.5 6.2l.3 1s0 .3-.2.4c-.8.2-1.7 0-2.5-.5-.8-.4-1.5-1.2-1.8-2-.2-1 0-1.7.4-2.6.6-.8 1.3-1.3 2.2-1.5.8-.3 1.8 0 2.6.5s1.4 1.3 1.5 2c0 1 0 1.6-.6 2.5l-.2.3s-.3.2-.5 0l-3.5-2.2v1c0 .4.3.7.6 1 .5 0 .8.2 1.3 0 .2 0 .5 0 .6.2zm-2-3.2l2.2 1.2c.2-.3.2-.6.2-1 0-.2-.2-.5-.5-.6-.2-.2-.6-.3-1-.2-.3 0-.6.2-.8.5zm-11-3l.2-.3c-.6.2-1.3 0-2-.4-.6-.3-1-.8-1.2-1.2-.2-.4 0-1 .2-1.5.5-.8 1.3-1 2.3-.8.6.2 1.4.5 2.4 1.2v-1c0-.3-.3-.6-.6-.7-.4-.2-.8-.3-1.3-.3 0 0-.3 0-.4-.3V93c-.2 0 0-.3.2-.3.8 0 1.6 0 2.4.7 1 .6 1.7 1.4 1.8 2 0 .7-.2 1.5-.8 2.5l-1.5 2.2c0 .2-.4.3-.6 0l-1-.6V99zm1.3-2l-.4-.3c-1.2-.7-2-.8-2.2-.2v.6c0 .3.2.4.4.6.3.2.7.3 1 .3.4 0 .6-.3.8-.6l.3-.5z"/></svg>