<svg xmlns="http://www.w3.org/2000/svg" width="360" height="55" viewBox="0 0 360 55"><path d="M289.3 13.5c-.4-2-.7-3.8-2-5.5-2.2-2.7-7.4-2.5-9.7.8-2 3-3 6.2-3.4 9.6-.2 1.3-.3 2.5-.7 3.7-1.5 6-2.3 12-1.6 18 .3 3.6 1.7 6.7 5 8.4 1.3.6 2.7 1.3 4 .6 1.7-1 3.5-2.2 4.2-4.4l1.4-3.8c2.3-6.2 3.3-12.6 3.7-20.3-.3-1.6-.5-4.3-1-7zm-2 15.6c-.7 5.3-2.4 10-4 15-.5 1.5-1.3 2.8-3 3.3-1.8.6-3 .2-3.3-1.7-1-4-2-7.8-1.4-11.8.4-4 3.2-19.3 4-21 .5-1.5 1.4-2.7 2.3-4 .5-.7 1.5-.6 2.6.2 1.5 1 2.3 2.7 3 4.3.5 1.7.2 6 .5 7.8l-.8 8zM357.6 5c-1.6-.3-3.2-.5-5-.6-1.8 0-3.8-.2-5.7 0-1.3 0-2.6 0-3.8.3-1 0-1.2.7-1.3 1.6-.7 5-.6 10-1.2 14.8-.6 5-1 22-1.5 25.3 0 1-.7 2 1 1.8l.3.3c.7.2 1.3.7 2 .6l8.5-.6c1.3 0 2.5-.2 3.7-.5.4-.2.8-1 1-1.3-.3-.3-.8-.7-1.2-.8-1.4-.2-2.8-.2-4.2 0h-5.5c-1.4 0-2.6-.2-2.4-1.5.7-4 .3-9.5 1-13.7 0-.8 0-1.8 1.4-1h.8c2.4-.2 4.7-.3 7-.6.6 0 1-.6 1.4-1-.5-.4-1-1-1.4-1-2.5 0-5 .2-7.5.5-.8 0-1-.2-1-1l.5-3.6c.5-4.8.3-9.7.8-14.6 0-1 .6-1.4 1.6-1.4h9c.7 0 1.5 0 2.2-.2.4 0 .7-.7.8-1-.5-.4-1-1-1.4-1zm-25.2 3L331 6.3c-.5-.6-.7-.8-1.5-.8-3.7 0-6.2 2-8.2 4.7-2.8 4-4.2 8.3-5 13-.5 3-.7 6.2-1 9.3-.3 4.6.8 9 3 13C320 48.3 322 49 325 48c2.4-.8 6.3-5.6 6.4-8l-.3-.3c-1.6-.3-1.5 0-2.3 1.4-.8 1.6-1.8 3-3 4.4-1.2 1.3-3.7 1-4.5-.2-.5-.8-1-1.8-1-2.8l-.6-5.6V32c.6-3.6 1-7.2 1.8-10.7.6-3 1.4-5.8 2.4-8.6.7-1.7 2-3.2 3.2-4.6 1-1 2.2-.8 3 0 1.2 1.3 2.2 2.7 2.5 4.6 0 .4.4.8.6 1.3.5-.5 1-.7 1.4-1.2.2-.3.2-.8 0-1.2 0-1.5-.7-2.8-2-3.7zM301 48c1.4.7 2 .4 2.3-1.2 1-4.3 1-8.8 1.2-13.2.2-4.5 0-9 .2-13.6.2-4.3.6-8.5 1-12.7 0-1-.8-2.3-1.7-2.3-1 0-2 .8-2 2-.4 3-.6 6-.8 9l-1 10.4c0 3-.5 5.8-.6 8.7v10.5c-.2 2-.2 2 1.3 2.6zm-38.7-16.7l-.2 3.2c0 3-.3 6.2-.4 9.3 0 1.4 0 2.8.2 4.2 0 1 .8 1 1.4.5.5-.5.8-1 .8-1.8.3-5.2 1-10.4 1.3-15.6l.8-14.7.7-9.2c0-1-.4-1.2-1.3-1.2-1.2 0-1.8.5-1.8 1.4v4.3l-1 15.7c-.2 1-.2 1-1 1H252c-1 0-1.2-.2-1-1l.8-16c0-1.6 0-3.2-.3-4.8 0-.5-.8-1.2-1.2-1.2-1.2 0-1.8.7-2 2 0 2.8 0 5.7-.2 8.5 0 4-.5 7.7-.7 11.6L247 39c-.2 2.7-.3 5.5-.3 8.3 0 .5.5 1.6.7 1.6.7 0 1.5-.4 2-1 .4-.2.5-1 .6-1.6v-5.6l.7-8.6c0-.8.5-1 1.2-1l9.4-.7c.7 0 1 0 1 .8zM231.2 48c2-1.3 3-3.3 4-5.3l-.5-.7c-.4.2-1 .4-1.2.8-.6.8-1 1.8-1.8 2.5-1.3 1.3-3 1.5-4.5.4-1.8-1.3-2.7-3-3-5.3l-.6-8c0-2 .3-4 .5-6 .5-4.4 1.4-8.7 3.2-12.7 1-2.3 2.3-4.5 4.6-5.8 2.3-1.3 5-1.6 5.2 2.3v.5l.8 1.2c.4-.4 1-.7 1.2-1 .2-.4 0-1 0-1.2-.8-3.5-4-5.4-7.4-4.5-3.4.8-6 2.7-7.7 5.8-2.2 3.8-3.2 8-3.7 12-.6 4.3-.8 8.5-.2 12.8.6 3.7 1.3 7.2 3.6 10.3 1.8 2.5 5 3.5 7.6 2zM23.3 43l-1-9.6-.6-4.7c-.7-5-1.6-10-2-15-.2-2.8-1.6-8.4-1.6-8.4-.2-.6-1.7 0-1.8 0-.5 1-1.2 1.7-1.5 2.6l-3 8.6L6.4 34l-3 10c-.3 1.3-.5 2.7-1 4-.2 1-.2 2 .5 2.3 1.3.6 2 .3 2.5-1 0-.3.3-.7.4-1 1-4 2.2-7.6 3.3-11.3.3-.8.7-1.3.7-1.3l8.5-.8s.5-.3.5 0l.2 2c.3 3 .5 5.7 1 8.6.2 1.2.6 2.3 1 3.5.2 1.4 1.3 1 2.2 1.3 0 0 .5 0 .6-.3.4-.6 0-2.2 0-2.7l-.5-4.3zm-5.7-10.3h-6.4c-.7 0-1-.2-.7-1l1.4-5.5c1-4 2-8 3.3-11.8.4-1.3 1-2.6 1.5-3.8l.2-.3c0 .2.3.4.3.7l.6 5.5c0 3 .3 6.3.4 9.4v5.8c0 .7 0 1-.8 1z" fill="#848C8D" stroke="#848C8D" stroke-width=".7" stroke-miterlimit="10"/><path d="M192.7 32.8c2.8-1.3 5.2-3 7-5.5C202 24 203 20 203 16c0-4.6-4.6-8.2-7.8-9-2-.5-4.3-.4-6.4-.6h-2.2c-2 .2-2.4.7-2.5 2.2 0 4.6-.3 9.3-.4 14 0 4.4 0 8.8-.2 13.3 0 4-.2 8-.4 12 0 .8.5 1.4 1 1.3 1 0 2.3-.3 3-1 .6-.3 1-1.5.8-2.3-.5-3.6-1-7.3-.5-11 0-.4.4-.7.5-1 .3.2.7.3 1 .6 1.4 2.2 3 4.4 4.2 6.6 1.5 2.5 2.7 5 4 7.6l.6.4c.8 0 1.7 0 2.3-.5.2-.2.2-1.3 0-1.8l-4.2-7-3.7-6c0-.6 0-1 .7-1.2zm-4.7-2.6c-.5.2-.7 0-.7-.4v-4l.6-14.3c0-.6 0-.8.8-1 2.3 0 4.6.3 6.5 1.6 1 .8 1.8 2 2.2 3.2 1.8 5.3-1 11.3-6.4 13.7l-3 1.2zM174 6l-4.8.3c-3.5 0-7-.3-10.4-.5-.7 0-1.2.2-1.3 1-.3 1-1.3 2-.3 3.3v4.4c-.4 4.7-.8 9.4-1 14-.3 3.3-.4 6.6-.3 9.8 0 3.5-.4 7 0 10.5.4 2 .5 2 2.4 1.7 1-.2 2.4-.3 3.5-.2 2.8.2 5.6 0 8.3-.7 1-.3 1.3-1 1.3-2s-.6-1-1.4-1.2h-9c-.7 0-1-.2-1-.8v-7.8c0-.8.4-1 1.2-1.2 2.5-.3 5-.8 7.5-1 .8-.2 1-1 1-1.6 0-.6-.4-1.2-1-1.4-.7-.3-1.5-.4-2.4-.4-1.3 0-2.6.4-4 .6-2 .3-2.2 0-2-2 .4-4 .7-17.3.6-19.8 0-1 .3-1.2 1.3-1.3 4.2 0 8.4-.2 12.6-.4.4 0 .8-.6 1-1 .4-.6-1-2.2-2-2.2zm-24.6 1.8c0-.2-.3-.4-.5-.4l-6.7-.2H129c-.8 0-2 .3-2.2.8-1 1.5.3 3.2 2 3.2h5.7c1 0 1.2.4 1 1.3v2c-.4 5-.8 9.8-1 14.7l-.7 8.4-.5 9c0 1 .2 1.5 1.2 1.7l1.2.3c1.2.2 1.6 0 1.7-1.2l.8-9.3 1-11.5.6-8.5v-5.5c0-.8.3-1 1-1 1.4 0 2.8-.2 4-.3h3.7c.5 0 1-.5 1.4-1l-.4-1.2c.2-.6 0-1-.2-1.2zM118 6.7c-1.4.2-3 .5-4.4.5l-14.3-.8c-1.3 0-1.8.3-1.8 1.5 0 1.4.5 2 1.8 2 2 0 3.8.3 5.8.3 1 0 1.3.4 1.2 1.3l-.8 12.4-.6 20c0 .7.2 1.3 0 1.8-.3 1.8 1 2.5 2 3 1.2.6 2 0 2-1 .2-1 .2-2.2.2-3.2l.8-17c.2-4 .6-8 1-11.8 0-1 .5-4.8.5-4.8s-.2-.7.7-.6l7 .5c1.6 0 2.4-1 2-2.5-.6-1.5-1.3-2-3-1.8zm-28.5-.4h-2c-3.7 0-7.2-.3-10.8-.5-1.7 0-2.7.5-2.8 2.8l-.7 21c0 4.4-.4 8.6-.6 13l-.2 4.4c0 2 1 2.8 2.8 2.6L86 49c.7 0 1.4 0 2-.4.4-.2 1-.8 1-1 0-.6-.6-1-1-1.4-.2-.2-.6-.3-1-.3-2.7-.3-5.5-.6-8.4-.7-1 0-1.3-.2-1.2-1.2l.5-10.3c0-.7.3-.7.8-.7 2 0 4 0 6-.2 1.3 0 2.8 0 3.3-1.8.4-1 0-1.5-1-1.6h-8.3c-.6 0-.7-.2-.7-.8v-4l.5-14.3c0-.3.5-.8.8-.8h9.3c.7 0 1.7 0 2-.6.4-.5 0-1.5-.2-2.2 0 0-.5-.4-1-.5zM59.3 29.2l-.7-.4.6-.6c4.3-3.2 6.6-7.4 6.5-12.8 0-2-.6-4-2-5.5-3-3.4-7-4.2-11-4-1.3.2-2.5.2-3.7 0-1.7 0-3 1-3 2.8.2 2.4.4 4.8.3 7.3-.4 9.5-.3 19 0 28.4.2 1.7.3 3.4 0 5 0 1 0 1.2.8 1.2h4.7c1.4 0 2.8 0 4-.3 6.5-.8 10-6.8 10-12.4 0-4.6-2.6-7.2-6.4-8.8zm-8.5-2V26l.7-12.6V9.8c0-.7 0-1 .8-1 2.8.3 5.4 1 7.6 2.6 1 .8 1.4 2 1.5 3.3.3 5.2-1.6 9-6.2 11.6L52 28c-1 .5-1.3 0-1.2-.8zM58 46l-6.3 1c-.8 0-1.2-.4-1.2-1.3 0-4 0-8.2.2-12.3 0-1.5 1.3-.6 2-1 3.5 0 6.2 1.6 8 4.4.6.7.8 1.8.7 2.7-.2 2-1 4-2.3 5.6-.2.5-.6 1-1 1z" fill="#517B2E"/><path d="M191.5 31.8c2.8-1.3 5.2-3 7-5.5C201 23 201.8 19 202 15c0-4.6-4.7-8.2-8-9-2-.5-4.2-.4-6.3-.6h-2.2c-2 .2-2.5.6-2.5 2.2l-.5 14c0 4.4 0 8.8-.2 13.3 0 4-.2 8-.4 12-.2.8.4 1.4 1 1.3 1 0 2.2-.3 3-1 .5-.3.8-1.5.7-2.3-.5-3.6-1-7.3-.5-11 0-.4.4-.7.5-1 .3.2.7.3 1 .6 1.4 2.2 3 4.4 4.2 6.6l4 7.6c0 .2.4.4.5.4.8 0 1.7 0 2.3-.5.3-.2.3-1.3 0-1.8l-4-7-3.8-6c-.4-.5-.3-.8.5-1.2zm-4.8-2.6c-.5.2-.7 0-.7-.4v-4l.6-14.3c0-.6.2-.8 1-1 2.2 0 4.5.3 6.4 1.6 1 .8 1.8 2 2.2 3.2 1.8 5.3-1 11.3-6.4 13.7l-3 1.2zm-14-24l-4.8.2c-3.6 0-7-.3-10.5-.5-.7 0-1.2 0-1.3.8-.3 1-1.3 2.2-.3 3.4 0 1.5 0 3-.2 4.3l-1 14c-.2 3.3-.3 6.6-.2 9.8 0 3.5-.3 7 .2 10.5.3 2 .4 2 2.3 1.7 1.2-.2 2.5-.3 3.6-.2 3 .2 5.7 0 8.4-.7 1-.3 1.3-1 1.3-2s-.6-1-1.4-1.2h-9.1c-.8 0-1-.2-1-.8v-7.8c0-.8.3-1 1-1.2 2.6-.3 5-.8 7.6-1 1-.2 1.2-1 1.2-1.6 0-.5-.5-1-1-1.3-.8-.3-1.6-.4-2.5-.4-1.3 0-2.6.4-4 .6-2 .2-2.2 0-2-2.2.4-4 .7-17.2.6-19.7 0-1 .2-1 1.2-1.2 4.2 0 8.4-.2 12.6-.4.3 0 .7-.6.8-1 .5-.7-1-2.3-2-2.2zm-24.5 1.6c0-.2-.3-.4-.5-.4l-6.6-.2H128c-.8 0-2 .3-2.2.8-1 1.5.3 3.2 2 3.2h5.7c1 0 1.3.4 1 1.3v2c-.4 5-.8 9.8-1 14.7l-.7 8.4-.5 9c0 1 .3 1.5 1.3 1.7l1.2.3c1.2.2 1.6 0 1.8-1.2l.8-9.3c.4-3.8.8-7.6 1-11.5.3-2.8.6-5.7.7-8.5v-5.5c0-.8.3-1 1-1 1.4 0 2.8-.2 4-.3h3.7c.5 0 1-.5 1.4-1 .2-.2 0-.8-.3-1.2 0-.6-.2-1-.3-1.2zm-31.4-1.1c-1.5.2-3 .5-4.5.5L98 5.4c-1.3 0-1.8.3-1.8 1.5 0 1.4.5 2 1.8 2 2 0 3.8.3 5.8.3 1 0 1.2.4 1 1.3l-.7 12.4-.5 20c0 .7.2 1.3 0 1.8-.3 1.8 1 2.5 2 3 1.2.6 2 0 2-1 .2-1 .2-2.2.2-3.2l.8-17c.2-4 .6-8 1-11.8 0-1 .5-4.8.5-4.8s-.2-.7.7-.6l7 .5c1.6 0 2.4-1 2-2.5-.5-1.5-1.3-2-3-1.8zm-28.6-.3h-2C82.5 5.4 79 5 75.4 5c-1.8-.2-2.8.3-2.8 2.6l-.6 21c0 4.4-.3 8.6-.5 13l-.2 4.4c0 2 1 2.8 2.8 2.6l11-.5c.5 0 1.2 0 1.8-.4.4-.2 1-.8 1-1 0-.6-.6-1-1-1.4-.3-.2-.7-.2-1-.2-2.8-.2-5.6-.5-8.5-.6-1 0-1.3-.2-1.3-1.2l.5-10.4c0-.7.4-.7 1-.7h6c1.2-.2 2.7 0 3.2-2 .3-.8 0-1.4-1-1.5h-8.4c-.6 0-.7-.2-.7-.8v-4L77 9.4c0-.3.6-.8 1-.8h9c.7 0 1.7 0 2-.6.4-.4 0-1.4-.2-2 0-.3-.4-.5-.8-.6zM58 28.2l-.7-.4.6-.6c4.2-3.2 6.5-7.4 6.4-12.8 0-2-.6-4-2-5.5-3-3.4-7-4.2-11-4-1.3.2-2.5.2-3.7 0-1.7 0-3 1-3 2.8.2 2.4.4 5 .3 7.3-.4 9.5-.3 19 0 28.4.2 1.7.3 3.4 0 5 0 1 0 1.2.8 1.2h4.6c1.4 0 2.8 0 4-.3 6.5-.8 10-6.8 10-12.4 0-4.5-2.6-7-6.4-8.8zm-8.5-2V25l.7-12.6V8.8c0-.7.2-1 .8-1 2.8.3 5.4 1 7.6 2.6 1 .8 1.5 2 1.6 3.3.3 5.3-1.6 9.3-6.2 11.8l-3.4 1.7c-.8.4-1.2 0-1-1zM56.7 45l-6.3 1c-.8 0-1.2-.4-1.2-1.3 0-4 0-8.2.2-12.3 0-1.5 1.3-.6 2-1 3.5 0 6.2 1.6 8 4.4.6.7.8 1.8.7 2.7 0 2-1 4-2.2 5.6-.3.5-.7 1-1 1z" fill="#79AE3D"/></svg>