<svg xmlns="http://www.w3.org/2000/svg" width="360" height="55" viewBox="0 0 360 55"><path d="M80.3 7.4c0-.6-.4-1-1-1.3-1-.6-2.2-1-3.6-1C74 5.3 73 6 72 7c-1 2-1.2 4-1.3 6v1c-.2-.6-.4-1-.4-1.7 0-.6-.5-1-1.2-1.2-.6 0-.7.6-.7 1s-.2.7-.3 1c-1 2.2-1.8 4-3 5.5-1.4 1.4-3 2.7-4.7 2.7-.8 0-1.7-.3-2.7-.8-.8-.5-1-1-.7-1.8l.2-.7 1-2.7c.4-1.3.8-2.6.5-4 0-.8-.4-1.8-1.5-2h-.5c-1 0-1.8.5-2.3 1-1.6 2-2 4.3-1 6.5 0 .4 0 .7.3 1l.5 1.6c0 .5-.3.8-.8 1.3-.3 0-.6.4-.8.7l-.4.3c-.4.2-.5.6-.4 1 0 .4.3.7 1 .7 1 0 1.7-.6 2.3-1.7l.4-.3s.2 0 .3.2c2 1.6 4.4 2 7 1 1.6-.7 3-2 4.4-4l1.7-2.7.4-.7.2.6.7 2.8c.2.7.7 1.2 1.4 1 .6 0 .6-.8.7-1.2v-.2l.2-2.5c0-1.5.2-3.2.4-4.8.2-2.5 1-3.5 3.5-4h.3c1 0 2 .7 2.3 1.4.2.4.4.5.6.5V9h.4c.3 0 .4-.3.4-.4.3-.5.4-1 .3-1.4zm-23 5c-.3 1.7-1 3.4-2 5.3-.8-2-1-3.7 0-5.4.3-.4.7-.6 1-.8h.3s.3 0 .4.2l.2.7zm-5.3.1c0-.5 0-1-.3-1.4-.3-.4-.5-1-1-1-.3 0-.6.4-1 .8-.5.5-.8 1-1 1.7-.3.4-.5.8-.8 1-1.8 2.6-2.6 5.3-3.3 8l-.2.6c0 .7-.2 1.2-.5 1.6-.4-.6-.6-1.3-.8-2v-.2l-1-4-1.2-4.2c0-.3-.3-1-1-1-.2 0-.5 0-.8.2-2.2 1.2-4.7 1.5-7 1.8h-.3c-.8.2-1.6 0-2.5 0-.7-.2-1.4 0-1.6.6-.2.3 0 .6 0 .8.2.3.5.4 1 .4.6 0 1 .5 1.5 1 1.6 2 1.8 4.2 1.7 6.2 0 1-.2 1.6-.5 2-.7.6-1.6 1-2.6 1s-2-.5-2.5-1.4l-.6-1.4c-.8-2.4-.6-4.3.5-6 0-.2 0-.2.2-.3.3-.2.5-.5.5-1 0 0-.2-.3-.5-.4l-.4-.2c-.5 0-.8.4-1 .8-.2 0-.3 0-.3.2v.2c-.6.6-.8 1.4-1 2v.8c-.4 1.7-.3 3.5.3 5 1 2.3 2.7 3.3 5 3.5h.2c2.2 0 4-1.3 4.5-3 .5-2.8 0-5.6-1.4-8.3 0-.2 0-.2-.2-.3h.8c0-.2.2-.2.2-.2 2.3-.4 4.4-1 6.2-2h.3l.2.3c.2.3.3.7.3 1 0 .4 0 .7.2 1l.6 2.5.8 3.2c.4 1.4 1 2.8 2 4 .2.3.6.4.8.4.4 0 .7-.3 1-.8 0-.3 0-.6.2-1v-.2l.4-1.3c.5-2 1-4 2-5.8l.8-1.6c.4-.8.8-1.6 1-2.4.5-.8.7-1 .8-1l1 .3h.3v-.5z" fill="#848C8D" stroke="#848C8D" stroke-width=".5" stroke-miterlimit="10"/><path d="M312 9.7c-.6-.2-1.3-.3-1.6.6-.3 1-.8 2-1.3 3-1.5 3-3.2 5.8-4.8 8.8-1.3 2.8-2.4 5.6-3.8 8.3l-2.6 5c0 .2-.2.3-.4.4v-9.9c0-3.5.2-7 .4-10.5l.2-5.2c0-1-.7-1.5-2-1-1 .2-1.4 1-1.5 2l-.2 7.3c-.3 5.7-.6 11.4-.6 17.2v16c.2 0 .5.5.7.5 1 0 2.3-1.3 2.4-2.2.2-.8.2-1.7.2-2.6 0-1.6 0-3.3.4-4.8.8-2.4 2-4.7 3.2-7 .2-.4.6-.8 1-1.2 0 .4.2.8.4 1.3v.2c1.4 3 2.7 6.2 4 9.3l3 6.6c.3.4 1 1 1.3 1 .5-.4 1-1 1.2-1.5.2-.4 0-1 0-1.6-1.5-2.6-3-5.3-4-8-1.2-3-3-6-4.3-9-.2-.6-.2-1.4 0-2l9-17.8c.4-.6.5-1.3.4-2 0-.3-.4-.8-.7-1zm-33.3-.4c-1.2.5-2.4 1.3-3.4 2.2-2 2-3 4.6-3.8 7.3-2 6.6-3.3 13.3-2.2 20.3.5 3.6 1.2 7 3.2 10 1.6 2.6 3.7 4 7 2.6 2.7-1 4-3.2 4.7-6 0 0 0-.8-.2-.8-.4 0-1 0-1.4.2-.4.4-.7 1-1 1.6-.3 1.5-1.5 2.5-3 2.5-1.7 0-2-.3-2.5-2.3v-.3c-.6-4-1-8-1.7-12 .2-5.2.7-10.2 2-15 .6-2.3 1.2-4.6 3-6.3 1.3-1.2 2.8-1.2 4 .2.7.8 1 1.6 1 2.6 0 .4 0 1 .3 1.2.3.4 1 .7 1.4 1 .2-.3.7-.7.7-1.2.3-1.6-.3-3.2-1-4.6-1-2-4.8-3.8-7-3zm-17.2 33l-3-18.2-2.3-13.4c0-1-.6-1.4-1.4-1.5-1 0-1.4.7-1.6 1.4l-3 9-4.8 15c-1 3.3-2 6.7-3.2 10l-1.6 5.4c0 1.4.4 2 1.5 2 1.2 0 1.4-1 1.6-1.7 0-.4.3-.8.4-1.3l2.3-9.6s.5-.6.7-.6l9.4.2c.8 0 1 .4 1 1l1.5 8v2.5c.4 1.8.7 2 2.4 1.3h.2c1.5.5 1.2-.7 1-1.3l-1-8.2zm-14-7.8l5.2-14.3c.5-1.2 1-2.5 1.3-3.7 0-.2.2-.3.3-.4v.5c.6 4 1 8.2 1.7 12.3l1 5.2c0 1.6-.2 1.6-1.8 1.6h-7c-1 0-1-.3-.6-1zM237 10c-.4-.2-1 0-1.2.4-.4 1-.8 1.8-.7 2.7.7 3.4.4 6.6.2 10-.4 5.5-1 11-1.3 16.7l-.4.8c0-.2-.3-.4-.4-.6-1-2.6-2-5.2-3.3-7.6l-2.8-5-4.4-10.3c-.8-2-1.8-3.8-2.7-5.8l-.3-1.6-1.5.6c-.6 0-1 .5-1 1v3.5l-.6 14.5V36c0 5-.3 10-.4 14.8 0 .8 0 1.4 1 1.4s1.5-.2 1.6-1l.2-2.2c0-3.6 0-7 .2-10.7 0-4.7.3-9.5.5-14.2v-4.6l.2-.5.3.3 3.7 10.5 2.6 6.8 2 4.2c1.3 3.2 2.5 6.5 4 9.6 0 .5.7 1 1.2 1 .2 0 .7-.7 1-1v-1c.7-4 1.3-8 1.6-11.7.7-8.2 1.2-16.4 1.7-24.6.2-.7 0-1.4 0-2-.2-.5-.7-1-1-1zm-28.6.4c-.4-.7-1.3-1.4-2-1.7-2.3-.7-4.6-.4-6.7.7-4 2-5.4 6-5.3 10.2 0 4.4 2 8.3 4.4 12l4 5.7c1.5 2.3 2.4 5 2.4 7.8 0 2.3-1 4.2-2 5.3-1.8 2-7 1-8-2.2l-1-1.7c-.2-.5-.8-.4-1 0 0 .8-.4 1.7 0 2.2 1 2.7 3 4.7 6 5 6.4.7 10.4-4 10.5-9.8 0-4-1.5-7.5-3.4-11l-4.5-7c-1.7-3-2.2-6.5-2-10 0-2.5 1.4-4.4 3.8-5.3 1-.3 1.6-.2 2 .6 1 1.2 1.5 2.5 2.2 3.8l.7 2c0 .2.6.5 1 .6 0 0 .5-.4.6-.7.2-.6.5-1.4.3-2-.5-1.4-1-3-2-4.3zM334 9.3c-.5-.7-1.4-1.4-2.2-1.6-2.2-.8-4.6-.5-6.6.6-4 2.2-5.4 6-5.4 10.2 0 4.4 2 8.3 4.5 12l4 5.7c1.5 2.4 2.4 5 2.3 7.8 0 2.3-.8 4-2 5.2-1.7 2-6.8 1-7.8-2l-1-2c-.4-.4-1-.3-1 .2-.2.7-.5 1.5-.2 2 1.2 2.7 3 4.7 6 5 6.5.7 10.5-4 10.6-9.8 0-3.8-1.5-7.5-3.5-10.8l-4.4-7.3c-1.7-3-2.3-6.3-2.2-9.8.2-2.5 1.7-4.4 4-5.3 1-.3 1.7-.2 2.2.6l2 3.7c.4.6.5 1.4.8 2 0 .3.6.6 1 .6 0 0 .5-.4.6-.7 0-.6.3-1.3.2-2-.5-1.4-1-3-2-4.3z" fill="#848C8D" stroke="#848C8D" stroke-width=".3" stroke-miterlimit="10"/><path fill="#F8C212" d="M97.6 1.4c.3-.2.2-.8-.3-.8-3 0-6 0-9 .6-.4 0-.5.3-.4.6-.2 0-.2 0-.2.2.6 4 .3 7.8 0 11.8-.2 4.5-.3 9-.2 13.4v13.6c-.2 4.2 0 8 .8 12v.2c0 .2 0 .3.4.4l4.6.6c1.4 0 3 .4 4.3.2.4 0-.7-45.5 0-52.8zm85.8 18.9c-1-7-3-13.4-9-17.5-3-2.2-6.3-2.8-9.6-2.4 0 0-.2-.2-.4 0-2 .6-4 1-6 2s-3.7 2.4-5.2 4c-2.8 2.8-4.5 6.6-5.7 10.4-2.8 8.5-1.8 17 1.6 25 2.7 6.6 7.4 11.5 14.6 12.6 6.3 1 12.4-2 15.6-7.4 5.6-6.6 5.2-19.4 4.2-26.7zM164.4 9c4 0 7.6 3 8.8 6.5 1.5 4.4 2 9 2 13.7 0 4-.6 8.3-2.4 12-2 4.3-7.3 5-11 2.4-6-4-7.4-12.4-7-18.8.3-6.4 3.5-13.5 9.7-16z"/><path fill="#FFF" d="M92.6 3.3c-2.3 0-2.3 3.6 0 3.6s2.2-3.7 0-3.7zm.2 6.7c-2.3 0-2.3 3.4 0 3.4s2.3-3.5 0-3.5zm-.1 7.3c-2.3 0-2.3 3.5 0 3.5s2.3-3.5 0-3.5zm-.1 7.3c-2.2 0-2.2 3.5 0 3.5 2.3 0 2.3-3.4 0-3.4zm.1 7.6c-2.3 0-2.3 3.6 0 3.6s2.3-3.6 0-3.6zm-.1 7.1c-1 0-2 .8-2 1.8s1 1.8 2 1.8 1.7-.8 1.7-1.7c0-1-.8-1.7-1.7-1.7zm-.1 7.2c-2.3 0-2.3 3.5 0 3.5s2.3-3.5 0-3.5zm73.3-43.8c-2.3 0-2.3 3.5 0 3.5s2.3-3.5 0-3.5zm7.5 2.7c-2.3 0-2.3 3.5 0 3.5s2.3-3.6 0-3.6zm4 7c-2.3 0-2.3 3.5 0 3.5s2.3-3.6 0-3.6zm2.3 8c-2.3 0-2.3 3.5 0 3.5 2.2 0 2.2-3.6 0-3.6zm.4 8.6c-2.3 0-2.3 3.5 0 3.5s2.3-3.6 0-3.6zm-1.8 9.6c-2.2 0-2.2 3.5 0 3.5s2.3-3.4 0-3.4zm-5.2 7.2c-2.4 0-2.4 3.5 0 3.5s2-3.5 0-3.5zm-8 2.6c-1 0-1.8.8-1.8 1.8S164 52 165 52s2-.8 2-1.8-1-1.8-2-1.8zm-6-3c-.6-.7-1.8-.7-2.5 0-.7.8-.7 2 0 2.6.7.7 1.8.7 2.5 0 .7-.8.7-2 0-2.6zm-5.4-6.6c-2.3 0-2.3 3.5 0 3.5s2.3-3.5 0-3.5zm-2.2-7.8c-.4 0-1 0-1.3.2l-.3.3c-.2 0-.3.3-.4.5-.2.4-.2 1 0 1.3.2 1 1 1.4 2 1.2.6 0 1.3-.7 1.3-1.2.2-1-.2-2-1.2-2.2zm-1.2-7.6c-2.3 0-2.3 3.5 0 3.5s2.3-3.6 0-3.6zm1.8-9.8c-1 0-1.7.8-1.7 1.8s.8 1.8 1.8 1.8 2-.8 2-1.8-1-1.8-2-1.8zm5.6-6.9c-2.3 0-2.3 3.6 0 3.6s2.3-3.6 0-3.6z"/><path fill="#F8C212" d="M141 20.4c-1-7-3-13.4-9-17.6-3-2-6.4-2.8-9.6-2.3 0 0-.3-.2-.5 0-2 .6-4.2 1-6 2-2 .8-3.8 2.4-5.2 4-3 2.8-4.5 6.6-5.8 10.4-2.7 8.3-1.7 16.8 1.6 25 2.7 6.4 7.4 11.4 14.5 12.5 6.5 1 12.5-2 15.7-7.4 5.7-6.5 5.2-19.3 4.2-26.6zM122 9c4 0 7.6 3 8.8 6.6 1.4 4.3 2 9 2 13.7 0 4-.7 8.3-2.5 12-2 4.3-7.3 5-11 2.3-6-4-7.4-12.3-7-18.8.3-6.3 3.5-13.5 9.7-15.8z"/><path fill="#FFF" d="M123.3 2.7c-2.2 0-2.2 3.6 0 3.6 2.3 0 2.3-3.6 0-3.6zm7.5 2.8c-2.2 0-2.2 3.5 0 3.5s2.3-3.5 0-3.5zm4 6.9c-2.3 0-2.3 3.6 0 3.6s2.3-3.6 0-3.6zm2.2 8.1c-2.2 0-2.2 3.5 0 3.5 2.4 0 2.4-3.5 0-3.5zm.5 8.5c-2.2 0-2.2 3.5 0 3.5 2.3 0 2.3-3.5 0-3.5zm-1.7 9.6c-2.3 0-2.3 3.6 0 3.6s2.3-3.6 0-3.6zm-5.4 7.2c-2.3 0-2.3 3.6 0 3.6s2.3-3.6 0-3.6zm-7.7 2.7h-.2c-1 0-1.8.8-1.8 1.7 0 1 .8 1.8 1.8 1.8h.2c1 0 1.8-.8 1.8-1.8s-1-1.7-1.8-1.7zm-6.1-3c-.7-.7-1.8-.7-2.5 0s-.7 2 0 2.5c.7.7 1.8.7 2.5 0 .8-.7.8-2 0-2.5zm-5.6-6.7c-2 0-2 3.6 0 3.6s2.4-3.6 0-3.6zm-2-7.8c-.5 0-1 0-1.4.3l-.4.3-.3.4c-.3.4-.4 1-.3 1.4.3 1 1.2 1.3 2.2 1.2.5 0 1-.7 1.2-1.3 0-1-.2-2-1.2-2.2zm-1.2-7.5c-2.3 0-2.3 3.5 0 3.5 2.2 0 2.2-3.5 0-3.5zm1.9-9.8c-1 0-2 .8-2 1.8s1 1.7 2 1.7 1.7-.8 1.7-1.7-.8-1.8-1.7-1.8zm5.3-6.9c-2.2 0-2.2 3.5 0 3.5s2.4-3.5 0-3.5z"/></svg>