<svg xmlns="http://www.w3.org/2000/svg" width="210" height="150" viewBox="0 0 210 150"><g fill="#01979D"><path d="M184.2 76.86c1.35 1.05 1.53 2.87.88 3.95-8.38-.53-16.2-.43-24.32-1.2-.35-.37-.16-.87.14-1.38 7.55-.48 15.47-.85 23.3-1.36zm.23 3.3c-.1-1-.13-1.95-1.1-2.72-6.8.7-14.02.9-21.07 1.32-.16.04-.2.23-.42.2-.1.07 0 .08.06.14 7.3.65 15 .58 22.53 1.05z"/><path d="M183.33 77.44c.97.77 1 1.72 1.1 2.7-7.52-.46-15.23-.4-22.54-1.04-.07-.06-.17-.07-.06-.15.22.04.26-.15.42-.2 7.05-.4 14.28-.6 21.07-1.3zM174.6 42.7c1.67.7 3.07 2.95 3.4 4.72-6.1 3.46-11.35 7.43-17.4 10.47-.5-.3-.74-1.03-.9-1.87 4.8-4.38 9.96-8.76 14.9-13.33zm2.5 4.17c-.78-1.2-1.47-2.48-2.67-2.97-4.14 4.3-8.9 8.13-13.4 12.16-.08.15 0 .42-.2.48.03.14.12.14.2.13 5.44-2.74 10.6-6.72 16.07-9.8z"/><path d="M174.43 43.9c1.2.5 1.9 1.78 2.67 2.97-5.48 3.08-10.63 7.06-16.07 9.8-.08 0-.17 0-.2-.13.2-.06.12-.33.2-.48 4.5-4.03 9.26-7.85 13.4-12.16zm-.15 67.3c.17 1.83-1.05 3.88-2.32 4.72-5.56-4.78-11.2-8.58-16.4-13.48.05-.58.55-1 1.15-1.42 5.75 3.25 11.65 6.86 17.58 10.2zm-2.28 3.7c.62-1.1 1.37-2.18 1.23-3.5-5.36-2.62-10.65-6.04-15.97-9.1-.12-.04-.3.13-.45-.03-.1.04-.07.12-.03.2 4.7 4.36 10.25 8.12 15.23 12.43z"/><path d="M173.23 111.4c.14 1.32-.6 2.4-1.22 3.5-4.98-4.3-10.54-8.07-15.23-12.43-.04-.08-.06-.16.04-.2.15.16.34 0 .46.03 5.32 3.06 10.6 6.48 15.97 9.1zM148.4 26.94c1.8-.16 3.86 1.05 4.7 2.32-4.78 5.57-8.58 11.2-13.47 16.4-.58-.05-1-.55-1.43-1.14 3.25-5.76 6.84-11.65 10.2-17.58zm3.68 2.3c-1.1-.64-2.18-1.38-3.5-1.23-2.63 5.36-6.04 10.64-9.1 15.97-.03.12.13.32-.03.44.04.13.12.1.2.05 4.36-4.7 8.12-10.26 12.43-15.22z"/><path d="M148.6 28c1.3-.14 2.4.6 3.48 1.23-4.3 4.97-8.07 10.53-12.43 15.22-.08.04-.16.08-.2-.04.16-.1 0-.3.03-.43 3.06-5.33 6.47-10.6 9.1-15.96zm-2.52 103.62c-1.2 1.33-3.8 1.9-5.58 1.6-1.22-6.9-3.22-13.16-4.07-19.88.45-.35 1.2-.35 2.05-.22 2.53 6 4.95 12.3 7.6 18.5zm-4.76.97c1.38-.36 2.84-.58 3.7-1.55-2.7-5.34-4.7-11.1-7-16.7-.12-.1-.4-.14-.4-.33-.12-.02-.16.06-.16.14.76 6.04 2.8 12.2 3.86 18.43z"/><path d="M145.02 131.05c-.86.97-2.32 1.2-3.7 1.54-1.07-6.23-3.1-12.4-3.86-18.44 0-.08.04-.16.16-.13 0 .18.28.2.4.33 2.3 5.58 4.3 11.35 7 16.7zM117.22 18.2c-.54 8.38-.44 16.18-1.2 24.3-.38.36-.87.17-1.4-.12-.47-7.55-.84-15.48-1.35-23.3 1.05-1.36 2.87-1.53 3.95-.9zm-1.7 23.18c.64-7.3.56-15.02 1.04-22.54-.97.1-1.94.14-2.7 1.1.7 6.8.9 14.03 1.3 21.06.04.18.24.22.22.43.06.1.08.02.13-.05z"/><path d="M116.56 18.84c-.48 7.52-.4 15.23-1.05 22.54-.04.07-.06.16-.12.05.02-.2-.18-.25-.2-.43-.42-7.03-.6-14.26-1.33-21.05.77-.97 1.74-1 2.7-1.1zm-8.61 96.02c.48 7.55.85 15.47 1.36 23.3-1.04 1.36-2.86 1.53-3.94.9.54-8.4.44-16.22 1.2-24.34.38-.34.88-.16 1.4.14zm.78 22.43c-.7-6.8-.9-14.03-1.32-21.07-.02-.17-.22-.2-.2-.43-.06-.12-.07 0-.13.06-.64 7.3-.56 15-1.05 22.54.97-.13 1.94-.14 2.7-1.1z"/><path d="M107.4 116.23c.43 7.04.63 14.27 1.33 21.06-.77.96-1.74.97-2.7 1.1.48-7.53.4-15.24 1.04-22.54.06-.07.07-.18.14-.06-.02.22.18.26.2.44zM86.15 43.9c-.43.35-1.2.35-2.05.23-2.53-6-4.95-12.3-7.6-18.5 1.23-1.34 3.8-1.9 5.58-1.63 1.23 6.9 3.22 13.17 4.07 19.9zm-1.2-.7c.15.04.18-.04.2-.12-.78-6.04-2.82-12.2-3.9-18.43-1.37.35-2.82.57-3.7 1.54 2.7 5.33 4.72 11.1 7.02 16.68.1.12.4.14.4.33z"/><path d="M85.14 43.08c0 .08-.04.16-.17.13 0-.18-.3-.2-.4-.32-2.3-5.58-4.3-11.35-7-16.7.86-.96 2.3-1.18 3.7-1.53 1.07 6.22 3.1 12.4 3.87 18.43zm-4.24 70.86c.56.04.98.54 1.4 1.14-3.24 5.74-6.84 11.64-10.17 17.57-1.83.16-3.87-1.05-4.72-2.32 4.78-5.56 8.6-11.2 13.5-16.4zm.13 1.7c.04-.13-.14-.34.04-.46-.06-.1-.12-.08-.22-.04-4.34 4.7-8.1 10.25-12.43 15.24 1.1.62 2.2 1.36 3.5 1.2 2.64-5.34 6.05-10.63 9.1-15.95z"/><path d="M81.07 115.18c-.18.13 0 .33-.04.45-3.06 5.32-6.47 10.6-9.12 15.96-1.3.14-2.38-.6-3.48-1.22 4.33-5 8.1-10.55 12.43-15.24.1-.04.17-.06.22.04zM63.7 54.32c-.05.58-.55 1-1.14 1.43-5.74-3.25-11.65-6.85-17.58-10.2-.16-1.8 1.05-3.86 2.32-4.7 5.57 4.8 11.2 8.56 16.4 13.47zm-1.25.18c.1-.04.08-.12.04-.2-4.7-4.36-10.25-8.12-15.24-12.43-.62 1.1-1.36 2.18-1.2 3.5C51.4 48 56.67 51.4 62 54.46c.13.04.33-.14.45.03z"/><path d="M62.5 54.3c.03.07.06.16-.05.2-.12-.17-.32 0-.44-.03-5.32-3.06-10.6-6.47-15.95-9.1-.15-1.32.6-2.4 1.2-3.5 5 4.3 10.55 8.07 15.24 12.42zm-3.27 45.38c.5.26.8.97 1.04 1.78-4.45 4.76-9.24 9.53-13.82 14.47-1.7-.57-3.27-2.7-3.75-4.44 5.8-3.93 10.73-8.3 16.53-11.82zm-.15 1.36c-.02-.12-.1-.12-.2-.1-5.2 3.16-10.02 7.53-15.25 11.04.88 1.12 1.68 2.36 2.92 2.75 3.77-4.63 8.23-8.8 12.38-13.2.07-.14-.02-.42.15-.5z"/><path d="M58.9 100.95c.07-.03.16-.03.18.1-.17.06-.08.34-.14.5-4.16 4.37-8.62 8.55-12.4 13.18-1.23-.4-2.03-1.64-2.9-2.75 5.23-3.5 10.05-7.88 15.25-11.03z"/></g><path d="M81.4 57.1c.17 0 .47.3.92.9-.2 2-.28 3.5-.28 4.52v4.82c0 6.52-.1 14.06-.32 22.64.2.64.32 4.26.32 10.87-.22 0-.32.1-.32.3l-3.02-.3h-3l-1.53-.28v-15.4c0-4.28-.1-10.83-.3-19.64-2.92 2.22-5.54 3.33-7.85 3.33-1-1.56-1.5-3.68-1.5-6.34 6.7-3.62 11.22-5.43 13.58-5.43h3.3zm58.52-.92c5.06 0 8.98 2.92 11.78 8.75 1.6 3.02 2.4 7.05 2.4 12.1v2.08c-.2 11.66-3.7 18.8-10.56 21.47-1.9.6-3 .9-3.3.9-7.8 0-12.94-3.43-15.4-10.27-1.42-4.35-2.13-8.27-2.13-11.78v-2.7c0-5.7 1.42-10.22 4.23-13.6 2.94-4.62 7.26-6.94 13-6.94zm-8.46 20.22v4.52c0 7.7 2.42 12.23 7.25 13.6h.9c3.55-1.48 5.66-5.8 6.35-12.98V77c-.57-9.46-2.68-14.2-6.34-14.2h-.27c-3.18 0-5.3 2.23-6.34 6.66-1.03 2.26-1.54 4.57-1.54 6.94zm-26.54-20.25c5.06 0 8.98 2.92 11.78 8.75 1.6 3.02 2.4 7.04 2.4 12.08v2.1c-.2 11.64-3.7 18.8-10.56 21.45-1.9.6-3 .9-3.3.9-7.8 0-12.94-3.42-15.4-10.27-1.42-4.34-2.13-8.27-2.13-11.77v-2.73c0-5.67 1.42-10.2 4.23-13.58 2.93-4.64 7.26-6.95 13-6.95zm-8.46 20.2v4.54c0 7.68 2.42 12.2 7.25 13.58h.9c3.55-1.47 5.66-5.8 6.35-12.97V77c-.57-9.47-2.68-14.2-6.34-14.2h-.27c-3.18 0-5.3 2.2-6.34 6.64-1.03 2.27-1.54 4.58-1.54 6.94z" fill="#01979D"/><path fill="#FFF" d="M21.6 65.98c.45 1.42 1.13 2.7 1.86 3.98.4.7 1.64.22 1.32-.55-.34-.82-.72-1.58-1.16-2.35-.4-.72-1.56-.24-1.33.55.48 1.65 1.2 3.1 2.1 4.58.4-.25.83-.5 1.25-.74-1.02-1.62-2.02-3.26-3.04-4.87-.4-.67-1.6-.25-1.3.55.62 1.77 1.42 3.47 2.18 5.2.33.74 1.6.2 1.32-.57-.58-1.57-1.26-3.02-2.23-4.4-.45-.63-1.6-.27-1.33.56.65 2 1.38 3.88 2.57 5.6.37.53 1.46.42 1.36-.36-.2-1.54-.8-2.7-1.57-4.06-.47-.8-1.7-.08-1.26.73.96 1.72 1.8 3.54 3.3 4.86.57.52 1.3 0 1.2-.7-.33-2.36-1.52-4.32-2.68-6.37-.4-.7-1.64-.22-1.32.55.74 1.8 1.52 3.57 2.37 5.32.4.8 1.43.18 1.33-.56-.27-2-1.24-3.7-2.08-5.5-.4-.86-1.62-.1-1.25.73.72 1.65 1.47 3.27 2.4 4.8.44.73 1.5.25 1.32-.55-.35-1.62-1.16-2.98-1.93-4.44-.4-.73-1.55-.22-1.33.56.42 1.48.98 3.57 1.95 4.8.52.67 1.55-.18 1.14-.87-.1-.15-.2-.3-.26-.48-.33-.75-1.6-.2-1.32.55 1.68 4.38 5.68 4.1 9.7 4.67.42.06.72-.1.88-.5.42-1.06.6-2.13.8-3.24-.24.18-.48.35-.7.53.14 0 .3.03.43.04.34.05.82-.1.88-.5.16-1.07.22-2.12.23-3.2l-1.4.2.07.6c.12.82 1.45.62 1.43-.2-.05-1.38-.12-2.77-.3-4.16-.1-.92-1.36-.95-1.44 0-.1 1.25-.1 2.5-.08 3.76h1.45l-.14-4.2h-1.45c.05 1.5.1 3 .17 4.5.04.94 1.44.94 1.45 0 .02-1.8-.05-3.62-.15-5.44h-1.45c.23 1.73.4 3.4 1.03 5.05.25.64 1.2.75 1.4 0 .35-1.28.33-2.48.28-3.8-.47.05-.94.1-1.42.18l.5 3.52c.14.92 1.53.53 1.4-.38-.13-.93-.2-1.82-.23-2.74-.03-.95-1.38-.93-1.45 0-.07.4-.06.83.02 1.24l1.35-.36c-.06-.14-.1-.28-.17-.42-.17-.82-1.4-.6-1.42.2-.04.3-.1.6-.13.9-.25.9 1.14 1.3 1.4.4.15-.56.17-.72.18-1.3l-1.4.12c.07.34.14.48.32.77.35.55 1.43.38 1.35-.38-.1-.4-.1-.83-.02-1.24H37.1c.03 1.05.14 2.08.28 3.12l1.4-.38-.5-3.53c-.12-.82-1.45-.62-1.42.18.04 1.22.1 2.23-.24 3.44H38c-.6-1.5-.77-3.05-.98-4.66-.12-.9-1.5-.96-1.45 0 .1 1.82.17 3.63.15 5.45h1.45L37 66.3c-.04-.93-1.5-.93-1.46 0l.14 4.2c.02.93 1.46.94 1.44 0 0-1.26 0-2.5.1-3.76h-1.46c.17 1.4.24 2.77.3 4.17.46-.05.94-.1 1.4-.18l-.08-.6c-.1-.84-1.4-.6-1.42.18 0 .95-.03 1.86-.17 2.8l.88-.5-.83-.1c-.3 0-.65.24-.7.54-.18 1.12-.37 2.18-.78 3.24l.9-.5c-3.26-.47-7.3 0-8.7-3.66-.43.2-.88.37-1.32.56.07.17.15.33.26.48.4-.3.77-.58 1.14-.88-.83-1.05-1.2-2.86-1.57-4.16l-1.32.55c.7 1.34 1.45 2.6 1.78 4.1.44-.2.88-.37 1.32-.56-.93-1.54-1.68-3.15-2.4-4.8l-1.25.73c.78 1.7 1.68 3.3 1.94 5.16l1.32-.57c-.8-1.63-1.53-3.28-2.22-4.96l-1.32.55c1.1 1.93 2.2 3.8 2.52 6.02l1.2-.7c-1.37-1.24-2.15-2.97-3.05-4.56-.42.24-.84.5-1.26.73.62 1.1 1.2 2.03 1.37 3.34l1.36-.36c-1.1-1.62-1.8-3.4-2.42-5.25l-1.32.55c.9 1.27 1.55 2.6 2.1 4.05l1.3-.56c-.7-1.6-1.44-3.18-2.04-4.83l-1.32.56c1.02 1.6 2.02 3.25 3.04 4.88.5.78 1.74.07 1.25-.73-.82-1.36-1.5-2.7-1.96-4.23l-1.33.56c.4.64.73 1.3 1.02 2 .43-.17.87-.36 1.3-.55-.65-1.2-1.3-2.32-1.7-3.63-.3-.88-1.7-.5-1.4.4V66z"/><path fill-rule="evenodd" clip-rule="evenodd" fill="#01979D" d="M27.43 54.93c.1.07.27.08.46.05.14.6.03 1.02-.53 1.1-.07-.1-.13-.2-.26-.2-.13-.3.13-.3.04-.57.1-.12.4-.08.3-.37zm2.93.6c.05.54-.28.8-.78.9-.07-.08-.13-.18-.26-.18-.1-.47.25-.6.32-.95.4-.12.6 0 .72.23zm-4.43.87c.02.23.15.5 0 .68-.05.04-.2.1-.22.14-.04.08.1.26.06.34-.03.05-.3 0-.2.14-.95-.03-.58-1.84.37-1.3zm8.67 1.83c.12.07.12.3.28.3.13.43-.08.6-.23.83-.2.1-.26-.14-.36-.18-.06-.02-.2.06-.23.03-.06-.04 0-.25-.05-.32-.06-.08-.35-.04-.3-.42.15-.2.57-.17.9-.23zM16.3 63l-.3.38c-.33.1-.33-.26-.6-.25-.34-1 .92-1.1.9-.13zm-4.6.43c.35.05.72.1.67.7l-.56.08c-.18-.12-.24-.6-.1-.77zm2.35-.23c.33-.12.43.06.7.02.12.4 0 .6-.13.8-.2.06-.25-.1-.46-.03-.18-.14-.25-.62-.1-.8zm5.27.28c.14.4.36.85-.08 1.03-.86.2-1.04-1.17.08-1.02zm3.36 2.02c.12.4-.05.56-.1.8-.43.07-.9-.3-.68-.7.13-.17.6-.24.78-.1zm12.85-.8l-.38-.3c0-.26.07-.48.13-.7.55-.27.92-.2.95.32.02.36-.26.6-.7.67zm-27.1 3.74c.14.27.34.84.16 1.12-.18.23-.3-.05-.68.1-.15.18-.16.47-.62.42-.4-.32-.12-.58-.16-1.1l.67-.1c-.1-.4.3-.4.63-.44zm13.5-1.81c.02.16.03.32.16.32.1.35-.1.54-.25.72-.13.13-.32.35-.63.3-.32-.48-.34-.65-.18-1.2.32-.2.4-.02.9-.14zm2.74 2.45c.3.14.5.42.57.83-.1.07-.18.14-.2.27-.33.1-.45-.1-.7-.13-.13-.5.12-.72.33-.96zm12.4-.74c.34.26.44 1 .2 1.34-.88.23-1.36-.05-1.4-.94.35-.18.72-.34 1.2-.4zM24.4 70.26c.64.75.18 2.23-.7 1.58-.43-.32-.27-.9.02-1.48l.67-.1zm-15.24 4.1c-.74-.02-.55-.7-.75-1.25.1-.1.3-.1.3-.26.3-.06.38.12.6.14 0 .13.06.2.15.2.05.5-.12.85-.3 1.18zm16.14-2.41c1-.18 1.17 1.32.34 1.54-.87 0-.75-1.16-.33-1.55zm-14.32 5.57c-.42.16-.44-.22-.72-.24-.1-.47.05-.76.2-1.05.84 0 1.14.85.52 1.3zm15.18-2.74l.08.56c-.1.15-.37.18-.65.2-.12-.07-.12-.3-.28-.3 0-.1.1-.12.08-.23-.1-.23.2-.18.18-.36.27-.06.37.13.58.14zm6.6-.03c.4-.02.78.02 1.05.2-.16.57-.08 1.17-.6 1.22-.65.06-.92-.8-.44-1.42zm-.81.69c-.08.68.38 1.64-.4 2-.3.16-.38-.3-.53-.5-.06-.1-.18-.07-.25-.2-.04-.06 0-.15-.03-.22-.07-.16-.14-.14-.05-.33.02-.08 0-.44.13-.6.26-.32.67-.4 1.12-.16zm-.43.97c-.04-.2-.03-.34.04-.45-.1 0-.22.03-.33.04.04.2.12.36.3.4zM12.4 80.39c.5-.17.5.28.85.32.02.3.12.57.1.78 0 .27-.17.37-.13.6-.3.03-.63.12-.8 0-.07-.07-.08-.15-.14-.22 0 0-.14-.13-.13-.1-.05-.12.1-.07.1-.12 0-.12-.13-.08-.13-.1-.02-.2.08-.34.14-.6.05-.18-.02-.44.15-.57z"/><path fill-rule="evenodd" clip-rule="evenodd" fill="#01979D" d="M28.9 56.43c.28.44-.3.4-.4.5-.02.05.07.2.04.23-.03.04-.2 0-.22.03-.06.1 0 .25-.06.34.18.32.66-.12.78-.1 0 0 .04.1.12.1.25-.02.68-.1 1.02-.04.05 0 .02.1.13.1.17-.02.28.17.5.15l.34.06c.04.04 0 .2.03.24.06.03.3.02.35.06.04.03 0 .2.03.22.2.12.2.18.4.4l.27.3c.03.04.12.1.13.1.1.14.07.3.17.43.04.05.1-.03.13.1.03.15.25.2.3.4 0 .1.15.3.27.42l.27.3c.1.12.33.7.5 1.07.23.56.44 1.07.68 1.72.04.1 0 .4.07.45 0 .02.1-.02.1 0 .16.34.12.53.28 1.1.05.18.13.22.17.42 0-.03-.17.1-.1.13.4.24.54 3.26.55 3.8 0 .13.07.3.06.43 0 .15-.06.57-.08.93-.03.35 0 .6-.12.82-.04.1-.1.28-.15.48-.04.1-.02.23-.07.35-.03.08-.15.18-.2.25-.04.12-.13.17-.18.26-.1.16-.14.37-.25.6-.04.07-.1 0-.1.13 0 .1-.28.26-.4.4-.1.1-.22.3-.3.37-.77.05-1.28.17-1.9.16-.58-.02-1.15-.2-1.95-.18-.1-.03-.18-.15-.26-.2-.07-.02 0-.07-.13-.08-.05 0-.15.05-.2.03-.1-.03-.2-.17-.26-.2-.28-.1-.65-.08-1.05-.18-.07-.02-.23-.2-.27-.2-.3-.04-.62-.02-.84-.33-.14-.2-.44-.16-.62-.26-.27-2.52-.9-3.92-1.97-5.86 0-.04 0-.2-.02-.23l-.1.02c-.04-.04 0-.2-.04-.22-.02 0-.1.03-.12 0-.02-.03 0-.2-.03-.2-.16-.1-.24-.5-.45-.74-.05-.05-.1.04-.13-.1-.03-.12-.23-.43-.32-.63-.08-.17-.1-.35-.2-.54 0-.02-.1 0-.12-.1 0-.04 0-.3-.04-.33l-.1.02c-.08-.2.05-.45-.2-.54.04-.3.2-.5.47-.64-.1-.45.15-.9.28-1.3.3-.8 1.15-1.7 1.82-2.4.18-.2.28-.35.5-.53.1-.08.32-.14.63-.3.34-.2.9-.58 1.5-.68.28-.14-.3-.2-.3-.4.1-.18.06-.44.15-.6.2-.3.45-.02.67-.1.15-.05.15-.23.3-.27.1 0 .13.1.24.08zM34 73.2c.06-.08 0-.24.06-.34.16-.25.4-.45.48-.64.13-.3.2-.5.22-.83.02-.22.18-.95.2-1.06.04-.48-.05-.93-.1-1.35 0-.1.1-.15.1-.14 0-.28-.08-.6-.12-.9 0-.02.14 0 .1-.12-.02-.03-.1 0-.13-.1-.13-.52-.14-1-.2-1.44 0-.03-.14.03-.13-.1 0-.03.1-.02.1-.12-.03-.5-.16-.8-.28-1.1-.12-.3-.23-.5-.3-.53-.05-.03.08-.2.08-.24-.02-.08-.12-.06-.13-.08-.14-.38-.2-.65-.25-1-.02-.1-.12-.06-.13-.1-.24-.56-.5-1.45-.7-1.7-.2-.23-.22-.3-.4-.4-.05-.03 0-.2-.04-.23 0-.02-.1.02-.1 0-.05-.02 0-.18-.05-.2-.03-.06-.18-.04-.22-.1-.16-.2-.12-.54-.3-.52-.2.02-.5-.64-.56-.72-.12-.12-.27-.2-.38-.28-.1-.07-.12-.2-.26-.2-.13.02-.06-.07-.13-.1-.62-.2-1.97-.04-2.7.17-.1.03-.12.1-.2.14-.1.03-.25 0-.35.04-.07.04-.14.13-.2.14-.2.04-.26.26-.42.3-.2.03-.25.25-.4.28-.14.02-.05.08-.1.12-.27.2-.4.3-.52.42-.02.02-.1 0-.1 0-.04.05.05.2.02.24-.06.08-.22 0-.2.14.02.28-.45.6-.58.77-.15.2-.57.73-.55.87 0 .16-.2.22-.18.37 0 .1-.08.05-.1.12-.1.28.05.56 0 .8 0 .04-.17.2-.2.24-.04.17 0 .3-.03.47.2.04.2.28.28.4.32.6.6 1.05.9 1.6.13.2.28.36.3.5.03.12.12.07.14.1.2.38.26.83.48.96l.16.3c.12.3.14.32.2.55 0 .1.1.06.1.1.15.27.15.8.27 1 .04.06.2.06.25.18.08.18.14.47.2.65.18.4.33 1.07.52 1.18l.16.32c.05.13.04.14.14.2.15.1-.02.6.1.67.45.14.83.14 1.3.27.2.06.37.17.6.26.12.04.2 0 .34.06.1.04.2.18.26.2.24.05.5-.04.8 0 .02 0 .03.08.12.1.74.06 1.4.05 2.26-.1.18-.2.4-.4.5-.53z"/><path fill-rule="evenodd" clip-rule="evenodd" fill="#01979D" d="M40.92 82.57c-1 .2-1.83.18-2.8.18-.05 0-.22.05-.24.03v-.1c-.1 0-.13.12-.1.12-.1 0-.2-.13-.36-.07-.2.1-.45.3-.6.54-.1.14.02.3-.05.47-.02.03-.2 0-.23.03 0 .02.03.08.02.1-.02.04-.1.12-.1.14-.06.16.02.3-.04.47-.02.05-.2.1-.2.14-.07.2 0 .32-.06.47-.02.06-.08.1-.1.13-.07.2-.12.37-.25.6-.1.23-.37.47-.56.77-.12.18-.14.42-.26.6-.18.28-.46.54-.68.8-.14.13-.3.22-.5.4-.08.05-.14.2-.2.25-.07.06-.14.08-.2.15-.06.04-.08.1-.1.12-.16.12-.4.13-.64.3-.05.04-.17.26-.2.27-.28.1-.67.08-1 .14-.32.06-.24.12-.56.1-.14-.02-.5.07-.78.1 0 0-.03-.13-.12-.1-.03 0 0 .13-.1.13s-.2-.06-.35-.06c-.15 0-.3.07-.45.06-.02 0-.03-.1-.12-.1-.1 0-.25.07-.34.05-.06 0-.2-.18-.25-.2-.2-.03-.32 0-.47-.03-.27-.06-.45-.04-.82-.12 0 0-.02-.08-.1-.1-.23 0-.4.06-.7 0-.07-.02-.2-.2-.25-.2-.2-.04-.3 0-.46-.05l-.6-.14-.35-.07c-.12 0-.08-.08-.13-.1-.17-.03-.3.02-.46-.04-.08-.03-.22-.18-.26-.2-.26-.04-.77 0-.9.03-.42.1-.5.35-.7.67-.04.05-.18.08-.2.14-.04.04.05.2.02.22h-.1c-.03.05.05.2.02.23-.23.26-.45.65-.77 1.02-.2.25-.46.58-.7.67-.55.2-1 .06-1.7.02-.27-.25-.43-.53-.57-.83-.02-.03-.1.02-.13-.1-.03-.13-.02-.3-.06-.43-.05-.2-.16-.36-.18-.55-.1-.74.24-1.48.04-2.05-.1-.3-.3-.43-.54-.6-.18-.15-.38-.5-.73-.35-.32-.03-.35-.43-.74-.36-.15-.02-.2-.16-.37-.17-.1-.02-.2.22-.23.02-.36-.32-.64-.74-1.05-1l-.08-.54c-.14-.15-.34-.2-.5-.27-.1-.05-.12-.13-.25-.18-.35-.15-.67-.54-1.04-.88-.1-.08-.34-.07-.38-.3-.04-.16-.36-.2-.5-.37-.1-.08-.1-.23-.17-.32-.1-.14-.23-.2-.4-.4-.05-.06-.07-.13-.13-.2-.07-.07-.2-.13-.26-.2-.05-.06-.07-.13-.13-.2-.07-.07-.08-.24-.16-.32-.12-.13-.17-.07-.26-.3-.05-.12-.2-.2-.27-.3-.08-.1-.2-.12-.26-.2-.02-.03.02-.2-.02-.22l-.1.03c-.14-.18-.36-.42-.44-.62-.02-.05 0-.17-.03-.22-.03-.05-.2-.04-.23-.08-.05-.07-.08-.47-.2-.54-.1-.06-.08-.08-.14-.2-.04-.13-.22-.06-.25-.2 0-.03 0-.1-.02-.1-.38-.7-.7-1.54-.92-2.5-.1-.48-.13-1.05-.22-1.56-.1-.43-.22-.8-.3-1.2-.02-.18.1-.22.08-.36-.02-.1-.13-.1-.15-.2-.05-.3 0-.68-.14-1 0-.05-.12-.14-.12-.1 0-.1.1-.13.08-.24-.12-1.02-.22-1.7-.16-2.7.02-.24 0-.52.02-.7 0-.03.1 0 .1-.12 0-.1.06-.43.14-.6.06-.12.14-.2.17-.36.02-.04-.06-.2-.03-.22.1-.1.13-.12.2-.25.05-.13.17-.36.25-.6 0-.05-.06-.2-.03-.23.07-.08.3-.13.3-.27-.03-.35.2-.35.37-.62.15-.26.28-.53.45-.75.18-.24.38-.43.6-.65.15-.17.26-.34.48-.53.13-.1.56-.4.7-.67.2-.08.4 0 .67-.1.12-.04.2-.1.54-.18.34-.1.56-.12 1.12-.16.58-.06 1.1-.1 1.68-.14 0 0 .02-.13.1-.13 0 0 .04.1.13.1.14 0 .3-.07.44-.06.03 0 .05.1.14.1.33-.04.5.07.8.1.23.03.3-.04.6.03.04.02 0 .1.1.1.17 0 .28.18.5.16.14 0 .2.2.36.18.1 0 .3.08.47.15.05 0 .32.03.35.06.1.1.1.14.26.2.3.08.5.05.93.08.02 0 .03.1.13.1s.22-.04.34-.05c.26-.08.26-.26.38-.52l.17-.36c.03-.06.08-.1.1-.13.04-.1.17-.33.16-.5l.08-.23c.02-.04.2-.1.2-.14.02-.06-.05-.18-.03-.22.12-.2.38-.33.5-.52.02-.04-.07-.2-.03-.22.14-.16.5-.5.68-.78.05-.1 0-.26.07-.35.13-.2.33-.42.47-.64.2-.3.3-.53.58-.77.04-.05.06-.1.1-.13.06-.06.23-.08.3-.16.04-.03-.05-.2-.02-.22.03-.05.18 0 .22-.04.14-.13.27-.35.5-.52.15-.12.33-.23.5-.4.14-.16.15-.2.42-.3l.32-.16c.06-.1.07-.1.2-.14l.32-.16c.08-.13.35-.17.64-.32.04-.02 0-.1.1-.13.24-.04.37-.24.63-.32.5-.14 1.3-.27 1.9-.27 0 0 .04.1.13.1.3-.02.3.05.57.03.15-.02.24 0 .35.06l.48.16c.1.03.23 0 .35.06.1.03.2.16.26.2.4.16.76.32 1.1.5.2.13.3.26.5.4.2.1.43.13.62.25.4.25.8.46 1 .65.03.04 0 .2.03.23.05.03.22.05.25.1.03.02 0 .18.03.2.04.03.22.06.24.1.1.13.1.3.17.42.03.05.1-.03.12.1.02.1.17.27.3.4.02.05.1.1.12.1.07.1.07.3.17.44.04.04.23.04.25.07.1.18.06.3.17.44l.13.1c.14.25.12.55.24.87 0 .02.1 0 .12.1v.1c.1.13.18.55.35.75.1.1.04.24.2.53 0 .04.1 0 .12.1 0 .07.1.3.16.43.04.1.12.07.13.1.1.25.1.6.23.87 0 .03.1 0 .13.1v.1c.07.1.1.18.17.33.05.1.26.6.37.97.05.18.02.38.08.56.03.1.12.14.15.3.2.9.47 2.27.48 3.35.02.28.03.8.1 1.35 0 .12-.1.1-.1.13 0 .08.17.16.15.32 0 .14-.07.54-.1.92 0 .25.04.6 0 .8 0 .04-.1.02-.1.13.03.2-.07.37-.15.47-.1.13-.13.63-.2.94-.02.06-.1.02-.1.14 0 .1.07.24.05.33-.02.07-.2.2-.2.26-.04.3-.02.6.02.9-.2 0-.1.28-.17.37-.1.1-.07.17-.06.35 0 .04.05.2.03.23-.08.08-.03.2.2.54.2.33.65.7 1.04.98.05.03.2-.06.23-.03.1.1.06.26.16.32.12.08.34.05.47.15.1.1.17.3.28.4.05.07.2.05.24.1.03.03-.02.2.03.22l.1-.02c.03.04 0 .2.04.22 0 0 .1-.02.1 0 .1.18.1.4.22.64.08.2.25.38.3.54.04.2-.02.48-.03.68 0 .3.1.45 0 .7-.1.14-.15.55-.35.83-.13.18-.43.25-.5.52zM18.4 65.77c.4.4.95.73 1.43 1.27.32.36.65.87 1 1.34.08.13.17.18.26.3.13.22.2.44.3.53.24.3.4.66.58.95.14.23.26.33.32.63.02.1.1.07.12.1.23.47.5 1.12.66 1.4v.1c.03.1.12.05.14.1.17.32.14.57.24.87.04.14.14.14.16.32 0 .1-.07.14-.08.24 0 .1.06.23.04.34-.03.27-.2.7-.22.83 0 .15-.05.25-.06.35 0 .07.05.16.03.22-.02.06-.16.2-.2.26-.1.24-.06.35-.13.6-.02.03-.2.08-.2.13-.07.16-.02.3-.06.46-.04.15-.26.4-.03.57 0-.55.44-.74.9-.93.6.34.64.86.7 1.72-.2.2-.45.4-.72.56-.03-.1-.1-.1-.23-.08-.12 0-.55-.53-.53-.5-.08-.17-.1-.3-.18-.42-.04-.08-.02-.23-.14-.2-.07.5-.2.96-.36 1.4.42.24.83.48 1.33.6 0-.22.5-.1.53-.3.08.25.55-.02.8 0 .4-.25.67-.6 1.25-.74-.13-.4.18-.46.1-.8.55-.5.74-1.06 1.43-1.24.47-.12 1.3.06 1.63.23.08.04.17.16.26.2.23.07.48.05.7.12.42.1.85.23 1.2.38.45.2.74.48 1.1.53.14-.28.6-.32.82-.56.44-.07.64-.32 1.08-.4-.1-.33-.4-.43-.46-.83.24-.24.2-.7.7-.77.44-.12.56.2.64.6.48-.05.77-.8 1.02-.84.13-.03.04-.1.1-.14.1-.1.2-.07.3-.15.2-.12.3-.3.4-.4.2-.16.33-.32.52-.4.16-.32-.1-.34.02-.7.32.04.22-.34.27-.48 0-.02.1 0 .1-.02.02 0 .07-.35.07-.35 0-.07-.05-.16-.03-.23.02-.04.2-.1.22-.14.02-.05-.04-.16-.04-.22.02-.2.07-.42.15-.6.15-.3-.05-1.17.14-1.38.02-.02-.03-.18-.03-.22 0-.46-.02-.65-.03-1.02-.12-.22-.62.05-.7-.24-.27-.35-.07-.54-.15-1 .26-.07.4-.24.76-.22-.12-1.15-.4-2.27-.68-3.32-.16-.57-.32-1.47-.58-1.62-.02-.02-.02-.2-.03-.22-.05-.22-.06-.3-.16-.43-.2-.23-.23-.54-.34-.76-.07-.15-.2-.17-.27-.3-.08-.15-.12-.37-.2-.55-.15-.37-.36-1-.48-1.07-.04-.03 0-.2-.03-.23-.05-.06-.2-.12-.26-.2-.07-.1-.1-.22-.16-.3-.03-.06-.08 0-.13-.1-.02-.06 0-.17-.03-.22-.2-.3-.4-.54-.55-.72-.08-.1-.1-.23-.17-.32-.14-.14-.4-.2-.5-.27-.04-.03 0-.2-.03-.22-.07-.06-.27-.02-.35-.07-.1-.07-.13-.27-.27-.3-.36-.32-.85-.47-1.15-.86-.35.13-.8-.25-.95-.32l-.37-.17c-.8-.37-2.12-.57-3.32-.2-.1.02-.12.1-.2.13-.12.02-.06.1-.1.13-.13.06-.4.1-.54.18-.4.2-.87.45-1.05.6l-.22.15c-.2.14-.33.3-.4.4-.02.03-.18 0-.22.03l.02.1c-.02.05-.2 0-.23.04-.13.1-.1.13-.2.25 0 .05-.18 0-.2.04-.06.03-.16.18-.2.24-.2.25-.45.6-.45.86-.4.08-.4.5-.57.77-.3.48-.8 1.03-1.05 1.4-.07.1 0 .25-.07.35-.3.45-.6.7-.73 1.13-.02.06-.1.18-.08.24 0 .18-.23.34-.28.48-.07.15.02.32-.18.36-.34.12-.62.05-.7 0-.06-.08-.28.14-.3.15-.3.1-.37-.03-.57-.04-.42-.04-.67-.05-.93-.1-.12-.02-.3 0-.46-.05-.03 0-.1-.17-.15-.2-.1-.06-.23 0-.34-.06-.1-.04-.18-.14-.27-.2-.07-.03-.2-.16-.25-.18-.15-.05-.44.03-.7-.02v-.1c-.02-.02-.36-.07-.36-.07-.14-.02-.15 0-.23-.08-.04-.04-.2.03-.24.02-.14-.02-.25-.06-.35-.06-.84-.07-2.2.3-3 .3-.23.02-.28-.05-.35.06-.02.04-.18 0-.22.03-.3.17-.63.32-.85.47-.32.2-.57.6-1.03.7.02.42-.37.62-.56.9-.23.3-.36.65-.68.88.06.34.5.52.24.88-.07.56-.66.2-.83.57.03.3-.2.68-.22.83 0 .06.06.15.04.22-.02.1-.18.2-.2.25-.04.34.13.54 0 .7-.03.02.04.17.02.2-.12.58.2 1.9.24 2.48 0 .06-.1.15-.1.13.03.13.13.22.18.43.16.64.15 1.36.27 1.88.05.2.16.37.2.55.05.3-.1.53.1.77.02.17.1 0 .12 0 .15-.03.25 0 .35.05.42 0 .43.58.5 1.07-.13.2-.22.3-.4.4-.1.04-.23.02-.2.14.23.2.24.72.56.83.1.28.1.48.2.64.03.04.2.03.24.08.17.25.15.33.3.4.03.04 0 .2.02.24l.1-.02c.05.02.14.28.17.32.2.22.22.28.4.4.05.02.14.28.17.32.1.1.13.1.25.2.04 0 0 .17.03.2 0 .02.1 0 .1 0 .06.02.15.28.17.3l.27.3c.16.2.5.36.52.5.02.13.1.05.13.1.1.15.08.28.17.43.02.05.2.06.24.1.12.12.15.27.3.4.13.15.34.14.37.3.02.1.2.24.27.3.17.13.43.15.6.25.23.13.33.48.63.37.46-.58 1-.87 1.8-.94.08 0 .12.1.12.1.45 0 .75-.06.9-.02l.12-.02c.12 0 .08.08.13.1.46.12 1.03.1 1.32-.3-.35-.18-.74-.35-1.1-.53-.08-.03-.17-.15-.26-.18-.13-.05-.23 0-.34-.06-.08-.04-.17-.15-.26-.2-.1-.05-.2-.06-.25-.18-.2-.08-.56.04-.7-.13-.16-.12-.23-.14-.38-.3-.1-.1-.18-.28-.28-.4-.34-.02-.68-.3-1-.54-.3-.23-.64-.5-.9-.78-.1-.12-.16-.33-.3-.52l-.1.02c-.05-.03 0-.2-.04-.23-.05-.07-.2-.13-.26-.2-.15-.2-.32-.45-.4-.5-.05-.03 0-.2-.04-.23-.08-.08-.18-.07-.26-.2-.08-.12-.13-.33-.17-.42-.07-.13-.34-.74-.45-.73-.12 0-.07-.03-.12-.1-.27-.32-.4-.66-.5-1.07-.14-.53-.2-1.13-.36-1.76 0 0-.1-.05-.13-.1-.07-.2-.22-1.02-.23-.9 0-.03.12.02.1-.1-.04-.17-.14-.2-.18-.44-.16-.8-.22-1.64-.18-2.03.04-.5.06-.9.16-1.27.03-.14.14-.15.2-.25.05-.14-.02-.3.03-.45.04-.07.18-.18.2-.26.06-.18 0-.3.05-.47.27.03.3-.25.4-.4.1-.17.2-.33.38-.5.36-.34 1.14-.78 1.8-1.06.45-.2.67-.15 1.1-.16.47 0 .75-.04.9 0 .3.07.6.14.73.23.07.06.35-.08.44-.06.13.03.24.37.48.16.4-.06-.1-.8.46-.75.33-.04.45.2.62.37.15.4-.3.57 0 .8.36-.02.55.17.84.22zm1.3 15.5c.13.03.16-.1.2-.14.08-.05.26-.08.33-.15.05-.07 0-.28.06-.36.05-.08.18-.12.3-.15-.1-.44.2-.6.1-1.04.1-.07.22-.15.3-.27.18-.05.56.03.4-.3.14-.1.12-.32.16-.47.15-.62.28-1.22.3-1.87.12-.18.24-.35.4-.5.17-.9 1.03-2.57-.06-3.53-.04-.5-.3-1.02-.5-1.17-.08-.06-.03-.36-.07-.45-.03-.04-.22-.14-.26-.2-.1-.14-.08-.27-.17-.42-.06-.1-.1-.02-.15-.2-.02-.12-.1-.06-.12-.1-.1-.16-.08-.28-.18-.43-.03-.06-.2-.13-.25-.2-.1-.15-.1-.3-.18-.43 0 0-.1-.05-.13-.1-.12-.13-.27-.3-.3-.4-.02-.13-.08-.05-.12-.1-.08-.1-.07-.2-.16-.32-.18-.27-.54-.55-.67-.7-.23-.27-.28-.2-.62-.37-.12-.05-.26-.22-.38-.27-.1-.05-.2-.08-.35-.07-.13.02-.07-.07-.13-.1-.26-.08-.53-.18-.6-.25-.03 0-.18.06-.22.05-.02 0 0-.1-.02-.12-.03-.02-.2.04-.22.04-.16-.04-.23-.03-.46-.05-.1 0-.1-.1-.13-.1-.17-.04-.4.02-.56-.03-.04-.02-.1-.2-.14-.22-.06-.02-.16.04-.22.03l-.58-.02c-.14 0-.26-.07-.35-.06 0 0 .02.13-.1.13-.04 0 0-.12-.12-.1-.16.03-.22.13-.32.16.02 0-.03-.1-.12-.1l.02.13c-.02.02-.2 0-.22.03-.7.28-1.24.8-1.87 1.3.04.14 0 .24-.05.34-.03.07-.16.17-.2.25-.04.12-.02.26-.05.35-.02.05-.08.03-.1.13-.04.18-.03.28-.05.46 0 .08-.1.1-.1.12-.1.47-.15.88-.15 1.27 0 1.2.42 2.85.74 3.64.03.06.02.15.03.22.1.36.17.54.2.65l.2.44c0 .12.1.06.12.1.13.3.07.42.17.54.06.06.12.15.15.2.25.47.47.97.76 1.38.07.1.08.23.16.32.08.08.3.08.37.17.12.13.1.3.18.43.02.03.2.06.24.08.04.03 0 .2.03.23.15.13.43.2.62.35.1.08.18.2.27.3.26.26.4.24.63.37.1.06.17.23.27.3.2.16.48.4.63.48.06.03.17-.05.23-.03.04 0 .1.2.14.2.06.03.16-.04.22-.02.04 0 .1.18.15.2.16.07.32 0 .47.05.05.02.1.18.14.2.14.08.33 0 .48.05.08.03.1.2.25.2.13-.02.06.06.13.1.36.16.84.3 1.18.28.12-.04.1-.2.06-.35zm3.78-3.03c.5.07.25-1.25-.1-.67.33.07.04.48.1.67zm14.04-2c.03.03.1.13.1-.02-.23-.18-.04-.28-.07-.56-.54 0-.1.52-.03.58zm-7.58 1.87c-.02 0 0-.1-.02-.1-.03-.03-.18.04-.22.03-.68-.16-1.12-.44-1.88-.4l-.22.02c-.1.17-.33.33-.5.53-.04.05-.04.18-.08.23-.02.06-.2 0-.22.05-.03.03.05.17.03.22 0 .04-.2.1-.2.14-.1.2-.07.52-.15.6-.02.03.04.18.03.22a.66.66 0 0 1-.16.37c-.03.02.04.28.04.32 0 .1-.1.1-.1.13-.07.53.02.72.15 1 .3.62.57 1.2.72 1.84.65.4 1.56.05 2.26-.1.32-.08.7-.04.9-.14.04 0 .15-.22.2-.25.13-.1.3-.05.42-.17.08-.07 0-.27.06-.35.1-.1.34-.08.44-.17-.02-.37.25-.53.08-1.03.14-.2.28-.53.33-.84.02-.1-.04-.24-.05-.33-.04-.47.18-.73.07-1.15-.6-.3-1.25-.44-1.9-.64zm6.97-1.32c.26.36.4.78.73 1.03.07-.23-.2-.35-.3-.5-.2-.33-.33-.8-.7-.94-.02.2.2.28.28.42zm-1.55 1.02c.16.07.22.28.3.4.15.3.4.6.45.85.02.12.1.06.13.1.1.16.1.44.3.52-.04-.95-.68-1.12-.75-2.05-.04-.12-.15-.15-.25-.2 0 .2-.28.14-.18.38zm1.53.35c-.18-.13-.12-.54-.4-.5.05.2.34.74.4.5zm1.78-.26c.26-.2-.37-.63-.4-.4.24 0 .17.4.4.4zm-4.85 1.03c-.07-.13-.14-.24-.26-.3 0 .14.26.58.27.3zm-10.45 2.4c.05.08 0 .24.04.33.02.04.2.13.25.2.23.3.46.54.7.8.12.15.13.37.38.4-.13-.38-.34-.48-.44-.73-.05-.1-.1-.06-.14-.1-.07-.1-.08-.2-.16-.3-.04-.07-.2-.14-.25-.2-.1-.1-.08-.22-.16-.32-.07-.06-.2-.12-.27-.2-.1-.1-.14-.23-.27-.3-.14.27.2.3.3.43zm14.2-1.7c.46.3-.17-.6-.33-.73.06.3.26.43.33.74zm-12.88 5.38c-.04-.1-.1-.05-.13-.1-.13-.18-.17-.4-.32-.63-.04-.05-.2-.13-.25-.2-.2-.25-.18-.43-.32-.62-.05-.06-.2-.13-.26-.2-.1-.1-.1-.23-.17-.3-.05-.08-.2-.14-.25-.2-.13-.18-.2-.47-.32-.64-.04-.05-.2-.1-.26-.18-.1-.1-.13-.25-.27-.3.2.32.32.73.48.95.06.06.22.12.27.2.13.18.16.4.32.63.03.06.18.1.24.2.08.1.1.22.16.3.04.06.08 0 .13.1.12.3.15.23.28.42.1.1.1.22.17.3.06.08.2.13.26.2.13.2.17.43.32.64.13.2.3.4.52.5-.08-.5-.5-.78-.6-1.06zm-3.7-1.28c.03.02 0 .18.02.22.03.06.2.12.24.2.13.16.18.34.3.5.02.03.1 0 .12 0 .03.02 0 .18.03.22.05.1.24.2.26.3.03.14.32.36.4.4.04.03 0 .2.03.22.05.07.17.12.24.2.15.14.3.34.5.38-.7-1.45-1.85-2.3-2.66-3.6-.04-.08-.1-.12-.24-.08.1.38.58.95.72 1.04zm19.97-2.63c.2-.28-.04-.62-.32-.64.03.32.1.56.32.63zm-21.48 3.28c.06.07.2.12.25.2.07.07 0 .24.06.33.02.05.2.14.26.2.16.2.42.43.52.5.04.02 0 .18.03.22.06.06.18.1.26.2.2.18.37.3.4.5.04.12.1.04.14.1.08.1.07.2.16.3.07.12.2.12.25.2.08.1 0 .34.16.32-.13-.47-.55-1.02-.75-1.26-.07-.08-.26-.2-.28-.3-.02-.14-.32-.36-.4-.4-.03-.02 0-.2-.03-.22-.05-.06-.2-.13-.26-.2l-.14-.2c-.17-.23-.27-.3-.4-.4-.1-.1-.15-.23-.27-.3-.04-.03 0-.2-.03-.22-.07-.07-.25-.06-.26-.2-.12.03-.2-.13-.22.04.3.07.42.48.54.6zm13.5-1.12c-.12-.58-.22-1.15-.55-1.4-.2.58.2 1.1.55 1.4zm4.83-1.94c0 .68.5 0 0 0zm-18.53 4.12c.1.1.13.1.25.2.04 0 0 .17.04.2 0 .02.1-.02.1 0 .04.02 0 .18.04.22.08.1.3.18.38.28.04.05.15.3.16.32.05.25.23.13.28.42.03.12.1.04.13.1.16.2.3.32.4.4.04 0 0 .17.03.2 0 .02.1 0 .1 0 .05.02.02.18.04.22 0 0 .1-.03.12-.02.1.06.06.37.27.3.22-.28-.18-.27-.28-.4-.1-.15-.08-.3-.18-.44l-.1.02c-.04-.03-.02-.2-.04-.23l-.1.02c-.04-.02 0-.2-.04-.22 0-.02-.1.02-.1 0-.05 0-.02-.17-.04-.2 0-.02-.1 0-.1 0-.05-.02-.02-.18-.05-.22l-.1.03c-.05-.03 0-.2-.04-.23-.07-.07-.23-.05-.25-.2-.05-.2-.28-.2-.38-.27-.04-.02 0-.2-.04-.23l-.1.02c-.05-.02 0-.2-.04-.22-.04-.05-.2-.04-.24-.08-.1-.12-.2-.7-.4-.4.16.1.24.36.3.42zm12.4-1.66c.34.23.46.8.8 1.02-.13-.56-.26-1.13-.64-1.38.02.17-.27.12-.17.36zm-5.6 1.48c.1.1.27.13.1-.13-.04-.04-.1-.2-.15-.2-.16-.03 0 .1.02.1.03.06-.02.2.03.23zm-2.5 1.6c-.24 0-.17-.4-.4-.4-.06.32.37.65.4.4zm10.23.03c.7-.2-.02-1.08-.28-1.22.1.38.27.7.28 1.2zm-10.14.64c.08-.04.22-.04.2-.15-.14 0-.12-.2-.25-.2 0 .17-.1.2.06.34zm2.74.06c.03-.04-.13-.18-.14-.2-.14-.24-.36-.43-.24-.1 0 .02.1 0 .1 0 .04.05.2.42.28.3zm1.77.43c.17.24.3.7.76.57-.22-.54-.67-.78-.87-1.35-.17 0-.22-.15-.37-.17.13.3.25.64.47.95zM45.8 92c-.27-.06-.84.25-1.34.2-.5-.06-.85-.52-1.3-1.08-.04-.05-.1.03-.12-.1 0-.05-.1-.14-.14-.2-.16-.26-.36-.66-.6-.94-.07-.08-.18-.35-.3-.63-.03-.04-.12 0-.14-.1-.07-.38-.3-.65-.5-1.07-.38-.86-.5-1.57-.98-2.13-.05-.06-.1.03-.13-.1-.05-.25-.47-.22-.62-.36-.08-.1-.15-.32-.17-.44-.04-.2.2-.43.14-.6.32-.05.85.08 1.27.17.05 0 .02.1.13.1.17-.02.66 0 .93.1.06 0 0 .1.12.08.12 0 .33.18.5.28.2.12.32.28.5.4.14.07.32-.03.47.04.1.04.35.26.5.38.2.14.34.35.55.6.13.16.38.13.3.42.22.17.4.42.64.6.03.38.2.75.4 1.07 0 .03 0 .2.02.2.24.16 0 .1.06.46 0-.02.12.03.13.1.04.16.15.5.12.78 0 .1-.08.12-.07.23 0 .14.1.05.12.1 0 0-.03.38-.05.46-.06.35-.25.66-.43.97zm-1.33-4.47c0 .13.18.04 0 0-.18-.03-.33-.78-.5-.4.12.02.14.17.15.33.16-.02.26.02.35.07zm-.2 2.64l.12-.02c.14.1.06.48.18.54l.1.66c.24 0 0-.4.03-.57-.12-.62-.12-.6-.17-1.24-.2.14-.4-.28-.44.07.24.04.12.4.18.54z"/><path fill="#FFF" d="M81.93 112.9c-1.32.7-1.85 1.87-2.02 3.3-.2 1.67 1.3 2.9 2.67 3.46 1.07.42 2.53-.26 3.04-1.24 1.1-2.05.56-4.16-1.4-5.4-1.22-.76-3.02-.3-3.7.96-.63 1.2-.88 2.36-.5 3.68.63 2.13 3.82 2.8 4.92.65 1.18-2.3.24-5.13-2.4-5.78-1.5-.37-2.83.46-3.32 1.88-.47 1.4-.3 2.6.27 3.9 1.12 2.56 5.03 1.15 5.02-1.35-.02-.86-.08-1.73-.34-2.55-.83-2.64-4.3-2.5-5.2 0-.42 1.22-.44 2.48-.1 3.72.78 2.92 5.35 2.35 5.28-.7-.03-1.34-.3-2.45-.83-3.66-.88-2.04-4.6-1.6-4.9.64-.14 1.03-.22 1.98-.1 3 .18 1.46 1.1 2.7 2.7 2.7 1.4 0 2.75-1.23 2.68-2.7-.04-.74-.15-1.47-.32-2.2-.6-2.47-4.73-2.67-5.2 0-.17 1.02-.17 1.8 0 2.8.53 3.07 5.3 2.25 5.3-.7v-.8c0-3.48-5.4-3.48-5.4 0v.68h5.4c-.03-.48-.08-.94-.22-1.4-.85-2.9-5.3-2.36-5.28.7 0 .64.08 1.26.2 1.88l5.2-1.43c-.13-.54-.24-1.07-.35-1.6l-4.9 2.06.22.45c1.38 2.72 5.87.82 4.92-2.07-.1-.27-.14-.54-.23-.8-.37-1.15-1.34-1.98-2.6-1.98-1.35 0-2.8 1.23-2.67 2.7.12 1.3.48 2.22 1.56 3.04.15.12.3.2.5.3-.64-.74-.83-.92-.58-.58l.53.67c.96 1.2 2.1 2.13 3.73 2.1 3.53-.1 5.56-4.7 4.58-7.75-.86 1.13-1.72 2.27-2.6 3.4-.67-.06.58.1.82.12 1.16.15 2.3-.93 2.6-1.98.4-1.47-.5-2.84-1.9-3.3l-.33-.12-.72 5.28c.3 0 .23 0-.24-.05.4.08-.47-.28-.56-.35.2.2.14.13-.14-.22.12.18.25.63 0-.08l.08.3c.14.6-.05-.64 0-.02l-.03.54c.05-.75.02-.18-.02 0l-.1.36c-.18.6.27-.53 0 .02-.34.66.3-.23-.2.27.34-.24.4-.3.16-.14-.48.3.58-.16.03-.03.74-.17-.12-.17.56-.03-.63-.13.47.28-.17-.05-3.07-1.6-5.8 3.03-2.7 4.63 3.32 1.73 6.66-.06 7.6-3.6.8-3.1-.67-6.9-4.3-6.92-3.13-.02-3.53 4.35-.7 5.3l.33.1.72-5.28c.87.1-.52-.1-.8-.1-1.72-.16-3.1 1.82-2.6 3.4.07.27.08.23.03-.14.02.15.02.3.02.45-.03.3-.03.3 0 0l-.13.5c-.12.3-.12.3-.03.05-.07.15-.15.3-.24.42.18-.23.17-.23-.03-.02.2-.2.47-.33.77-.34 1.12-.03 1.73 1.04.9.18-.22-.23-.42-.46-.62-.7.64.76-.1-.18-.34-.42-.36-.37-.8-.5-1.2-.8l.97.96c.05.2.1.42.13.63-1.76.22-3.52.46-5.28.7.1.27.15.54.24.8l4.9-2.07-.22-.46c-.54-1.06-1.93-1.54-3.04-1.23-1.48.4-2.17 1.87-1.88 3.3.1.54.22 1.08.35 1.6.34 1.44 1.94 2.27 3.3 1.9 1.48-.4 2.2-1.88 1.9-3.32.08.44-.03-.43-.03-.43l-5.28.7.02-.02c.14 3.45 5.37 3.48 5.37 0v-.7c0-3.46-5.37-3.46-5.37 0v.8c1.76-.22 3.52-.46 5.28-.7v.05h-5.2c.07.26.13.52.14.78h5.38c-.06-.5-.16-1.1-.1-1.57-1.63.2-3.27.43-4.9.64.1.26.08.66.08.94l5.28-.7c-.12-.47-.05-.4.12-.87h-5.2c.14.4.15.7.15 1.12l5.02-1.36c.06.7.15.78.27.23l-3.32 1.88c-.9-.5-1.16-1.2-.8-2.1 1.64.2 3.27.42 4.9.64-.18.36-.2.52-.03.46l-3.68.96-.5-1.95c1-.4 2.02-.8 3.03-1.23.07 0 .14.02.2.03l.97.96c.26.76.1 1.46-.52 2.1 3.07-1.62.35-6.26-2.72-4.66z"/><path fill-rule="evenodd" clip-rule="evenodd" fill="#01979D" d="M77.86 113.6c.2 0 .17-.2.23-.3.02-.04.12-.1.15-.15 0-.02-.03-.13 0-.15h.07c.04-.05.03-.17.08-.23.03-.03.12-.04.15-.07.04-.06.02-.17.07-.23.12-.16.47-.42.7-.6.06-.07.06-.1.14-.16.1-.05.12-.14.23-.22.02-.02.12.02.14 0v-.08c.03-.02.13.03.15 0 .1-.1.15-.14.38-.23l.23-.07c.42-.15.86-.26 1.38-.38.6-.15 1.7.08 2.6-.16.13-.04.77-.1 1.2 0 .1.03.36.12.62.16.1 0 .2-.02.3 0 0 0 .04.12.08.07.1-.12.07 0 .15.07.03.02.13-.03.15 0 .05.06.06.05.15.07l.23.08v.08c.14.07.26.08.4.15.06.04.08.1.13.15.02.02.13-.03.15 0 .1.1.22.14.38.23.05.02.1.13.15.15.03.02.14-.02.15 0 .08.1.27.34.46.46l.14.07c.02.04-.02.14 0 .17.12.1.12.13.23.3l.08.08c.08.16.14.36.22.53.1.18.22.34.3.53.07.15.1.3.16.47.04.1 0 .27.08.53.2.77.14 2.4-.07 3.2 0 .02-.07 0-.08.08 0 .2-.08.34-.15.53 0 .04.02.15 0 .16h-.07c-.02.03.02.14 0 .15 0 .02-.08 0-.08 0-.1.24-.13.5-.23.7-.02.04-.07 0-.07.08 0 .1-.15.16-.16.3 0 .1-.15.17-.16.3l-.07.24c-.02.03-.15.05-.15.07-.02.03.02.1 0 .14-.03.03-.15.06-.16.08-.05.1-.05.2-.15.3-.16.2-.38.4-.6.6-.08.1-.24.27-.3.32-.03.02-.14-.03-.16 0-.15.2-.47.3-.76.46-.04.02 0 .07-.07.07h-.07c-.05.02-.06.07-.08.08-.13.05-.38.14-.53.15-.14 0-.3.1-.46.15-.06.02-.16-.02-.23 0-.03.02 0 .07-.07.08-.27.03-.6 0-.92 0-.63-.02-1.4-.08-2.05-.23-.2-.04-.4-.1-.55-.15-.07-.03-.17-.1-.3-.15-.04-.02 0-.08-.08-.08-.03 0-.1-.06-.15-.08-.06-.02-.16-.03-.23-.07-.04-.02-.06-.14-.08-.15-.04-.02-.12.02-.16 0-.06-.05-.07-.1-.15-.16l-.14-.07c-.04-.03-.06-.08-.08-.1-.2-.1-.46-.3-.68-.52l-.23-.23-.38-.46c-.04-.05-.08 0-.1-.08 0-.14-.36-.27-.37-.46 0-.14-.14-.1-.23-.23-.02-.02.03-.13 0-.15h-.08c0-.03.03-.13 0-.15-.1-.1-.12-.14-.22-.3-.03-.05-.07 0-.08-.08 0-.1-.12-.1-.15-.16-.02-.05.02-.12 0-.16l-.3-.53c-.03-.03-.08.02-.08-.07-.02-.2-.18-.26-.24-.45-.05-.14-.04-.4-.08-.6-.02-.14-.08-.08 0-.16l-.07-.16c-.06-.27-.04-1.13 0-1.52.03-.2.08-.5.16-.6.02-.04.05-.22.08-.24.06-.05.05-.06.07-.15.05-.16.26-.4.16-.84zm7.24-2.2c-.34-.4-.88-.17-1.37-.15-.14 0-.33-.07-.46-.08-.1 0-.15.07-.3.08-.43.04-.76.03-1.07.07-.36.06-1.08.22-1.2.4-.04 0-.14-.03-.17 0-.06.03-.05.13-.15.14-.15 0-.18.22-.3.23-.1 0-.04.04-.08.06-.07.04-.16.03-.23.08l-.3.3c0 .1-.05.04-.08.08-.15.2-.35.32-.47.46-.02.02.02.1 0 .15 0 .03-.13.04-.15.08-.1.18 0 .36-.15.46-.07.14-.16.18-.23.38 0 0 .1.1.08.16h-.08c-.05.04-.08.35-.08.38 0 .07-.06.05-.07.07-.04.1-.05.27-.08.38-.05.16-.14.3-.15.4 0 0 .07-.02.08 0 .24.23-.2.23-.08.52 0 .1.13.07.15.15-.12.02-.05.17 0 .23-.06.1-.13.07-.15.23 0 .07.06.1.08.15.02.12-.03.2-.08.24-.05.04.08.1.08.08.04.38.02.53.22.68-.14.14.07.2 0 .46.07.02.15.08.16.15 0 .1.05.05.07.1.06.07 0 .22.08.3.05.04.14-.03.15.07 0 .25.35.46.3.68l.4.3c.04.07 0 .18.06.24.05.05.17 0 .23.07.03.02-.02.12 0 .15l.6.68c.03.03.14-.02.16 0 .06.06.03.17.08.23.03.03.13-.02.16 0 .08.07.13.16.23.23.07.06.08.08.14.15.02.04.13 0 .15 0 0 .02-.02.08 0 .1 0 0 .12-.02.14 0 .02 0 0 .06 0 .07.02.02.13-.02.16 0 .03 0 .04.12.07.15l.23.07c.1 0 .58.26.6.3.03.02.14 0 .16 0 .22.08.56.1.76.15.1.02.1.08.23.08.05 0 .1-.08.08-.08.08 0 .1.07.15.08h.46c.1 0 .08.08.15 0 0-.02.12 0 .14 0 .4 0 .6.14.77-.08.04-.04.1.07.08.08.08 0 .1-.06.15-.08.15-.03.24-.03.4-.08.08-.03.1-.06.2-.07.15 0 .2-.15.32-.15.14 0 .2-.15.3-.16.1 0 .05-.07.08-.08.12-.06.27-.03.38-.08.02 0 0-.06 0-.07.03-.03.14 0 .16 0v-.08c.02-.03.13 0 .16 0 .03-.03.04-.14.07-.16.06-.05.16-.03.22-.08.1-.07.22-.23.3-.3.1-.1.22-.2.3-.3.13-.14.25-.22.32-.3.06-.1.02-.22.07-.32.02-.02.14-.06.16-.07.03-.02 0-.13 0-.15.02-.03.14-.07.16-.08.02-.02-.02-.13 0-.15.1-.2.3-.64.3-.78 0-.08.06-.04.08-.07.08-.2.14-.38.15-.53 0-.07.07-.07.07-.08.03-.12 0-.26 0-.38.02-.14.07-.17.08-.3 0-.06-.1 0 0-.08.06-.05 0-.48 0-.54 0-.3.04-.23 0-.38-.05-.17 0-1.38-.08-1.3.1-.08.02-.02 0-.15-.07-.48-.08-.86-.15-1.13 0 0-.06-.02-.07-.07l-.08-.3c-.02-.08.02-.17 0-.24-.2-.05-.2-.3-.3-.3-.14 0 0-.1 0-.16 0 .05-.1-.08-.08-.07-.06-.06-.2-.13-.3-.23l-.3-.3c-.03-.02 0-.07 0-.08-.03-.02-.13 0-.16 0-.04-.02-.1-.12-.16-.15-.12-.1-.2-.24-.3-.3 0-.02-.06 0-.08 0-.08 0-.03-.06-.07-.08-.08-.06-.15-.04-.23-.1-.05-.02-.1-.1-.15-.14-.2-.13-.44-.16-.62-.23-.17-.06-.32-.13-.46-.15-.27-.05-.72.02-.9-.08-.08.13-.18.23-.32.3z"/><path fill-rule="evenodd" clip-rule="evenodd" fill="#01979D" d="M85.94 113.7c.54-.1 1.07-.48 1.6-.32-.06.15-.13.28-.15.46-.46-.04-.7.12-1 .23.05.35.4.27.23.68-.44.06-.48-.28-.7-.45-.22-.1-.22.14-.37.15-.23 0-.28.36-.6.15-.05-.44.42-.38.52-.68-.1-.24-.43-.23-.53-.46-.04-.17.15-.1.15-.23.37.07.57.3.84.46z"/><path fill="#FFF" d="M180.76 106.93c-.62 1.32-1.03 2.64-1.33 4.06l5.9.8c.02-.55-.05-.22.16-.75l-5.8-1.6c-.28 1.1-.5 2.23-.78 3.34-.77 3.2 4.02 5.52 5.5 2.3.7-1.5 1.12-2.92 1.18-4.6.1-2.92-4.25-4.18-5.6-1.5.05-.12-.6 1.04-.3.67l5.02 2.93c.26-1.2.3-2.4.5-3.6l-5.9-.8c0-.26-.04-.22-.1.14l-.15 1.14h6.02v-1.03c0-1.33-.93-2.54-2.22-2.9-1.7-.47-3.1.58-3.7 2.1-.2.5-.3 1.04-.52 1.55l5.9.8c.02-.7 0-1.35.16-2.03.35-1.6-.46-3.25-2.1-3.7-1.52-.42-3.34.5-3.7 2.1-.2.85-.28 1.73-.5 2.57-1.07 3.75 4.63 5.28 5.8 1.6.28-.93.52-1.88.76-2.83-1.93-.52-3.87-1.05-5.8-1.6l-.77 3.87c-.62 3.12 2.68 4.77 5.03 2.93 1.22-.96.98-2.4.78-3.7-.4-2.54-4.42-2.97-5.5-.72-.23.5-.88 1.13.06.46l4.53 2.6c-.03.3-.74.98-.23.46.3-.3.6-.57.88-.9 1.04-1.27 1.24-3.02 0-4.26-1.08-1.07-3.2-1.26-4.26 0-.4.46-.86.83-1.23 1.3-.83 1.05-1.13 2.07-1.2 3.4-.12 2.17 2.7 3.9 4.53 2.6 1-.72 1.58-1.53 2.1-2.62l-5.5-.72c.05.34.05.3 0-.1l.9-2.14c-.05.03-.1.05-.12.08l5.03 2.93.78-3.86c.32-1.6-.44-3.23-2.1-3.7-1.56-.4-3.3.53-3.7 2.12-.24.94-.48 1.9-.78 2.82l5.8 1.6c.24-.84.33-1.7.52-2.57l-5.8-1.6c-.27 1.2-.36 2.4-.37 3.63 0 1.34.92 2.55 2.2 2.9 1.73.47 3.1-.58 3.7-2.1.2-.5.33-1.04.53-1.54l-5.9-.8v1.02c0 1.64 1.36 3 3 3 1.78 0 2.82-1.37 3-3 .02.26.05.22.1-.14.07-.38.12-.76.16-1.14.4-3.37-5.33-4.13-5.9-.8-.22 1.2-.27 2.42-.52 3.6-.3 1.33.17 2.7 1.38 3.4 1.07.62 2.8.56 3.65-.48.5-.6.9-1.2 1.24-1.9l-5.62-1.5c-.02.54-.12 1.05-.36 1.56l5.5 2.3c.27-1.1.5-2.22.77-3.33.38-1.6-.5-3.26-2.1-3.7-1.7-.47-3.12.58-3.7 2.1-.3.75-.37 1.55-.38 2.35-.03 3.34 5.2 4.17 5.9.8.2-.88.36-1.8.74-2.63.7-1.48.43-3.23-1.08-4.1-1.32-.8-3.42-.42-4.12 1.06z"/><path fill="#FFF" d="M191.53 106.36c.05-.26.27-.7-.1.04.27-.54-.47.5-.04.1-.57.53-.3.2-.07.07.72-.4-.4.13.1-.05.7-.24 1.43-.37 2.1-.63 1.54-.6 2.58-2.02 2.1-3.7-.4-1.48-2.15-2.7-3.7-2.1-1.1.4-2.22.66-3.3 1.12-1.43.6-2.63 2.02-2.9 3.54-.3 1.62.4 3.24 2.1 3.7 1.47.4 3.4-.48 3.7-2.1z"/><path fill="#FFF" d="M187.27 103.12c-.02-.35 0-.7.05-1.05.3-.6.26-.74-.12-.4.87-2.38.7-3.22-.48-2.53-.42.14-.82.33-1.2.58-1.6.92-2.57 2.7-3 4.42-.86 3.5.64 7.82 3.4 10.07 7.3 5.94 14.6-4.82 8.8-10.9-.9-.97-2.5-1.18-3.64-.48-3.48 2.14-5.12 6.57-2.15 9.86 2.6 2.9 6.85-1.38 4.26-4.25.35.4.44-.12.92-.42-1.22-.14-2.43-.3-3.65-.46 1.1 1.16.2 3.53-1.27 1.43-.75-1.08-1.06-2.5-.74-3.76.23-.94 2.28-1.28 2.93-2.12 2.78-3.6-.42-7.13-4.2-7.43-4.17-.34-5.9 4.1-5.95 7.47-.04 3.88 5.98 3.88 6.02 0z"/><path fill-rule="evenodd" clip-rule="evenodd" fill="#01979D" stroke="#01979D" stroke-width=".36" stroke-miterlimit="10" d="M201.67 105.9c.06.32.23.66.26 1.06.02.26.2.5.26.75.04.22.04.46.15.65.23.4.32.87.53 1.3.2.4.2.88.23 1.33.05.74-.04 1.46-.2 2.18-.15.62-.24 1.25-.33 1.88-.1.73-.18 1.5-.5 2.17-.2.4-.4.76-.63 1.12-.38.55-.94.85-1.43 1.24-.43.35-.9.65-1.33 1-.33.3-.73.5-1.1.7-.48.26-.98.43-1.47.63-.64.26-1.32.27-2 .27-1.3 0-2.63-.02-3.94-.06-.27 0-.54.07-.8.07-.45 0-.9 0-1.34-.03-.28-.03-.56-.07-.83-.12-.36-.07-.7-.2-1-.33-.42-.2-.85-.36-1.27-.53-.02 0-.05 0-.07-.02-.63-.37-1.38-.52-2-.93-.22-.15-.46-.28-.74-.35-.16-.05-.33-.15-.47-.28-.15-.15-.33-.26-.52-.3-.3-.04-.52-.2-.75-.33-.4-.23-.84-.3-1.3-.23-.24.04-.47.1-.7.13-.28.05-.58 0-.75-.26-.33-.47-.67-.96-.82-1.54-.03-.15-.08-.3.12-.38.03 0 .06-.04.08-.07.26-.57.7-1.06.94-1.65.14-.35.1-.73.16-1.1.1-.6-.12-1.23-.1-1.84.04-.6 0-1.2.03-1.82.02-.37-.02-.76.08-1.13.15-.45.1-.94.28-1.4.2-.53.3-1.1.6-1.6.24-.43.4-.9.58-1.35l.32-.7c.15-.36.33-.72.5-1.07.25-.46.54-.9.83-1.3.34-.48.75-.88 1.03-1.36.4-.66.96-1.2 1.37-1.85.17-.27.37-.5.6-.7.28-.23.4-.57.7-.76.33-.22.57-.55.92-.74.33-.2.62-.42.92-.66.3-.24.7-.34 1.08-.4.05 0 .1.03.14 0 1.02-.38 1.87-.3 2.8-.1.76.17 1.48.44 2.15.84.6.35 1.18.73 1.7 1.16.6.48 1.12 1.06 1.7 1.55.26.23.5.46.75.66.45.33.8.75 1.2 1.13.44.42.83.92 1.2 1.4.3.4.65.75.9 1.17.18.3.35.6.46.9.03.06.03.12.06.16.4.55.6 1.18.8 1.88zM195 117.8c.02.05.05.07.1.05 0 .05.04.07.1.05 0 .05.04.07.1.05 0 .05.03.06.08.05 0 .05.04.06.1.05l.03.05.03-.04h-.06c-.02-.06-.05-.07-.1-.05 0-.06-.04-.08-.1-.06 0-.05-.03-.07-.08-.05-.03-.06-.06-.08-.1-.06-.02-.06-.05-.07-.1-.05 0-.07-.04-.08-.1-.06 0-.06-.04-.07-.1-.05 0-.06-.03-.08-.08-.06 0-.06-.04-.07-.1-.05 0-.06-.04-.08-.1-.06-.18-.32-.48-.57-.76-.8-.48-.4-.98-.76-1.45-1.17a.77.77 0 0 0-.27-.17c-.37-.12-.63-.4-.92-.64-.14-.13-.3-.3-.54-.23l-.03-.04s-.02 0-.02.02h.07c0 .07.04.1.1.16.26.26.6.42.9.66l.9.76c.6.5 1.25.93 1.9 1.38.04.03.1.07.16.05.02.05.05.07.1.05 0 .05.04.07.1.05 0 .05.04.07.1.05 0 .05.03.07.08.05.03.05.06.07.1.05zm-.63-20.44c0 .05 0 .1.06.12l.03-.04c0-.06-.04-.08-.1-.07-.83-.76-1.8-1.3-2.85-1.72-.17-.07-.4-.23-.63-.08.1.2.33.22.48.34.36.25.7.55 1.1.7.33.14.64.28.93.45.26.15.56.15.8.3.07.05.13.03.2 0zm2.6 2.35l-.05-.06s0 .02-.02.03h.06c.1.32.35.52.55.76.26.3.6.55.78.88.36.7.9 1.27 1.12 2.03 0 .03.03.07.05.1.3.34.45.76.64 1.16.14.3.3.6.43.92.2.53.34 1.07.56 1.6.2.53.34 1.1.58 1.62.06.15 0 .34.1.45.15.2.18.43.2.64.06.84.12 1.67.12 2.52 0 .74-.05 1.48-.23 2.2-.03.14-.08.28-.06.4.05.5-.14.94-.23 1.4-.07.36-.24.7-.4 1.03-.1.15-.18.32-.23.5-.02.08-.02.16.04.2.1.05.15 0 .22-.08.28-.35.48-.74.64-1.16.18-.5.26-1.02.36-1.53.08-.4.07-.83.14-1.23.13-.7.33-1.36.42-2.05.15-1.06-.06-2.06-.45-3.03-.12-.34-.27-.67-.38-1.03-.27-.9-.4-1.82-.73-2.7l-.15-.33c-.14-.36-.36-.66-.52-1-.2-.5-.45-.94-.8-1.32-.5-.6-.98-1.24-1.53-1.8-.35-.38-.75-.7-1.08-1.1-.04-.05-.1-.08-.16-.06zm-11 .62c.02.1.12.23-.08.28-.1.02-.1.1-.1.18.04.7 0 1.44.18 2.14.02.07 0 .15 0 .22a.46.46 0 0 0 0 .26l.17 1.27c.08.75.25 1.47.42 2.2.03.17.18.27.2.43.07.33.23.62.36.92l.6 1.4c.14.37.25.76.4 1.14.25.6.5 1.17.86 1.7.24.38.46.78.82 1.07.4.3.74.68 1.22.87.16.07.32.15.42.3.12.17.3.25.46.35.24.14.52.2.7.4.17.18.4.3.58.45.16.16.35.3.53.43.18.14.28.34.45.47.37.28.75.52 1.13.76.42.25.86.45 1.28.68.2.12.43.18.66.24.5.12 1 .18 1.5.3.27.06.57.1.84-.05.45-.23.86-.5 1.1-.98.25-.5.4-1.02.6-1.54.08-.24.2-.5.2-.77 0-.34 0-.7.1-1 .14-.54.14-1.08.2-1.6.05-.67-.06-1.34-.05-2 0-.6-.13-1.17-.32-1.73-.23-.7-.37-1.4-.7-2.08-.18-.4-.26-.88-.45-1.3-.16-.37-.25-.77-.46-1.1-.4-.62-.67-1.3-1.04-1.9-.06-.1-.14-.17-.17-.3-.1-.3-.3-.56-.48-.84-.15-.27-.42-.45-.6-.7-.3-.43-.72-.77-1.08-1.16-.1-.1-.18-.23-.3-.33-.5-.5-1-.96-1.53-1.42-.27-.25-.58-.4-.95-.44.2.2.45.33.67.5.44.36.76.82 1.04 1.3.13.22.2.45.38.64.13.13.16.32.16.5v.9c0 .1 0 .17-.02.27-.22.67-.3 1.35-.37 2.04-.04.48-.04.97-.15 1.45-.03.14-.05.3-.2.3-.13 0-.24-.12-.32-.24 0 0 0-.03-.02-.05l-.3-.6c-.3-.54-.63-1.07-.78-1.7-.03-.1-.1-.2-.14-.3-.14-.37-.38-.7-.53-1.08-.1-.2-.16-.44-.3-.63-.33-.45-.5-1-.8-1.46-.25-.4-.46-.84-.74-1.22-.32-.45-.56-.95-.86-1.42-.12-.2-.1-.4.08-.67.04.64.4 1.07.7 1.53.28.4.55.8.8 1.2.17.23.33.48.45.74.27.62.62 1.2.93 1.8.17.33.36.66.5 1 .1.32.22.62.35.9.26.6.58 1.2.88 1.8.18-.26.2-.55.2-.82 0-.58.02-1.16.2-1.7.15-.52.18-1.04.28-1.55.07-.33.05-.67-.13-.94-.34-.53-.72-1.04-1.1-1.54-.3-.35-.73-.44-1.04-.72-.24-.23-.6-.3-.83-.5-.26-.24-.58-.33-.9-.45-.2-.1-.4-.26-.64-.34.08-.2.25-.02.35-.17-.36-.22-.67-.52-1.1-.65-.28-.1-.55-.1-.83-.07-.47.03-.96-.06-1.42.16-.04.02-.1.03-.14.03-.24-.02-.38.12-.45.34-.03.1-.08.2-.14.28-.26.38-.6.7-.8 1.14-.12.26-.14.55-.27.8-.34.64-.4 1.33-.37 2.05l.12-.08zm-.48-3.22c-.74.35-1.2.93-1.62 1.5-.23.3-.43.64-.7.93-.24.28-.4.64-.7.88 0 .35-.43.52-.37.9.02.08-.06.12-.13.16-.7.48-1.03 1.24-1.4 1.94-.23.4-.4.8-.58 1.23-.25.58-.54 1.14-.8 1.72-.1.28-.16.6-.28.87-.27.63-.43 1.3-.5 1.97-.04.25 0 .5 0 .76v2.27c0 .3.12.62.08.94-.04.33-.03.65-.03.98 0 .47-.17.9-.4 1.27-.2.34-.37.7-.57 1.03-.2.35-.07.75-.14 1.1 0 .03.02.06.04.07.14.2.23.4.37.6.16.2.32.34.6.3.26 0 .53.02.76-.1.38-.15.76 0 1.13.02.08 0 .17.06.23.12.32.3.76.4 1.13.6.32.2.67.33 1 .47.2.08.35.24.54.34.34.2.7.3 1.07.46.3.12.6.2.88.35.2.1.38.2.6.26.22.08.45.18.67.3.32.16.66.28 1.03.34.6.08 1.22.1 1.83.14.7.04 1.4-.07 2.12-.02.58.04 1.17 0 1.75.03.6.03 1.17-.02 1.76 0h.24c.7-.24 1.45-.4 2.1-.75.7-.4 1.4-.83 2-1.36.04-.05.1-.08.05-.15-.48-.1-.96-.1-1.42-.3-.4-.18-.8-.33-1.23-.38-.2-.03-.43-.08-.64-.14-.28-.08-.58-.15-.8-.33-.3-.23-.63-.4-.95-.58-.64-.37-1.22-.82-1.82-1.26-.46-.34-.9-.73-1.34-1.08-.48-.37-.97-.72-1.4-1.13l-.98-.95-.26-.25c-.62-.7-1.06-1.5-1.5-2.33-.17-.33-.34-.67-.5-1.02-.18-.42-.33-.85-.4-1.3-.17-1.07-.35-2.13-.7-3.16-.14-.43-.27-.84-.38-1.26-.12-.44-.17-.9-.2-1.34 0-.48.03-.96.02-1.43-.02-.43.05-.85.12-1.27.12-.7.14-1.4.33-2.1.07-.3.22-.55.24-.9zm3.38 15.9c.05-.1.02-.16-.02-.22-.14-.28-.28-.55-.44-.8-.36-.57-.6-1.18-.8-1.8-.2-.57-.4-1.1-.62-1.65-.2-.5-.44-.96-.6-1.47-.13-.5-.34-.98-.37-1.5-.02-.25 0-.5-.07-.73-.13-.48-.14-.98-.16-1.46-.04-.56-.17-1.1-.1-1.67-.22-.53-.06-1.06-.05-1.58 0-.12-.05-.23 0-.37.14-.37.1-.78.27-1.16.16-.4.28-.84.42-1.26 0-.04.04-.1.08-.12.38-.27.43-.74.67-1.1.02-.05 0-.1-.03-.14-.05-.07-.13-.05-.17 0-.2.17-.46.26-.6.45-.3.32-.52.7-.62 1.12-.15.63-.32 1.25-.36 1.9 0 .1-.1.14-.08.26.08.32 0 .64-.03.96 0 .24-.17.47-.12.73.07.32.03.65.03.98 0 .62.1 1.22.27 1.8.14.56.32 1.1.5 1.63.1.36.15.73.25 1.1.08.3.14.6.17.9.06.65.22 1.26.5 1.86.26.6.63 1.13.9 1.72.14.35.4.64.57.97.14.25.35.48.6.66zm10.96 6.08c.53-.1 1.05-.55 1.04-.9-.37.26-.65.6-1.04.9zM195 97.92s-.03 0-.04-.02c0 .02-.02.05 0 .07l.04.02v-.08zm-.13-.18l-.04-.04-.02.06.05.05.03-.06zm1.9 1.78v.03h.03c.02 0 .02-.02 0-.03h-.02z"/><path fill-rule="evenodd" clip-rule="evenodd" fill="#01979D" stroke="#01979D" stroke-width=".36" stroke-miterlimit="10" d="M192.86 105.16c-.1-.28-.35-.46-.6-.63-.15-.12-.28-.26-.4-.42-.2-.27-.43-.5-.74-.7-.25-.14-.47-.37-.7-.58-.03-.04-.06-.1-.1-.13-.6-.43-1.13-.96-1.78-1.3-.2-.12-.38-.25-.53-.4-.14-.17-.32-.3-.5-.42-.27-.16-.45-.4-.68-.6-.06-.06-.1-.13-.2-.05-.14.08-.23 0-.24-.14 0-.55 0-1.08.26-1.58.17-.32.32-.65.47-.98.12-.23.3-.42.47-.58.23-.22.46-.46.76-.6.05-.03.08-.08.12-.1.34-.03.68-.1 1 .03.1.02.2.06.25.16.22.43.46.83.7 1.24.3.5.53 1.06.76 1.6.3.7.8 1.28 1.13 1.95.24.5.54.95.8 1.44.4.7.73 1.47 1.22 2.15.24.32.33.72.2 1.12-.13.35-.3.4-.57.14-.26-.24-.57-.43-.92-.55h.02c-.02-.04-.06-.05-.1-.05 0-.03-.05-.05-.1-.04zm-6.2-5.85c.1.27.23.47.4.66.28.34.7.53 1.05.8.17.1.3.3.5.38.6.3 1.04.8 1.6 1.15.38.24.67.6 1.03.88.26.2.54.36.72.62.2.3.5.5.77.72.17.15.28.35.5.45.28.13.52.35.8.5.18.1.23.1.26-.1.05-.3-.18-.82-.4-.96-.07-.02-.17 0-.2-.1-.03-.2-.2-.32-.24-.53-.04-.17-.12-.34-.2-.5-.14-.33-.34-.63-.48-.96-.14-.3-.32-.6-.5-.88-.2-.3-.45-.6-.58-.93-.12-.35-.5-.55-.48-.96 0-.02-.06-.05-.08-.08-.16-.28-.36-.55-.47-.85-.3-.77-.7-1.5-1.1-2.2-.07-.15-.18-.18-.3-.18-.46 0-.9.08-1.26.4-.27.23-.42.53-.6.8-.3.43-.54.88-.7 1.37-.05.15-.1.34-.03.5zm8.24 9.24c.08.3.06.62-.02.93-.12.52-.3 1.02-.5 1.53-.18.56-.3 1.13-.46 1.7-.14.46-.34.9-.46 1.38-.1.34-.04.66.07.98.06.14.2.24.3.25.2.04.34.18.5.3l.15.1c.5.15.88.48 1.3.77.36.26.75.5 1.2.54.13.03.25.04.36.1.34.13.63-.02.9-.18.14-.08.23-.22.2-.43 0-.43-.1-.82-.2-1.2-.13-.46-.3-.9-.36-1.37-.03-.25-.18-.5-.3-.7-.17-.3-.25-.6-.38-.9-.2-.4-.48-.73-.66-1.13-.02-.04-.06-.08-.07-.13-.12-.62-.54-1.1-.76-1.67-.08-.24-.33-.37-.44-.6l-.07-.14c-.23-.37-.23-.37-.66-.3 0-.18.07-.28.23-.35.2-.06.3.05.38.16.5.62.94 1.27 1.26 2 .14.3.33.58.33.93 0 .05.08.1.13.17.35.44.6.94.8 1.47.08.2.2.38.28.56.16.3.25.63.3.98.04.32.18.63.27.94.13.45.2.92.27 1.38a.47.47 0 0 1-.14.4c-.2.2-.4.47-.78.48-.3.02-.6-.04-.9-.1a4.84 4.84 0 0 1-1.2-.5c-.13-.07-.26-.15-.38-.26-.17-.15-.35-.28-.57-.38-.6-.26-1.18-.56-1.56-1.13-.06-.08-.07-.15-.08-.25-.05-.54.08-1.05.27-1.54.3-.76.47-1.56.73-2.33.1-.3.23-.57.3-.87.12-.43.25-.86.22-1.32-.02-.14.04-.22.2-.23zm.42-1.27c-.07-.22-.02-.35.16-.4.52-.2 1.03-.3 1.57-.06.5.22 1 .28 1.54.2.38-.07.8-.05 1.2-.04.2 0 .37.12.52.33.37.53.5 1.1.56 1.7.04.36.17.7.2 1.05 0 .17.02.34 0 .5-.04.2-.05.42-.03.63.05.6-.1 1.17-.22 1.74-.17.75-.37 1.5-.57 2.23-.04.18-.08.36-.14.53-.1.24-.33.27-.52.08-.2-.2-.33-.42-.42-.68-.15-.48-.26-.97-.42-1.44-.14-.44-.26-.9-.47-1.3-.16-.3-.3-.6-.4-.92-.07-.2-.16-.36-.27-.52-.44-.72-.88-1.44-1.34-2.14-.2-.3-.32-.6-.5-.9-.1-.17-.12-.38.06-.64.02.26.08.42.23.53.03.03.06.08.07.12.27.7.67 1.32 1.1 1.9.15.2.35.37.32.64 0 .03 0 .06.03.07.38.22.38.67.58 1 .05.05.04.13.08.17.26.26.3.6.44.93.27.67.4 1.4.63 2.08.05.16.08.34.18.5l.3.44c.14-.2.24-.4.28-.6.18-.96.44-1.9.67-2.82.05-.2.06-.4.07-.58.03-.4 0-.8.06-1.17.05-.3-.02-.54-.1-.8-.1-.3-.13-.6-.17-.9-.05-.44-.15-.86-.4-1.22-.18-.2-.43-.28-.7-.26-.48.05-.97.06-1.45.12-.22.03-.44-.04-.65-.1-.28-.1-.57-.2-.85-.25-.42-.07-.85 0-1.26.28z"/><path fill-rule="evenodd" clip-rule="evenodd" fill="#01979D" stroke="#01979D" stroke-width=".36" stroke-miterlimit="10" d="M193.03 105.25c.03.05.04.1.07.13.4.33.38.8.43 1.23.02.17-.06.23-.2.28-.22.1-.43.15-.7.06-.47-.16-.96 0-1.43.08-.05 0-.1.05-.12.08-.14.13-.3.15-.47.15-.4 0-.8.18-1.2.07-.04-.02-.1 0-.14.03-.25.3-.6.16-.9.2-.14 0-.28-.06-.4-.07-.36-.04-.6-.2-.66-.58-.03-.25-.24-.43-.3-.68-.07-.43-.22-.85-.24-1.3a.67.67 0 0 0-.12-.35c-.14-.2-.2-.42-.2-.66 0-.12-.05-.23-.1-.35-.15-.48-.17-.96-.08-1.45.03-.2-.1-.4-.1-.6 0-.2 0-.38-.05-.56-.04-.18.02-.36.15-.5.1-.1.24-.17.4-.1.34.17.7.3.94.6.1.13.3.17.43.28.33.28.68.53 1.03.77.28.17.5.42.7.7.2.28.48.46.76.66.38.25.7.56 1.05.85.36.32.75.6 1.12.9.04.04.1.08.16.06h-.02c.02.04.06.06.1.05.02.05.06.07.1.06zm-6.58-4.63c-.05.12-.06.23-.05.34.02.45.07.9.03 1.35-.04.42.03.8.13 1.2.1.38.18.78.34 1.15.13.3.16.64.23.97.1.45.26.9.48 1.32.1.2.7.47.78.33.2-.32.52-.23.75-.2.48.04.93-.05 1.38-.1.2-.02.38-.07.53-.2a.75.75 0 0 1 .2-.1c.46-.02.92-.12 1.4-.03.15.04.32.06.5 0 .1-.03.22-.1.18-.23-.08-.32-.12-.7-.48-.9-.46-.27-.82-.7-1.27-1-.33-.2-.57-.52-.9-.75-.25-.2-.56-.35-.74-.63-.2-.3-.46-.56-.72-.8-.57-.53-1.27-.87-1.86-1.38-.22-.2-.5-.36-.87-.32zm1.82 7.71c.06-.27.26-.34.44-.4.7-.24 1.42-.37 2.15-.4.2 0 .4.03.58.02.7 0 1.34-.2 1.96-.5.36-.17.7.04.74.47.08.7-.05 1.36-.2 2.04-.1.57-.36 1.1-.47 1.7-.15.76-.37 1.53-.44 2.3-.04.4-.36.55-.6.77-.08.1-.2-.02-.28-.1-.22-.2-.48-.3-.72-.45-.26-.15-.5-.32-.7-.55-.3-.4-.6-.8-.8-1.3a3 3 0 0 0-.43-.7c-.34-.44-.63-.92-.97-1.37-.26-.34-.46-.74-.65-1.13-.06-.12-.04-.3-.03-.43 0-.05.07-.05.16-.05.06.42.37.73.5 1.12.04.07.1.12.13.18.3.4.56.83.86 1.23.44.6.75 1.3 1.2 1.92.28.4.6.74 1.05.94.22.1.38.32.66.4.35-.3.53-.7.48-1.17-.02-.1.05-.2.06-.28.06-.4.14-.78.3-1.15.1-.2.08-.42.12-.63.1-.53.32-1.02.4-1.55.1-.58.2-1.16.2-1.75 0-.17-.1-.24-.27-.2-.15.03-.3.05-.4.13-.24.16-.5.16-.76.23-.5.14-1 .12-1.5.1-.55 0-1.1 0-1.63.22-.07.03-.17.08-.27.05s-.2 0-.25.05c-.15.2-.38.17-.6.23zm10.6-2.45c-.07.02-.15.08-.22.06-.33-.1-.63.05-.93.15-.1.02-.2 0-.3 0-.17 0-.34.02-.5.07-.4.13-.8.17-1.23.1-.36-.05-.48-.26-.33-.6.32-.77.62-1.55.83-2.37.1-.42.15-.86.2-1.28.05-.23.12-.43.22-.62.12-.2.22-.23.4-.1.2.2.42.36.55.62.16.3.36.58.62.82.17.16.3.38.43.58l.7 1.1c.14.22.2.46.15.72-.04.26-.22.45-.38.65-.05.05-.15.06-.23.1v-.02zm-3.14.05c.17.13.36.07.53.07.45 0 .84-.3 1.3-.25.04 0 .08 0 .1-.03.35-.14.7-.17 1.06-.14.1 0 .2 0 .3-.05.2-.14.3-.65.15-.87-.24-.4-.48-.8-.73-1.18-.1-.16-.2-.34-.35-.47-.27-.22-.5-.48-.64-.78-.14-.3-.37-.46-.6-.63-.1.02-.1.08-.13.14-.15.63-.27 1.26-.38 1.9-.06.35-.1.72-.2 1.07-.15.4-.28.82-.42 1.23z"/><g><path fill="#FFF" d="M116.94 138.04c-1.44 2.95.72 6.25 4.1 5.44 1.06-.25 2.13-1.46 1.98-2.6-.27-2.16-1.66-4-4.07-3.8-1.32.1-2.88 1.14-2.7 2.68.22 1.67.73 2.73 2.1 3.76.74.56 1.96.44 2.7 0 1.13-.66 1.45-1.83 1.25-3.04-.37-2.24-2.9-3.72-5.03-2.9-1.35.52-2.33 1.8-1.88 3.3.37 1.33 1.1 2.42 2.3 3.1 2.2 1.25 5.34-1.4 3.68-3.67-.68-.92-1.3-1.63-2.23-2.3-1.97-1.48-4.54.93-3.95 3.03.34 1.2.95 2.32 1.94 3.1.96.78 2.13 1.1 3.26.43 1.15-.67 1.85-2.5.96-3.68-.77-1.02-1.55-1.9-2.68-2.56-2.4-1.4-4.92 1.35-3.68 3.68.48.9 1.1 1.68 1.77 2.4 1 1.1 2.8 1 3.8 0 1.13-1.1.9-2.65 0-3.8-.32-.4-.67-.73-1.06-1.07-2.34-2-5.56.47-4.2 3.26.3.62.7 1.17 1.22 1.65 2.12 2.06 6.06-.7 4.22-3.26-.16-.22-.3-.44-.47-.66-1.55.9-3.1 1.8-4.65 2.72l.4.56c1.4-1.1 2.82-2.18 4.23-3.26-.13-.2-.3-.37-.5-.5-.96-.75-2.1-1.08-3.25-.42-1.17.7-1.83 2.5-.97 3.68.37.5.73 1 1.2 1.4l3.8-3.8c-.42-.35-.83-.72-1.23-1.1-1.1 1.4-2.17 2.82-3.26 4.23l.46.24c3.12 1.62 5.5-2.65 2.7-4.66.46.33-.53-.43-.65-.5-.97-.7-2.46-.4-3.26.4-1.08 1.1-.98 2.72 0 3.8.7.8 1.7 1.33 2.8 1.24 2.4-.18-2.2-.84 0-.1.24.1.47.14.7.2 1.73.38 3.27.4 4.58-.96 2.46-2.54.9-6.92-1.6-8.76v4.64c.23-.13.48-.25.72-.37 2.7-1.43.83-5.83-2.07-4.92l-.35.12 2.07 4.9.3-.17c-.1.05-1.06.2-.62.2-.27 0-.82-.3-.33.03-.8-.53.42.64-.1-.07.12.17.56 1.08.28.4.08.2.26 1.2.17.38v.36c.02.62.16-.6 0-.02.2-.37.2-.43.08-.18.3-.57-.13.02.36-.34-.26.14-.22.13.1 0-.22.07-.45.1-.68.13-1.45.22-2.23 2.03-1.88 3.3.42 1.55 1.86 2.1 3.3 1.9 3.4-.5 4.87-4.16 3.65-7.15-1.14-2.76-4.35-5.52-7.36-3.4-1 .7-1.58 1.8-1.24 3.05.38 1.37 1.9 2.3 3.3 1.87l.36-.1c-.7-1.64-1.4-3.28-2.08-4.92-.24.13-.48.24-.7.38-1.9 1.1-1.58 3.5 0 4.64-.3-.23-.33-.23-.1-.02-.2-.25-.2-.24-.04.02.14.28.15.3.05.03l.14.48c.07.33.08.34.04.03.02.16.02.32.02.48.06-.32.05-.34-.02-.05.1-.34.3-.6.64-.78.24-.1.5-.17.77-.2.4.07.45.07.1 0-.3-.04-.6-.1-.9-.18-.3-.1-.2-.06.33.14-.27-.17-.56-.27-.87-.3-.3-.1-.62-.12-.93-.07-1.22.08-.96.2.77.38-1.1 1.4-2.18 2.8-3.26 4.22-.45-.33.54.43.66.52l2.7-4.66-.45-.24c-2.62-1.37-5.58 2.08-3.26 4.23.4.37.8.74 1.22 1.1 1.1.96 2.7 1.1 3.8 0 1-1 1.1-2.82 0-3.8.04.03-.6-.66-.34-.32-1.4 1.1-2.82 2.18-4.23 3.27.2.12.37.28.5.5 1.87 2.4 6-.8 4.22-3.27-.13-.2-.27-.37-.4-.56-.86-1.18-2.32-1.76-3.68-.96-1.2.68-1.84 2.48-.98 3.68.16.2.32.43.47.65 1.4-1.08 2.8-2.17 4.22-3.25-.26-.28-.3-.3-.12-.07-.1-.16-.2-.33-.27-.5-1.4 1.08-2.8 2.17-4.22 3.25.4.34.74.68 1.07 1.08l3.8-3.8c-.38-.4-.66-.82-.92-1.3L115.9 143c.3.17.53.35.75.63 1.4-1.1 2.8-2.17 4.22-3.26-.4-.32-.44-.32-.56-.74l-3.95 3.03c.1.08.2.27.3.4l3.68-3.7c.2.12.38.85.17.13l-1.88 3.3c-.57-.22-1.1-.5-1.6-.85 1.33-1 2.64-2 3.96-3.03.44.22.63.52.58.9l-2.7 2.68c1 0 .56-.53-1.3-1.56l1.98-2.6.64-.06c.4.23.8.46 1.18.7l.14 1.8c.64-1.3.37-2.9-.96-3.67-1.2-.7-3.04-.35-3.7.97h.02z"/><path fill-rule="evenodd" clip-rule="evenodd" fill="#01979D" d="M113.9 141.26c.15-.13.03-.26.02-.38 0-.06.04-.17.04-.22 0-.03-.1-.1-.1-.12l.07-.04c0-.07-.08-.16-.07-.23 0-.05.07-.1.08-.15 0-.07-.08-.15-.08-.23 0-.2.14-.63.2-.9.02-.1 0-.13.04-.22.04-.1 0-.2.05-.32 0-.03.12-.06.12-.1 0 0-.05-.04-.04-.05 0-.02.12-.05.12-.08 0-.15.05-.2.18-.4l.14-.2c.25-.36.54-.7.9-1.1.4-.5 1.43-.95 2-1.65.1-.12.57-.55 1-.7.08-.05.34-.12.57-.25.1-.05.16-.13.25-.18-.02 0 .1.1.1.02 0-.14.07-.02.17-.02.03 0 .1-.1.12-.1.07.03.07.02.16-.02l.23-.07.03.06c.15 0 .26-.07.4-.1.1 0 .14.04.2.04.04 0 .1-.1.13-.1.14.05.27 0 .45-.02.06 0 .17.04.22.03.03 0 .1-.1.12-.1.13.05.42.13.64.12.04 0 .14-.04.17-.03.03 0 .05.12.1.12.14 0 .17.04.35.12h.1c.17.1.34.23.5.3.2.1.38.16.56.27.14.07.24.18.4.28.1.06.16.2.37.4.6.5 1.5 1.86 1.8 2.63.02.02-.04.05 0 .1.1.18.13.33.18.53.02 0 .1.08.1.1 0 .02-.07.04-.06.05 0 .03.1.1.1.13l-.08.04c.06.24.18.47.22.7 0 .03-.06.03-.02.1.06.1-.02.22.06.33.06.1-.02.22.05.34 0 0 .07.18.07.22 0 .04-.08.12-.07.15 0 .04.08.08.08.12 0 .03-.08.12-.07.14.02.1.07.18.05.34-.03.25-.1.55-.14.85l-.08.43c0 .03-.12.05-.12.1-.02.23-.2.5-.35.8-.02.04.05.05-.02.1l-.06.05c-.03.06 0 .1-.02.12-.08.12-.23.34-.34.44-.1.1-.17.25-.27.4-.05.04-.15.06-.2.12 0 .03.05.05 0 .1-.2.2-.5.36-.75.54-.52.35-1.2.75-1.8 1.02-.17.07-.36.15-.52.2l-.34.04c-.04 0-.03-.06-.1-.02-.04.02-.13.02-.17.03-.06 0-.16.05-.23.06-.04 0-.13-.08-.15-.08-.05 0-.1.1-.13.1-.07 0-.12-.05-.2-.04l-.18.02c-.04 0-.08-.02-.1 0-.23 0-.57 0-.87-.05-.12 0-.23 0-.33-.04l-.58-.14c-.06-.02-.06.05-.1-.02-.1-.1-.47 0-.6-.15-.08-.1-.17 0-.3-.05-.04 0-.06-.12-.1-.13l-.06.05c-.03 0-.06-.12-.1-.12-.14 0-.17-.05-.35-.12-.06-.02-.06.06-.12-.02-.06-.07-.16 0-.2-.03-.05-.02-.06-.1-.1-.12l-.56-.25c-.04-.02-.05.05-.1-.02-.14-.16-.3-.1-.46-.23-.12-.1-.27-.3-.42-.45-.1-.1-.1 0-.1-.13l-.14-.08c-.2-.18-.7-.88-.9-1.23-.08-.16-.22-.44-.22-.57 0-.04-.08-.2-.07-.23.03-.08.02-.08-.02-.17-.06-.15-.04-.47-.37-.77zm4.6-6.03c-.52-.1-.82.38-1.2.68-.12.1-.32.14-.43.22-.07.05-.1.14-.2.24-.32.28-.6.46-.82.68-.26.26-.75.8-.76 1.03-.02.03-.13.05-.14.08-.02.07.04.15-.03.22-.12.1-.02.28-.12.36-.05.05.02.06 0 .1-.04.08-.12.12-.14.2a2 2 0 0 0-.07.43c.04.07-.03.05-.03.1 0 .25-.1.46-.1.64 0 .04.08.1.08.13 0 .02-.08.1-.08.14.03.2.2.3.15.47.03.14-.03.23.04.44 0-.02.12.02.15.08l-.05.04c-.02.06.14.33.16.36.05.06-.02.08 0 .1.02.1.1.24.15.35.05.17.06.34.1.4l.06-.03c.36.05 0 .3.26.48.06.08.15-.03.2.03-.07.1.07.17.15.2.03.1-.05.12.02.26.03.06.1.04.15.08.08.07.1.16.07.23-.02.06.12.03.1.02.27.28.34.42.6.42-.04.18.16.1.26.36.06-.02.17-.02.2.03.07.06.08 0 .12 0 .1.05.15.2.24.2.07.03.1-.1.17 0 .15.18.55.16.65.36.2 0 .37 0 .48.03.08 0 .12.1.2.13.07.02.15-.08.23-.07.02 0 .04.1.08.12.3.1.65.14.9.2.03 0 .08-.1.12-.1.07.02.1.13.2.15.02 0 .08-.1.1-.1.12.02.22.07.33.07.1 0 .12 0 .22.03.02 0 .1-.08.12-.1l.04.07c.04 0 .1-.08.14-.1l.04.08c.03 0 .1-.1.13-.1.04 0 .12.08.16.1l.23-.1c.07-.04.6-.1.66-.1.02 0 .1-.08.12-.08.23-.06.5-.24.7-.33.1-.03.15 0 .24-.07.04-.03.02-.1.02-.1.06-.05.1 0 .17-.03.1-.07.26-.2.38-.27.1-.06.1.03.12-.1l.12-.08c.33-.2.56-.22.58-.5 0-.06.12 0 .1 0 .06-.04.04-.1.08-.14.1-.1.17-.16.27-.28.05-.08.04-.12.14-.2.1-.08.06-.23.14-.3.1-.1.08-.23.16-.3.07-.05 0-.07.02-.1.07-.12.2-.2.26-.3l-.04-.05c0-.03.1-.06.12-.1l-.04-.05c0-.03.1-.06.12-.1.02-.03-.04-.12-.02-.16.02-.08.12-.12.14-.2l.07-.42.06-.43c0-.18.06-.32.06-.43 0-.1-.1-.2-.1-.3-.02-.02.06-.12.07-.14 0-.03-.1-.1-.1-.13 0-.02.08-.12.1-.15s-.1-.1-.1-.12c-.04-.22-.13-.68-.2-.8-.05-.07.03-.07 0-.1-.04-.22-.1-.4-.17-.52-.04-.05.02-.1.02-.1-.05-.1-.17-.2-.23-.3-.07-.13-.04-.2-.1-.3-.04-.05-.1.06-.06-.06 0-.08-.3-.4-.32-.44-.17-.25-.1-.2-.23-.3-.14-.12-.8-1.13-.8-1 0-.14 0-.04-.1-.14-.35-.36-.58-.66-.8-.83 0 0-.06 0-.1-.02-.1-.07-.18-.14-.24-.2-.05-.04-.07-.13-.12-.18-.2.08-.34-.13-.43-.07-.1.07-.05-.1-.1-.12.04.03-.1-.02-.1-.02h-.38c-.13 0-.27-.05-.42-.07-.02 0-.03-.05-.04-.06-.03 0-.1.1-.12.1l-.2-.04c-.17 0-.33-.08-.44-.07l-.06.04c-.07.05-.06-.02-.1-.02-.1.02-.14.07-.24.08l-.2-.04c-.24.02-.45.12-.64.17-.17.04-.33.08-.46.14-.25.12-.57.44-.78.47.02.16 0 .3-.07.43z"/><path fill-rule="evenodd" clip-rule="evenodd" fill="#01979D" d="M120.5 136.6c.4-.38.6-1 1.13-1.18.03.15.06.3.14.46-.38.23-.48.5-.67.76.25.26.5 0 .6.42-.33.3-.56.05-.83.03-.24.05-.1.24-.22.34-.2.14-.02.46-.4.48-.3-.34.1-.56.02-.87-.2-.13-.48.07-.7-.06-.13-.12.06-.18 0-.28.33-.16.63-.1.94-.12z"/></g><g><path fill="#FFF" d="M166.43 33c0 1.24.13 2.42.3 3.64.6 3.92 6.7 2.84 6.75-.9 0-1.3-.18-2.5-.52-3.75-.84-3.07-6.05-3.5-6.6 0l.24-.44 6.4 1.73c0-.62.14-1.2.45-1.73h-6.6c.2 1.13.36 2.14.77 3.22 1 2.6 4.7 3.6 6.27.8.68-1.23.9-2.18 1.04-3.58h-6.85c.18 2.62.63 4.63 2.26 6.72 1.1 1.43 3.7 1.26 4.85 0 .58-.63 1.06-1.36 1.66-1.95l-5.38-.7c.96 1.6.85 3.73 1.22 5.52l6.26-2.64c-.88-1.62-1.92-2.75-3.38-3.86-2.18-1.68-5.1.63-5.15 2.95-.05 1.7.2 3.3.4 4.98l6.37-1.73c-.55-1.24-1.04-2.5-1.65-3.7-1.7-3.3-6.1-1.4-6.4 1.72-.16 1.86.15 3.54.72 5.3 2.1-.87 4.17-1.75 6.26-2.63-.5-.75-.88-1.5-1.27-2.34-1.5-3.25-6.3-1.44-6.38 1.73-.05 2.23.5 4.1 1.44 6.1 1.72 3.76 6.95.95 6.26-2.63a6.63 6.63 0 0 0-.4-1.56c-1.3-4.2-7.65-2.47-6.6 1.83.28 1.1.62 1.95 1.13 2.97 1.74 3.46 7.56 1.02 6.28-2.64-.26-.72-.5-1.36-.94-2-2.23-3.34-6.9-1.15-6.26 2.65.16.95.43 1.58.93 2.4 1.62 2.6 5.34 1.98 6.28-.83l.1-.3-6.27.83 1 1.95c1.02 2.07 3.82 2.08 5.37.7 1.66-1.5 1.96-3.5 2.64-5.52l-6.72-.9c.07 1.2.32 2.08.86 3.18 1.07 2.2 3.77 1.95 5.38.7 1.77-1.37 2.28-3.4 3.03-5.4-2.25-.32-4.5-.62-6.74-.92.13.94.18 1.88.3 2.83.44 3.3 4.37 4.78 6.4 1.73.55-.85.97-1.73 1.46-2.63l-6.4-1.73.1.98c.25 2.4 2 3.66 4.35 3.3.9-.13 1.46-.4 2.2-.93 3.47-2.56.26-8.42-3.47-5.92l-.3.2c1.57 1.56 3.14 3.12 4.7 4.7.3-.74.6-1.44.83-2.2.6-2.1-1.1-4.4-3.3-4.34h-.32l3.43 3.44.02-.3c.27-4.42-6.58-4.4-6.86 0l-.02.3c-.17 1.82 1.68 3.48 3.42 3.43h.32l-3.3-4.35c-.06.18-.1.36-.15.55-1.2 2.82 1.52 6.82 4.7 4.68l.3-.18c-1.17-1.97-2.32-3.95-3.47-5.92l-.55.24 4.34 3.3-.1-.97c-.32-3.15-4.62-4.98-6.38-1.73-.5.9-.9 1.78-1.47 2.64l6.4 1.72c-.14-.94-.2-1.88-.3-2.83-.47-3.82-5.35-4.68-6.73-.9-.35.93-.44 1.74-1.27 2.4l5.38.68.08.27c-.25-3.88-5.5-4.65-6.73-.92-.24.73-.3 1.97-.88 2.5 1.8.22 3.6.45 5.38.7l-.97-1.97c-1.42-2.82-5.4-1.8-6.27.82l-.1.3 6.27-.82-.24-.75-6.27 2.64.24.36 6.26-2.64-.44-1.33c-2.2.62-4.4 1.22-6.62 1.83.2.5.32 1.03.4 1.56 2.08-.9 4.17-1.77 6.26-2.65-.46-.83-.63-1.72-.5-2.66l-6.4 1.72c.4.83.76 1.6 1.27 2.34 2.1 3.07 7.53 1.25 6.28-2.64-.4-1.23-.58-2.2-.47-3.48l-6.37 1.73c.62 1.2 1.1 2.47 1.66 3.7 1.36 3.06 6.7 1.6 6.37-1.72-.17-1.67-.43-3.3-.4-4.98-1.7 1-3.43 1.97-5.14 2.96.38.42.68.9.92 1.4 1.94 3.56 7.03 1.04 6.26-2.64-.5-2.5-.55-4.93-1.9-7.17-1.14-1.9-3.8-2.25-5.38-.7-.63.62-1.07 1.32-1.66 1.96h4.85c-.18-.25-.23-1.57-.26-1.88-.34-4.46-6.38-4.36-6.85 0l-.13.12 6.26.82c-.4-1.07-.57-2.1-.78-3.22-.7-3.74-5.46-2.75-6.6 0-.48 1.16-.6 2.3-.7 3.55-.35 3.48 4.77 4.53 6.37 1.72.22-.4.37-.78.44-1.2h-6.6c.25.6.34 1.24.26 1.9l6.74-.9c-.07-.6-.1-1.22-.08-1.83-.03-4.42-6.9-4.42-6.85 0z"/><path fill-rule="evenodd" clip-rule="evenodd" fill="#01979D" d="M188.1 33.5c.1-.7.6-.48.84-.84 1.04.4-.25 1.7-.85.84zm-4.57 2.26c-.1-.05-.43-.24-.36-.45.04-.1-.1-.16-.1-.24-.02-.1.1-.2.1-.28 0-.04-.22-.3.04-.4 1-.17 1.04 1.22.33 1.38zm-13.66-5.96c-.05.97-.8 1.8-1.66 1.57.04-.1-.07-.1-.14-.16-.05-.1.04-.26-.08-.34.08-.35.28-.4.43-.57.05-.15-.25-.15-.2-.3.34-.5 1.1-.8 1.67-.2zm-1.23 1c.37.14.52-.22.7-.47.02-.08.08-.18 0-.22-.27.18-.55.28-.7.7zm5.29 1.92c.35.12.35.4.63.56-.18.8-.72 1.34-1.26.78.25-.6.2-1 .63-1.34zm12.41 6.45c.4.15.4.48.7.68-.06.64-.54 1.17-1.2.92 0-.13-.05-.24-.2-.3.17-.55.4-.98.7-1.3zm-.1 1.1c.2.25.42-.3.1-.26l-.1.28zm-4.3-1.74c.1.62-.36 1.18-.9 1.24-.28-.1-.28-.33-.44-.48-.02-.1.17-.3.14-.38l-.1-.04.24-.33c.05-.07.22-.33.36-.4.16-.06.53.22.7.38zm-.78.66c.28.1.6-.4.18-.47l-.18.46zm-7.1-2.41c.46.17.33.62.1 1.1-.4.24-1.1-.2-.65-.78.28-.13.3.13.44.27.08-.22-.06-.33.12-.6zm-4.88.88c.6.28.27 1.57-.44 1.4-.5-.25-.08-1.28.26-1.47.06 0 .12.03.18.06zm6.82 4.51c-.4.26-1.07.16-1.23-.36.27-.64.66-1.03 1.3-.87-.03.1.15.13.1.25 0 .3.08.58-.16 1zm-.57-.43c.22.24.43-.3.1-.28-.03.1-.06.2-.1.28zm7.1 3.26c-.26.4-.46.9-.94.8-.3-.1-.27-.33-.17-.7.02-.07 0-.25-.02-.22.06-.1.22-.13.3-.2.07-.08.05-.2.16-.16.25-.1.47.3.67.47zm-11.46-.7c.94.16.65 2.03-.38 1.54-.07-.4.1-1.24.37-1.55z"/><path fill-rule="evenodd" clip-rule="evenodd" fill="#01979D" d="M184.62 18.86c.1.3.05.56 0 .85 0 .04-.1.17-.08.2.08.12 0 .04-.07.18-.1.2-.22.44-.28.73 0 0 .13.12.05.14-.2.06-.27.52-.45.9 0 0-.16.03-.16.13 0 0 .1.28 0 .32l-.1-.05c-.07.1.03.2.02.22-.05.1-.16.17-.23.33-.04.07.07.14.02.22-.02.02-.1-.02-.13.06-.5 1.1-.9 2.8-1.7 3.58.56.2 1.24.02 1.88.08.43.04.88.16 1.4.22.5.06 1.34.4 2.06.68.05.02.34.1.36.14.06.13.1.03.28.1.23.1.54.16.7.4-.04.24-.2.1-.32.28-.03.04-.04.16-.07.2-.16.1-.4.03-.56.1-.34.1-.77.1-1.08.3.05.2.34.15.46.2.5.14 1.27.4 1.85.7.7.35 1.15.88 1.66 1.16-.03.17.1.26.17.4.02.02 0 .18.02.2.04.04.16.03.2.07.04.08.03.42.2.5.16.07.15.3.2.4l.04.1c.02.1-.04.22 0 .33 0 .04.13.12.14.16 0 .05-.08.12-.07.17 0 .08.1.2.1.26.04.2.05.43.07.66 0 .08-.02.18 0 .3 0 .05.1.2.1.25 0 .22-.1.42-.15.68-.03.2 0 .45-.03.63-.12.46-.43.93-.56 1.47-.05.17 0 .23-.05.4-.05.16-.22.37-.3.52-.38.83-.8 1.82-1.3 2.56-.05.1-.13.13-.2.25-.1.22-.13.24-.26.43-.02.03-.04.18-.07.18l-.1-.03c-.4.55-.8 1.1-1.25 1.63-.4.46-.84.94-1.28 1.4-.45.48-.93.95-1.37 1.38-.5.48-.9.93-1.38 1.38-.14.12-.43.3-.5.45 0 .02-.14.2-.2.24-.05.06-.2.08-.25.12-.03.03-.03.17-.07.18-.1.04-.18.23-.36.4-.05.04-.18.05-.25.1-.1.08-.17.2-.33.3-.05.04-.08-.04-.12.06-.06.13-.26.13-.33.3-.07.13-.26.13-.34.3-.05.12-.22.08-.38.17-.04.02-.03.17-.07.18-.04.03-.16 0-.2.03-.2.1-.4.3-.6.42-.18.1-.44.18-.62.28-.4.2-.8.38-1.28.57-.43.15-.8.32-1.33.43-.08.02-.13 0-.22.03l-.34.07c-.26.06-.5-.1-.9-.13-.14 0-.73.03-.93-.04-.27-.1-.57-.38-.9-.66-.27-.23-.55-.47-.78-.73-.26-.25-.45-.5-.67-.77-.06-.08-.16-.27-.3-.33-.1-.05-.06-.18-.1-.25-.03-.04-.18-.03-.2-.08-.05-.17-.2-.27-.35-.45-.07-.1-.06-.2-.1-.26-.03-.04-.18-.03-.2-.07-.02-.1-.02-.27-.07-.35 0-.03-.16-.03-.18-.07 0-.02.05-.08.04-.1-.05-.06-.2-.1-.24-.2-.04-.04 0-.16-.02-.2-.05-.1-.2-.12-.24-.2-.06-.1-.04-.34-.14-.48-.02-.04-.17-.03-.18-.07 0-.02.04-.08.03-.1-.05-.07-.18-.1-.24-.2-.04-.05-.03-.4-.23-.5-.16-.07-.25-.72-.36-.98-.08-.2-.2-.45-.37-.68-.04-.05.04-.08-.06-.12l-.1-.04c-.25-.52-.46-1.18-.7-1.75-.18-.5-.5-1.02-.63-1.62-.02-.05-.1 0-.06-.1.05-.14-.1-.1-.14-.18-.02-.04.1-.14.07-.18-.08-.22-.32-.55-.4-.9 0-.06-.1 0-.05-.12.02-.08-.1-.3-.14-.48-.02-.1-.1-.17-.1-.25-.02-.05.08-.16.06-.2 0 0-.1 0-.1-.03-.06-.3-.05-.48-.1-.78-.03-.08-.1-.03-.07-.14.02-.08-.06-.26-.08-.35 0-.07 0-.13-.02-.2-.02-.1-.1-.2-.1-.26-.03-.08-.02-.14-.03-.22-.02-.16 0-.38 0-.53-.02-.1-.12-.2-.12-.27 0-.04.08-.15.06-.18 0-.02-.08-.02-.1-.04 0-.03.1-.14.08-.17 0-.02-.1-.02-.1-.04 0-.05.1-.16.08-.2 0 0-.1 0-.1-.03V34.2c-.02-.06-.1-.18-.12-.25 0-.04.1-.14.07-.18-.06-.1-.1-.12-.1-.25-.02-.04.08-.16.06-.2-.1-.2 0-.73.03-1.14.03-.38.02-.73.07-1.03.04-.2.2-.45.25-.64.03-.1-.06-.1-.06-.12 0-.1.12-.06.12-.06.02-.08-.05-.12-.02-.22.05-.14.16-.12.2-.24.02-.07-.07-.13-.02-.22.03-.06.1-.07.16-.15.2-.3.34-.68.6-1.04.1-.12.3-.27.4-.48.08-.17.3-.24.36-.4.02-.02.14-.18.2-.23.08-.1.2-.13.3-.2.02-.03.1-.06.12-.07.1-.1.1-.23.23-.33.05-.04.08.05.13-.06.05-.13.26-.15.4-.27.06-.03.44-.3.5-.45.02-.02.13-.1.16-.14.56-.43 1.22-.77 1.9-1.07.24-.1.47-.23.63-.3.04 0 .15.1.18.08.04-.02.13-.14.17-.14.12-.02.2.05.3.02.1-.02.17-.1.26-.1.07-.03.2-.12.26-.13.12-.02.55.06.72.06.06 0 .1-.06.12-.06.18 0 .5.1.72.06.05 0 .02-.07.12-.06.62.1 1.06.44 1.7.55.15 0 0-.14.1-.28-.03-.1-.17-.2-.2-.3-.04-.1.03-.18 0-.3 0-.06-.1-.2-.1-.26 0-.05.06-.1.07-.17 0-.1-.07-.08-.07-.13 0-.2.13-.46.15-.68 0 0-.06-.07-.05-.13.03-.25-.04-.23.14-.37.08.1.2-.03.22-.02.1.04 0 .1.05.13.12.08.23.13.33.24.03.03 0 .2.02.22.15.14.25.18.4.34.02.04.16.04.18.08 0 .03 0 .2.02.22.1.1.23.1.33.23.04.04-.04.08.06.12.03 0 .1.1.14.16.1.12.22.2.38.36.1.08.14.2.2.3.04.03.06.1.07.12.08.1.22.1.32.23.03.03 0 .2.02.22.04.03.15 0 .2.06.3.35.6.73.97 1 .43-.5.5-1.1.74-1.6.2-.46.47-.83.68-1.23.03-.06.15-.06.16-.15 0-.03-.1-.03-.06-.13.07-.14.15-.12.2-.24 0 .03-.1-.05-.06-.12 0 0 .1.02.13-.05.05-.1.1-.25.13-.37.47-1.28.62-2.57 1.5-3.65.5.1.9-.03 1.5.26zm-.98.37c-.08 0-.14.03-.16.15-.24 1.12-.4 2.2-.78 3.4-.04.14-.16.32-.05.4l.14-.37c.02-.1.08-.12.15-.14.05 0-.03-.2-.02-.22.04-.07.13-.05.13-.05.05-.1-.02-.22-.02-.23.12-.3.28-.5.4-.8l.26-.64c.15-.34.27-.42.34-.6 0 0-.07-.1-.06-.14.03-.25.2-.38.2-.56-.2-.1-.3-.33-.54-.2zm-3.1 6.95c-.15.17-.62.1-.48.44l.46.18c.12-.53.43-.88.6-1.26.08-.2.07-.47.14-.68 0 .03.1-.02.13-.05.3-.44.22-.87.48-1.28-.15-.06.05-.28-.07-.35-.34.8-1 2.04-1.25 3zm-1.2.38c-.1-.04 0-.1-.05-.13-.1-.1-.32-.17-.44-.27-.17-.14-.27-.3-.38-.36-.2-.1-.07-.22-.3-.32-.1-.05-.02-.08-.06-.13-.13-.18-.14-.22-.3-.32-.06-.05-.04-.12-.05-.13-.13-.1-.22-.12-.34-.24-.03-.03-.06-.2-.1-.25-.13-.1-.26-.13-.34-.22-.1-.1-.07-.18-.13-.26-.08-.12-.23-.12-.33-.23-.07-.1-.15-.6-.42-.28.17.08 0 .28.04.44.06.22.33.52.37.67.08.27-.06.2.18.38.12.1-.03.17.03.23.13.16.32.22.5.3.07.32.45.62.67.8.16.1.9.54 1.06.5.06-.02.07-.22.17-.15 0 .23.16.4.44.5.13-.26-.14-.48-.22-.52zm6.1 1.17c-.4-.13-.88-.2-1.17-.24-.07 0-.12.05-.13.05-.22-.02-.48-.15-.68-.15-.04 0-.18.1-.25.1-.1.02-.22 0-.3 0-.43 0-.8 0-1.2.07-.3.16-.4-.3-.67-.16-.12.43-.3.7-.54.86-.34-.15-.3-.26-.65-.24-.6 0-1.24-.14-1.84-.18-.6-.04-1.48 0-1.9 0h-.3c-.1-.04-.07.04-.13.05-.24.05-.47.02-.66.06-.13.03-.23.12-.37.17-.52.17-1.12.33-1.47.8.43.13 1.3.3 1.52.17h.3c.13.03.14.04.23 0 .04-.03.15.06.2.06l.03-.1c.03 0 .14.08.18.08.03 0 .03-.08.05-.1l.3.02c.13.02.14.03.23-.02.03-.02.14.07.18.07.02 0 .02-.08.04-.08.03-.02.14.07.18.07.02 0 .03-.1.04-.1h.3c.23.04.2-.02.36-.07.1-.03.22.04.3.02.06-.02.1-.13.17-.15.1-.04.2.05.3 0 .07 0 .12-.1.18-.14.08-.03.3.02.34-.07.15-.34.5-.08.66-.08.04 0 .18-.1.25-.1.05-.02.1-.16.17-.16.12 0 .18.16.24.2-.13.14.1.48-.2.46-.1.17-.3.08-.4.26-.2.04-.23.24-.37.4-.03.03-.07-.03-.12.05-.08.12-.1.17-.2.24-.16.12-.26.32-.42.57-.18.28-.38.55-.4.8-.08.4-.25.96-.3 1.26 0 .07.07.12.07.13-.03.34-.13.6-.06.7 0 .05-.08.16-.08.2 0 .3-.1.7.08.88.2-.15.38-.26.55-.3.03-.02.03-.17.07-.2.07-.05.2 0 .25-.1.08-.17.27-.18.33-.3.04-.1.1-.04.13-.06.16-.22.14-.47.3-.52.07-.02-.04-.16-.06-.13.06-.12.13-.1.2-.25.28-.63.5-1.45.6-1.88.12-.37.32-.72.44-1.1.22.02.27-.16.48-.14.4.05.63.44.94.58-.04.15.12.27.17.4.06.12.08.24.16.37.16.24.4.45.6.65.02.13.04.24.08.35.05.13.2.2.17.38.7.4.9 1.03 1.95 1.27 0-.12.1-.3.05-.4-.02-.04-.17-.03-.18-.07-.1-.2-.18-.35-.23-.5-.02-.05-.17-.05-.2-.08-.04-.05-.06-.2-.1-.26-.15-.14-.28-.2-.4-.35 0 0 .04-.07.03-.1 0-.03-.15-.03-.18-.06-.05-.08-.06-.18-.12-.26-.1-.16-.2-.4-.35-.46-.1-.04-.02-.08-.06-.12-.06-.08-.17-.1-.23-.2-.05-.04 0-.17-.04-.22-.06-.1-.2-.1-.24-.2-.1-.2-.14-.56-.2-.82-.08-.26-.4-.54-.1-.88 1.05.18 2.3.33 3.17.27.05 0 .02-.06.12-.05.22.03.2-.03.35-.08.1-.03.2.06.3.02.2-.1.4-.2.46-.37-.52.02-.86-.36-1.3-.5zm-7.97 1.8c-.04 0-.1.06-.13.06-.1 0-.18-.03-.3-.02-.15 0-.22.07-.36.07h-.3c-.07 0-.18.03-.23 0-.1-.02-.08.07-.13.07-.2 0-.5-.07-.7-.06-.06 0-.2.1-.27.1-.15.03-.25-.04-.4-.04-.44 0-.94-.02-1.43-.13-.45-.1-1.2-.1-1.3-.72.28-.65.8-.82 1.3-.97.17-.1.27-.32.47-.35.1-.03.17.03.3.02.06 0 .18-.1.25-.1.2-.03.42.04.62 0 .07 0 .17-.1.26-.1l.57-.1c.1-.02.18.02.3 0 .07 0 .2-.1.26-.1.1 0 .24.02.3 0 .2 0 .43.04.64.04.42 0 .9.13 1.2-.06-.45-.04-.65-.44-1.05-.6-.12-.06-.35-.02-.5-.1 0 0 0-.1-.05-.12-.48-.34-1.25-.6-1.66-.63-.26-.05-.34-.45-.64-.26-.2-.05-.08.2-.1.27-.1.22-.25.05-.33.3 0 .04.12.22-.02.32-.3.16-.54.5-1.04.24-.1-.33.28-.66.46-.9.08-.2.9-.2.48-.43-.18.16-.33-.07-.5-.1l-.03.1c-.02.02-.13-.07-.17-.07-.25 0-.32.05-.48.14-.03.02-.14-.08-.18-.07-.13.02-.26.14-.38.17-.25.06-.53.2-.7.16-.2-.07-.38.18-.52.22-.24.08-.4-.02-.47.14-.02.07-.2.18-.28.2-.22.1-.4-.03-.47.14-.07.16-.6.34-.67.38-.26.15-.63.37-.8.43-.04 0-.05.15-.08.18-.1.1-.14.08-.25.12-.04 0-.03.16-.07.18-.05.03-.18-.02-.22.02-.1.1-.2.27-.23.33-.18.24-.27.36-.36.4-.03 0-.06.15-.07.18-.55 1.04-1.08 2.66-1.4 3.68-.04.08.04.12.04.13-.07.34-.25.83-.17.98.03.04-.02.27 0 .3.04.23-.07.47-.08.73 0 .02.08.03.1.04l-.03.3v.33c-.02.13 0 .22-.02.3-.04.28 0 .26.04.45 0 .04.02.18 0 .22-.04.14.04.33.05.43.02.14.06.22.08.35.02.1-.04.2 0 .3 0 .1.17.2.2.3.02.1-.04.23-.02.32 0 .02.05.07.06.12l.14.48c.04.12.05.23.08.34.05.2.04.3.04.44 0 .03.14.13.15.17.1.3.24.6.3.84.04.12.04.23.1.35.13.38.35.75.5 1.13.03.1-.05.22-.02.32.02.03.16.04.2.06v.23c.08.2.12.4.2.6.24.6.6 1.2.83 1.7.1.2.05.48.32.54-.07.47.26.73.45 1.02.1.12.1.25.17.37.08.13.2.4.27.42.1.04 0 .07.04.12.07.08.18.1.24.2.1.12.1.27.17.38.04.06.1.1.15.16.06.08.07.2.12.26.08.1.32.16.42.27 0 0-.04.06-.03.08.02.04.16.03.2.07.04.07.04.17.1.25.25.3.47.8.8.94.1.05.02.1.06.13.12.13.28.25.4.36 0 0-.05.08-.04.1 0 .03.15.04.18.06.1.08.08.13.1.25.03.03.17.04.2.07.1.08.17.18.2.3.02.02.16.03.2.06l-.05.1c.02.02.16.03.2.06.13.13.22.25.38.36.5.35 1.25.5 1.63.42.25-.05.3-.04.48-.14.03-.02.14.08.18.07.1-.02.25-.14.4-.17.16-.04.33 0 .43-.04.3-.1.5-.35.7-.47.1-.06.25-.03.35-.08.18-.1.34-.23.54-.33s.47-.1.6-.2c.08-.03.15-.18.2-.23.03-.02.1-.02.13-.06l.16-.14c.06-.05.2-.07.26-.12.03-.03.02-.14.06-.18.02-.03.18 0 .22-.02.34-.26.7-.56 1.07-.86.2-.16.6-.47.64-.6.04-.1.08-.02.12-.05.12-.1.12-.22.24-.33.04-.04.2-.06.25-.1.13-.1.13-.24.24-.34.02 0 .1-.03.13-.06.13-.1.3-.22.33-.3.04-.1.1-.02.12-.05.22-.22.27-.4.43-.58.33-.36.68-.6.98-.9.17-.16.25-.33.36-.38.1-.06.05-.05.16-.15.5-.48 1.15-1.16 1.56-1.6.15-.16.18-.22.27-.43.02-.07.12-.05.12-.06.13-.2.15-.5.28-.72s.32-.44.47-.67c.3-.43.5-.8.7-1.3.07-.14.16-.06.08-.2-.04-.06.16-.13.17-.13.05-.02.14-.4.17-.46.2-.46.74-1.64.6-1.87 0-.02.1-.25.1-.28.03-.04.15-.08.14-.05.07-.2.1-.44.12-.6.04-.18 0-.4.03-.62.03-.37.1-.62.12-.9.03-.22-.08-.55-.06-.65v-.3c.02-.1.1-.2.12-.3-.18-.2-.18-.5-.16-.68.02-.2-.13-.26-.17-.4-.06-.17-.03-.36-.1-.55-.02-.04-.17-.03-.2-.07 0-.05.1-.14.08-.2-.03-.07-.15-.12-.1-.24-.83-.63-1.84-1.43-3.02-1.8-.3-.1-.7-.1-.9-.13-.18-.05-.26-.13-.4-.05-.02.02-.14-.07-.18-.07l-.03.1c-.04 0-.16-.08-.2-.08-.5 0-1.1-.02-1.44.2.1.36.4.57.62.86l.7.9c.22.27.56.62.72.9l.1.26c.03.03.17.02.2.06 0 .04-.1.14-.08.2.05.24.14.38-.03.6-.33.46-1.38.13-1.93-.2-.08-.05-.08-.13-.15-.16-.16-.07-.44-.48-.54-.53-.1-.04-.02-.1-.06-.12-.1-.12-.24-.12-.33-.24-.05-.04-.08-.18-.12-.24-.13-.2-.18-.36-.23-.5 0-.05-.16-.05-.18-.08-.03-.03 0-.18-.02-.22-.02-.04-.16-.04-.2-.07-.1-.16-.14-.38-.25-.43-.13-.06-.1-.24-.2-.3-.2-.08-.08-.37-.34-.22-.25.5-.34 1.06-.6 1.56-.1.2-.26.3-.4.5s-.25.5-.37.7c-.28.45-.65 1.07-.85 1.36-.04.05-.03.14-.07.2-.2.26-.64.7-.76.86-.08.12-.1.17-.2.24-.24.18-.52.3-.76.34 0-.73-.4-1.45-.5-2.3 0-.18-.05-.35-.03-.44v-.3c.03-.16.05-.2.02-.32-.05-.23.07-.47.03-.62-.04-.2.06-.7.14-.9.2-.58.7-1 .94-1.65.05.02.14-.03.04-.1-.02.1-.07.05-.13.07zm13 5.73c-.02.2.07.3.05.44-.04.4-.3.84-.15 1.2.2-.46.26-.95.28-1.26.02-.3.03-.47 0-.53-.06-.08.1-.3-.1-.34 0 .24-.05.33-.07.5z"/><path fill-rule="evenodd" clip-rule="evenodd" fill="#01979D" d="M176.03 49.26c-.1-.2-.04-.34 0-.53 0-.1 0-.5.26-.43.12.05.25-.2.4-.26l.2.07c.7.4-.06 1.72-.87 1.16z"/></g><path fill-rule="evenodd" clip-rule="evenodd" fill="#01979D" stroke="#01979D" stroke-width=".27" stroke-miterlimit="10" d="M82.9 6.94c.48-.18 1.06-.12 1.6-.22.17-.02.28-.1.4-.14.2-.04.38 0 .52-.06.22-.08.34-.37.57-.25.02-.1.1-.08.13-.2.02-.06-.06-.17-.03-.24.06-.16.17-.22.2-.37.4-.13.8-.32 1.24-.42.05-.02.3 0 .33-.05.08-.1.08-.02.26-.04.17-.03.38 0 .6-.08.1-.05.47-.14.82-.2.17-.03.2-.1.32-.13-.03 0 .05.08.1.08.08 0 .05-.1.07-.1.24-.05.5-.02.76-.1 0 0 0-.08.07-.1l1.25-.25c.47-.1.97-.2 1.58-.38.33-.1 1.05-.25 1.58-.38.6-.15 1-.28 1.74-.4.05 0 .12 0 .17-.03.02-.02.1-.1.06-.1.07 0 .1.07.18.06.2-.03.4-.04.6-.08.07-.02.04-.1.06-.1.08-.02.1.08.1.08.07-.02.07-.1.16-.1.27-.06.6 0 .92-.13.07-.03.07-.1.16-.1.37-.08.74-.16.93-.13.2.03.35.14.55.27l.18.06c.02.03 0 .15.02.17.05.04.23.02.26.05.08.1.07.22.13.33.03.03.1-.02.1.07.03.15.14.25.22.3.1.1.27.5.43.64.06.05.2.06.27.13.03.02 0 .15.02.17.12.07.2.18.4.3 0 .58.33 1.04.53 1.54.07.15.1.36.16.5.1.2.3.36.4.54.14.2.16.45.27.65.02.03.08 0 .1.07v.1c.13.2.4.64.56.94l.35.64.24.48.36.73.23.47.24.48c0 .04.08 0 .1.08v.08c.06.1.3.34.33.56.03.12.07.22.13.33.06.08.07.18.13.32.02.03.18.26.23.4 0 .06-.02.3.03.33 0 0 .08-.02.1 0 .08.23.08.5.17.74 0 0 .08-.02.1.06 0 .08.15.3.23.48.06.1.13.35.24.48.07.1.2.4.33.56.16.2.32.87.5 1.22.17.32.34.6.63.86.13.34-.46.14-.36.47-.06.38 0 .76-.02 1.12 0 0-.07.05-.08.1 0 .15 0 .22-.03.43-.02.17-.02.3-.1.44.2.46.4 1.13.3 1.67-.44.18-.84.26-1.48.45-.6.18-1.54.26-2.43.4-.33.06-.7.3-1.1.24-.15-.04-.07 0-.4.04-1.9.27-4.12.5-5.97.88-.05 0-.12 0-.17.03-.1.03-.16.08-.42.14h-.17c-.06.04-.33.2-.55.25-.3.07-.62.07-.93.13-.3.05-.56.15-.83.2-.3.04-.23-.03-.43.05-.17.07-.53 0-.77.02-1.08.08-2.18.23-3.22.26-.26.08-.12-.37-.3-.38-.05-.1-.07-.53.04-.27.18 0 .26-.1.22-.28.07-.5.06-1.04.04-1.64 0-.1-.06-.22-.05-.33.02-.2.06-.16-.06-.42 0-.03 0-.16-.02-.17-.1-.06-.3-.38-.42-.62-.02-.03 0-.15-.02-.17 0 0-.07.03-.08.02-.02-.03 0-.15-.02-.17 0 0-.08.02-.1 0 0 0 .02-.14 0-.15-.08-.05-.07-.06-.1-.16l-.13-.24s-.08.02-.08 0c-.03-.02 0-.14-.04-.16 0 0-.07.02-.08 0-.02-.02 0-.14-.02-.16-.08-.04-.07-.05-.1-.15l-.13-.24c0-.02-.07 0-.08 0-.02-.03 0-.15-.02-.17-.02 0-.08.02-.1 0 0-.02.02-.14 0-.16-.12-.06-.27-.35-.42-.54-.03-.05-.07.02-.1-.08 0-.1-.14-.32-.23-.48 0-.03 0-.15-.02-.17 0 0-.07.03-.08.02-.02-.03 0-.16-.02-.17-.08-.05-.07-.06-.1-.16l-.13-.25s-.08.02-.08 0c-.02-.02 0-.14-.02-.16h-.1c0-.02.02-.15 0-.16-.17-.1-.27-.6-.4-.9 0-.07-.06-.14-.1-.24 0-.03 0-.15-.02-.17l-.1.02c-.12-.27-.13-.46-.26-.74 0-.02 0-.14-.02-.16-.1-.06-.13-.17-.23-.4-.23-.54-.45-1.1-.73-1.6-.2-.36-.4-.56-.56-.97v-.17c-.13-.07-.14-.18-.24-.4-.13-.28-.26-.54-.36-.8-.12-.3-.16-.6-.3-.9-.08-.2-.22-.37-.32-.56-.07-.12-.2-.3-.24-.48-.03-.17-.05-.23-.13-.33-.07-.1-.02-.25-.14-.5 0-.02-.08.02-.1-.06-.02-.14-.24-.2-.23-.5-.26.12-.14.36-.18.63 0 .1-.1.2-.12.36-.04.23.02.5-.08.7-.04.1-.03.14-.05.26 0 .07-.07.08-.07.1-.04.33 0 .8 0 1.2-.03.32-.02.55-.07.86 0 .02-.06.04-.07.1-.03.2.08.32.23.57.1.13.14.27.23.4.04.05.16.1.2.14 0 .02-.02.14 0 .16.02 0 .1-.02.1 0 .02.02 0 .14.02.16l.08-.02c.02.03 0 .16.02.17.02 0 .08-.02.1 0 .07.1.13.28.2.4.04.03.2.1.2.14.03.08 0 .2.04.26.02.04.18.1.2.14.02.07-.02.2.02.26.02.03.08-.02.1.07.02.1.15.3.23.48.02.04 0 .16.03.18 0 0 .08-.02.08 0 .14.23.22.53.38.88 0 .02.08 0 .1.07 0 .03 0 .24.03.26.07.04.1.23.22.47 0 0 .07 0 .1.07.08.2.14.26.24.57 0 .03 0 .16.02.17 0 0 .08-.02.1 0 .04.12.07.3.13.4.03.05.2.12.2.15.1.23.15.5.28.82 0 0 .1.24.12.24.03.03.25.32.32.47.06.16.15.24.22.4.05.12.06.2.13.33.03.05.16.1.2.14 0 .03-.02.15 0 .17l.1-.02c.12.2.13.4.25.65.02.03.08 0 .1.07v.1c.04.04.17.1.2.13.02.03 0 .15.02.17.1.05.15.14.2.23.02.03 0 .15.03.17 0 0 .08-.02.08 0 .07.1.08.28.14.4.05.12.16.27.22.4.06.14.08.33.15.5 0 0 .07 0 .1.06l.12.33c.1.25.1.4.25.64.02.03.08-.02.1.07.02.12.15.1.2.16.03.06-.02.2.02.25.05.1.26.06.3.23 0 .12.14.25.14.5-.07-.02-.17.05-.24.03-.12-.03-.04-.1-.1-.16-.05-.03-.16-.03-.2-.06-.02-.03.02-.15 0-.17-.03 0-.1.02-.1 0-.02-.02 0-.14-.02-.16-.1-.05-.12-.04-.2-.14-.06-.1-.04-.24-.2-.22 0-.24-.06-.4-.17-.67l-.1-.24c-.1-.06-.25-.52-.37-.72 0-.02 0-.15-.02-.16-.08-.05-.07-.06-.1-.16l-.12-.24s-.08.02-.1 0c-.07-.16-.1-.4-.23-.55-.08-.1-.16-.14-.2-.24-.1-.17-.07-.36-.16-.5-.14-.25-.3-.46-.52-.7-.07-.08-.05-.34-.14-.4 0-.02-.07 0-.07 0-.08-.13-.07-.22-.13-.32-.03-.04-.08.02-.1-.08v-.08c-.1-.14-.24-.45-.36-.72-.1-.2-.15-.44-.26-.66-.06-.1-.14-.12-.2-.22-.08-.13-.08-.23-.13-.33-.07-.14-.08-.22-.13-.32-.13-.26-.3-.54-.46-.9l-.6-1.28-.1-.15c-.08-.1-.06-.35-.15-.4-.07-.08-.1-.13-.2-.33l-.1-.15c-.1-.1-.27-.42-.44-.63-.03-.05-.07 0-.1-.1 0-.06-.12-.2-.2-.3-.08-.1-.12-.16-.2-.23-.07-.05-.13-.24-.23-.4-.03-.04-.08.02-.1-.07-.02-.14-.06-.1-.1-.16-.05-.08-.06-.2-.13-.32-.03-.05-.17-.1-.2-.15v-.08c0-.1-.05-.18-.04-.27 0-.1.1-.2.13-.35.04-.33-.03-.56.04-.87 0 0 .06 0 .07-.08.03-.17-.03-.5 0-.77l.08-.7c0-.1.1-.2.12-.36.02-.2 0-.4 0-.6.02-.17.08-.37.02-.53.1-.02.1-.12.15-.2.05-.05.13-.1.15-.18.1-.13.08-.35.18-.46zM83.4 8c-.02.08.05.04.08.06.03 0 0 .14.03.17.13.25.35.96.5 1.05.02.02 0 .14 0 .17.04.04.17.1.2.14.13.2.23.48.26.64.04.2.1.2.14.4 0 .08.1.07.1.08.1.26.1.58.2.84 0 0 .07.03.1.07v.08c.02.1.08.05.1.1.1.2.13.33.22.38l.13.33c.13.23.23.5.35.73.06.1.16.2.22.32.1.18.34.65.43.7.03.03 0 .15.02.18.1.2.17.37.25.57.18.4.35.76.5 1.13.12.32.18.55.28.82l.13.4c0 .02.08 0 .1 0 .1.07.03.36.2.3.03.1.1.05.17 0 .02.1.13.1.12.23l.1.67c.2.03.12.26.22.4.02.03.15.03.18.06.04.06.08.2.1.25.1.13.16.28.24.4.03.04.16.1.2.15v.17c.04.07.08.04.1.07.1.13.16.28.23.4.1.2.23.34.3.4l.12.23c.1.22.1.18.2.3.07.1.1.14.13.25.2-.02.4-.04.5-.15.03.02.12-.05.16-.02.05.02-.07.17-.05.18.1.03.3-.06.42-.06.28 0 .64 0 .85-.03.23-.02.42-.14.67-.17.14-.02.18.04.33.04.14 0 .28-.03.42-.05.88-.08 1.73-.16 2.53-.33.32-.07.66-.24 1-.3.77-.17 1.58-.25 2.16-.38.58-.14 1-.16 1.52-.2.72-.06 1.3-.2 1.84-.33.45-.1 1.27-.22 1.4-.44.13-.2.28.17.42-.05 0 0 .14 0 .17-.02.35-.1.72-.02.82-.2.05-.08.66-.08.67-.08.12-.03.26-.13.32-.13.05 0 .1.07.1.07.13 0 .06-.1.16-.02.08.07.25-.12.24-.12.07-.02.1.07.1.07.15-.02.25-.1.4-.14.13 0 .18.1.36.04.28-.1.7-.32 1.07-.3 0-.25-.2-.37-.32-.48-.03-.04-.14.03-.17 0-.12-.08-.06-.42-.3-.3-.5.1-.98.16-1.5.3-.12.02-.16.08-.33.12-.28.07-.42.04-.5.15 0 .02-.14.02-.16.02l-.66.17c-.33.07-.43-.03-.5.06 0 .02-.14.02-.16.03-.57.08-1.06.18-1.43.27-.07.02-.16.02-.24.03-.1.03-.17.1-.24.12-.8.2-2 .38-2.67.53-.3.08-.6.06-.66.18-.06.07-.47.06-.52.07-.2.05-.4.13-.58.16-.2.04-.57-.05-.76.03-.2.08-.14.02-.43.06-.5.05-1.02.08-1.5.2-.23.04-.43.2-.65.24-.22.06-.45.05-.68.1-.25.05-.43.14-.66.17-.3.06-.34-.04-.4.07-.07.1-.4-.03-.44-.03-.47 0-.75.07-1.1.06-.1 0-.06.1-.08.1-.1.03-.07-.16-.1-.16-.14-.02-.3.06-.43.05-.45-.34-.6-1.2-.96-1.42-.03-.02 0-.14-.03-.17-.1-.16-.17-.3-.23-.47-.03-.07-.08-.05-.1-.07l-.45-.8c-.1-.15-.43-.65-.46-.8 0-.08-.08-.04-.1-.07-.13-.3-.18-.63-.35-.73-.03-.02 0-.14-.03-.17 0 0-.07.02-.08 0-.04 0-.02-.13-.03-.16 0 0-.08.02-.1 0l-.1-.23c-.05-.1-.04-.1-.1-.15-.02 0-.13-.24-.13-.24-.04-.1-.03-.1-.1-.14-.03-.02 0-.15-.03-.17-.1-.23-.3-.5-.33-.65-.02-.1-.08-.05-.1-.08-.13-.25-.15-.44-.26-.65 0 0-.06.02-.07 0-.02 0 0-.13-.02-.15-.06-.12-.1-.15-.12-.33-.02-.1-.07-.03-.1-.07-.12-.2-.22-.56-.34-.64-.04-.03-.15-.5-.15-.5-.02-.08-.1-.04-.1-.07-.15-.3-.22-.77-.4-.97-.1-.14-.17-.38-.24-.58l-.15-.5-.08.02c-.02-.02 0-.14-.02-.17-.1-.18-.17-.32-.23-.48-.12-.3-.44-.6-.47-.98-.4.02-.43-.43-.83-.4 0 .06 0 .1.02.17zm.72-.28c.1-.14.3-.17.4-.3.1-.13.32-.16.38-.32-.57.18-1.14-.1-1.42.28.27.04.32.37.64.34zm1.3-.52c-.14.12-.18.13-.3.2-.03.03-.04.17-.07.2-.16.1-.47.07-.56.33-.06 0-.1.02-.08.1.1 0 .07.06.1.15.12.28.27.74.37.8.02.02 0 .15 0 .17.12.18.2.33.25.5.02.04.1.05.1.06.13.3.22.73.36.82.02 0 .14.32.14.32.06.12.06.17.13.33.06.16.17.32.23.48.06.15.08.27.14.4l.12.25c.02.1.07.04.1.07.16.26.25.56.36.8.06.14.22.4.24.5 0 .1.07.03.1.07.1.2.2.56.33.64.02 0 0 .14 0 .17l.1-.02c.03.02 0 .15.02.17l.35.73s.08-.02.1 0v.15c.06.1.13.18.2.23.04.03.02.15.04.18l.34.56c.55.94 1.18 2 1.66 2.86.14.24.18.55.44.7.1-.56.36-1.04.57-1.52.02 0 0-.06 0-.08 0-.1.05-.05.07-.1.07-.15.07-.26.12-.36.02-.06.1-.12.14-.2.04-.06 0-.18.05-.25 0-.04.14 0 .16-.03.07-.16-.04-.34.1-.45-.07-.46-.44-.96-.5-1.3-.02-.08-.08-.04-.1-.07l-.34-.64c-.07-.1-.16-.2-.22-.3-.1-.2-.18-.42-.23-.5-.1-.1-.2-.3-.23-.4-.02-.07-.07-.02-.1-.06-.06-.1-.07-.3-.13-.4-.05-.13-.15-.22-.2-.32-.25-.45-.47-.9-.7-1.36-.03-.07-.07-.05-.1-.08-.1-.14-.16-.4-.25-.56l-.47-.97c-.06-.14-.1-.3-.14-.4-.2-.52-.48-.96-.7-1.37-.13-.28-.33-.67-.44-.8-.08-.1-.2-.33-.23-.4-.03-.18-.17-.1-.2-.3-.02-.1-.1-.05-.1-.08-.05-.1.05-.43-.22-.32-.43.12-.64.48-.92.72zm20.26 5.44c0-.08-.07-.04-.1-.07-.24-.45-.46-.96-.7-1.45-.18-.37-.54-1.03-.6-1.37-.02-.08-.1-.05-.1-.07-.13-.28-.2-.6-.3-.82h-.07V8.7c-.1-.18-.18-.32-.25-.48-.02-.07-.08-.06-.1-.08-.12-.24-.2-.46-.35-.72-.08-.16-.3-.42-.33-.56 0-.08-.07-.03-.1-.07-.14-.27-.27-.62-.43-.72-.03-.02 0-.14-.02-.17-.08-.12-.2-.3-.23-.4-.02-.07-.1-.03-.1-.06-.12-.22-.2-.7-.37-.8-.02-.03 0-.15-.02-.18 0 0-.06.02-.07 0-.03 0 0-.13-.02-.16-.1-.2-.16-.35-.22-.4-.03 0 0-.13-.02-.16-.15-.27-.4-.64-.53-.8-.04-.02-.15 0-.18-.05-.04-.04 0-.15-.03-.18-.2-.15-.94.2-1.25.26-.9.2-1.76.25-2.68.44-.03 0 0 .1-.08.1-.04 0 0-.1-.1-.08 0 0-.04.08-.07.1-.07.03-.18 0-.26.03-.32.08-.7.23-.82.28-.05.02-.12 0-.17.02-.24.06-.42.14-.5.15-.07.02-.1-.07-.17-.06-.1.02-.15.1-.32.13l-.24.02c-.05 0-.12-.07-.1-.07-.1.02-.3.18-.4.22-.07.04-.17 0-.25.04-.54.2-1.3.28-1.9.43-.44.1-.9.27-1.33.35-1 .2-2 .32-3.08.67 0 .08-.06.1-.07.18-.15.1.1.2.12.24.03.07 0 .18.03.25 0 .03.17.1.2.15.06.1.13.27.22.4.17.26.37.5.53.78.02.05 0 .12.02.17.07.2.17.32.23.48.03.06.1.06.1.08.13.24.16.4.25.56.05.1.06.18.13.33.08.2.18.24.2.3.04.1 0 .2.04.26.1.24.3.5.35.65l.1.24c.08.12.1.2.14.32 0 .06.08.07.1.07.15.38.2.6.36.9.18.34.37.64.56.96.6 1.04 1.18 2.1 1.7 3.12.1.3-.18.53.16.57-.05-.06.26-.18.33-.12.02 0 .02.16.03.16.1 0 .24-.03.34-.05.18-.05.6-.13.74-.2.05 0 .1-.1.1-.08.8-.26 1.64-.22 2.5-.34.42-.06.86-.17 1.26-.25 1.34-.28 2.64-.5 3.92-.78.28-.06.88-.15 1.1-.23 0 0 .1-.1.06-.1.24-.04.4.05.43.03.04 0-.02-.1.08-.1s.22-.04.33-.04c.3 0 .26 0 .42-.05.4-.15.85-.1 1.18-.15.44-.08.83-.28 1.27-.17.06-.17-.3-.25-.05-.34.14-.54-.44-.92-.52-1.3zm-14.96 9.88c.25 1.1-.02 1.8.02 2.74-.1.03-.04.1.03.16.05 0 .1 0 .16-.02 1.5-.14 2.85-.17 4.24-.4.66-.1 1.27-.24 1.9-.42.27-.06.6-.1.84-.2.04 0 .1-.1.08-.1.08 0 .1.08.18.07-.02 0 .04-.08.07-.1h.17c.74-.22 1.56-.32 2.43-.42.3-.04.36.04.42-.06.02-.02.23-.03.26-.03.05 0 .12.07.1.07.24-.02.28-.18.42-.04.06.04.1-.1.08-.1.23-.07.36-.04.43.03.05.03.1-.1.07-.1 1.4-.23 3.06-.44 4.2-.65.46-.1.8-.13 1.08-.23.46-.17.77-.38 1.16-.33-.12-.66-.38-1.25-.3-1.68.07-.5.14-.9.15-1.4 0-.14.13-.4-.08-.5-.1.2-.32.1-.5.15-.6.16-1.65.28-2.26.4-.05 0-.08.1-.07.08-.14.03-.1-.1-.18.03 0 .02-.14 0-.17.02-.75.2-1.44.28-2.08.45-.3.08-.6.22-.9.3-.3.05-.64.06-.93.1-.3.07-.55.17-.83.2-.3.05-.63 0-.93.05-.6.07-1.16.3-1.74.4-.32.06-.78.13-1 .13-.17 0-.2-.04-.26.04-.02.02-.14 0-.17.02-.26.14-.74.16-1 .2-.06.02-.08.1-.07.1-.32.07-.4-.04-.6 0-.06 0-.1.1-.08.1-.13.02-.1-.1-.17.02-.03.05-.12-.07-.1-.08-.1.03-.1.1-.23.12-.06 0-.1-.07-.1-.07-.13 0-.07.1-.17 0-.18-.15-.3.18-.42.07 0-.02-.14.02-.17.02-.33 0-.3.15-.43.05-.06-.07-.6.07-.67.1-.1 0-.1.08-.16.1 0 0-.03-.1-.1-.08-.18.02-.16.2-.33.04-.04-.03-.1.1-.06.1-.53.02-1 .06-1.47-.05 0 .3.47.26.25.57zm.5-2.04c0 .08.03.07.1.07.08 0 .13-.1.15-.1.1-.02.12.07.18.06.08 0 .1-.1.16-.1.17-.02.2.04.36.04.56 0 1.33-.15 1.77-.23.04 0 .1-.1.07-.1.08 0 .1.07.18.07l.25-.03.33-.13c.37-.13.75-.15 1.17-.23.28-.06.22-.13.5-.15.03 0 .1.07.08.07.1-.02.07-.1.1-.1.05-.03.1.07.08.07.08-.02.06-.1.07-.1.08-.03.12.07.2.06 0 0 0-.08.06-.1.07 0 .1.08.1.08.42 0 .82-.18 1-.2.2-.04.43.04.6 0 .1-.02.04-.08.08-.1.06-.04.18 0 .25-.03 0 0-.02-.08 0-.1.02-.03.27-.02.32-.03.65-.13 1.3-.22 1.93-.34.32-.07.65-.04.74-.2.04-.04.13.08.1.08.32-.07.58-.22.9-.3.7-.13 1.42-.22 1.93-.33.2-.04.42-.03.5-.07.73-.28 1.68-.48 2.57-.68-.2-.52-.52-1-.8-1.44-.13-.22-.28-.35-.32-.55-.02-.08-.08-.03-.1-.07-.14-.23-.2-.54-.44-.7-.13.18-.4.1-.57.15-.67.15-1.32.26-2.02.36-.1 0-.1.1-.24.1-.12.03-.2-.04-.27-.04-1 .08-1.97.46-2.66.6l-.73.2c-.02 0-.08-.1-.2-.06l.03.08c-.02.02-.15.02-.17.02-.36.07-.9.06-1 .22-.04.06-.12-.07-.1-.07-.13 0-.2.02-.24.1-.04.06-.13-.06-.1-.07-.16.03-.18.1-.33.13-.7.2-1.36.23-1.85.25-.2.02-.38.07-.6.1-.08 0-.1-.08-.17-.07.02 0-.04.08-.07.1-.26.1-.52.04-.76.1-.66.13-1.27.5-2 .43 0 .17-.2.38-.2.45 0 .1-.05.06-.07.1-.03.1 0 .2-.05.28-.02.04-.13.06-.15.1-.04.07-.03.2-.06.27h-.1l-.04.27c-.02.2-.07.16-.14.28-.03.06-.03.2-.05.26-.06.18-.14.4-.2.46-.02.02.04.13.03.16-.02.06-.12.14-.15.2-.04.1 0 .18-.05.26-.04.08-.2.1-.13.28l.25-.04zm11.42-15.23c0-.2-.06-.3-.2-.3.02.14.1.26.2.3z"/></svg>